%TF.GenerationSoftware,KiCad,Pcbnew,9.0.7*%
%TF.CreationDate,2026-04-03T10:46:12-05:00*%
%TF.ProjectId,SaxCard,53617843-6172-4642-9e6b-696361645f70,rev?*%
%TF.SameCoordinates,Original*%
%TF.FileFunction,Paste,Top*%
%TF.FilePolarity,Positive*%
%FSLAX46Y46*%
G04 Gerber Fmt 4.6, Leading zero omitted, Abs format (unit mm)*
G04 Created by KiCad (PCBNEW 9.0.7) date 2026-04-03 10:46:12*
%MOMM*%
%LPD*%
G01*
G04 APERTURE LIST*
G04 Aperture macros list*
%AMRoundRect*
0 Rectangle with rounded corners*
0 $1 Rounding radius*
0 $2 $3 $4 $5 $6 $7 $8 $9 X,Y pos of 4 corners*
0 Add a 4 corners polygon primitive as box body*
4,1,4,$2,$3,$4,$5,$6,$7,$8,$9,$2,$3,0*
0 Add four circle primitives for the rounded corners*
1,1,$1+$1,$2,$3*
1,1,$1+$1,$4,$5*
1,1,$1+$1,$6,$7*
1,1,$1+$1,$8,$9*
0 Add four rect primitives between the rounded corners*
20,1,$1+$1,$2,$3,$4,$5,0*
20,1,$1+$1,$4,$5,$6,$7,0*
20,1,$1+$1,$6,$7,$8,$9,0*
20,1,$1+$1,$8,$9,$2,$3,0*%
G04 Aperture macros list end*
%ADD10C,0.250000*%
%ADD11C,0.300000*%
%ADD12RoundRect,0.249999X-0.395001X-0.395001X0.395001X-0.395001X0.395001X0.395001X-0.395001X0.395001X0*%
%ADD13RoundRect,0.050000X-0.387500X-0.050000X0.387500X-0.050000X0.387500X0.050000X-0.387500X0.050000X0*%
%ADD14RoundRect,0.050000X-0.050000X-0.387500X0.050000X-0.387500X0.050000X0.387500X-0.050000X0.387500X0*%
G04 APERTURE END LIST*
D10*
G36*
X79060080Y-73512329D02*
G01*
X79060080Y-74303676D01*
X78996883Y-74303676D01*
X78968821Y-74153574D01*
X78931477Y-74034749D01*
X78886668Y-73941891D01*
X78826796Y-73858927D01*
X78751951Y-73787941D01*
X78660438Y-73728178D01*
X78560196Y-73683827D01*
X78459311Y-73657757D01*
X78356508Y-73649105D01*
X78242367Y-73661788D01*
X78145705Y-73698134D01*
X78062654Y-73757945D01*
X77996666Y-73836209D01*
X77959084Y-73917859D01*
X77946638Y-74005547D01*
X77964664Y-74106185D01*
X78020064Y-74199109D01*
X78101285Y-74276988D01*
X78257906Y-74387742D01*
X78523967Y-74541812D01*
X78820466Y-74710274D01*
X78966963Y-74808800D01*
X79072769Y-74910017D01*
X79149687Y-75026024D01*
X79197869Y-75154456D01*
X79213801Y-75288127D01*
X79201094Y-75413546D01*
X79163641Y-75528551D01*
X79100782Y-75635757D01*
X79009705Y-75736923D01*
X78902559Y-75818058D01*
X78781251Y-75876547D01*
X78643103Y-75912789D01*
X78484583Y-75925448D01*
X78294990Y-75909420D01*
X78075476Y-75844695D01*
X77922757Y-75798404D01*
X77864512Y-75788672D01*
X77825671Y-75795622D01*
X77797040Y-75815386D01*
X77777618Y-75850168D01*
X77760403Y-75925448D01*
X77697205Y-75925448D01*
X77697205Y-75134101D01*
X77760403Y-75134101D01*
X77816993Y-75370451D01*
X77879930Y-75514815D01*
X77937068Y-75592210D01*
X78012712Y-75662079D01*
X78109670Y-75724711D01*
X78215448Y-75770890D01*
X78327909Y-75798746D01*
X78448710Y-75808212D01*
X78586818Y-75794402D01*
X78697274Y-75755954D01*
X78786070Y-75694791D01*
X78855979Y-75612742D01*
X78896328Y-75524314D01*
X78909871Y-75426429D01*
X78898535Y-75341511D01*
X78862854Y-75252712D01*
X78804993Y-75170308D01*
X78716767Y-75089222D01*
X78620975Y-75026202D01*
X78352997Y-74871693D01*
X78079601Y-74710189D01*
X77930305Y-74606384D01*
X77818070Y-74499691D01*
X77739948Y-74387176D01*
X77691505Y-74262224D01*
X77675071Y-74123546D01*
X77687041Y-74002792D01*
X77722261Y-73892286D01*
X77781214Y-73789556D01*
X77866344Y-73692916D01*
X77967050Y-73614807D01*
X78080018Y-73558833D01*
X78207612Y-73524332D01*
X78352997Y-73512329D01*
X78474293Y-73521993D01*
X78604042Y-73552166D01*
X78744091Y-73605294D01*
X78834012Y-73640753D01*
X78879035Y-73649105D01*
X78919972Y-73642085D01*
X78951545Y-73621933D01*
X78974651Y-73586409D01*
X78996883Y-73512329D01*
X79060080Y-73512329D01*
G37*
G36*
X81489228Y-75434215D02*
G01*
X81592273Y-75650488D01*
X81665999Y-75747151D01*
X81722893Y-75786471D01*
X81795310Y-75813782D01*
X81887191Y-75827751D01*
X81887191Y-75876600D01*
X80973570Y-75876600D01*
X80973570Y-75827751D01*
X81099066Y-75809827D01*
X81160569Y-75780429D01*
X81197378Y-75735041D01*
X81209265Y-75682121D01*
X81195711Y-75595617D01*
X81140877Y-75438184D01*
X81000895Y-75104792D01*
X80104219Y-75104792D01*
X79947140Y-75466729D01*
X79900825Y-75599951D01*
X79889132Y-75676626D01*
X79901157Y-75727304D01*
X79939507Y-75773560D01*
X80005956Y-75804440D01*
X80157189Y-75827751D01*
X80157189Y-75876600D01*
X79427971Y-75876600D01*
X79427971Y-75827751D01*
X79558365Y-75793177D01*
X79615886Y-75758905D01*
X79697186Y-75648700D01*
X79808837Y-75414675D01*
X79995905Y-74977786D01*
X80157189Y-74977786D01*
X80952963Y-74977786D01*
X80560189Y-74041878D01*
X80157189Y-74977786D01*
X79995905Y-74977786D01*
X80623387Y-73512329D01*
X80683227Y-73512329D01*
X81489228Y-75434215D01*
G37*
G36*
X83357228Y-75876600D02*
G01*
X82462383Y-73928305D01*
X82462383Y-75466272D01*
X82469804Y-75621777D01*
X82487080Y-75708425D01*
X82508484Y-75751120D01*
X82555916Y-75791995D01*
X82620608Y-75818106D01*
X82708305Y-75827751D01*
X82790279Y-75827751D01*
X82790279Y-75876600D01*
X81984125Y-75876600D01*
X81984125Y-75827751D01*
X82066099Y-75827751D01*
X82158988Y-75815964D01*
X82226220Y-75783947D01*
X82274469Y-75732802D01*
X82299762Y-75655196D01*
X82312021Y-75466272D01*
X82312021Y-73971505D01*
X82301792Y-73819092D01*
X82277827Y-73734132D01*
X82245243Y-73686839D01*
X82189900Y-73645594D01*
X82115398Y-73620555D01*
X81984125Y-73610026D01*
X81984125Y-73561177D01*
X82639917Y-73561177D01*
X83480265Y-75363995D01*
X84306722Y-73561177D01*
X84962514Y-73561177D01*
X84962514Y-73610026D01*
X84882219Y-73610026D01*
X84788190Y-73621860D01*
X84720468Y-73653919D01*
X84672170Y-73704975D01*
X84646877Y-73782581D01*
X84634618Y-73971505D01*
X84634618Y-75466272D01*
X84642289Y-75621607D01*
X84660166Y-75708282D01*
X84682398Y-75751120D01*
X84729830Y-75791995D01*
X84794521Y-75818106D01*
X84882219Y-75827751D01*
X84962514Y-75827751D01*
X84962514Y-75876600D01*
X83978826Y-75876600D01*
X83978826Y-75827751D01*
X84060800Y-75827751D01*
X84154768Y-75815874D01*
X84221855Y-75783799D01*
X84269170Y-75732802D01*
X84294463Y-75655196D01*
X84306722Y-75466272D01*
X84306722Y-73928305D01*
X83413557Y-75876600D01*
X83357228Y-75876600D01*
G37*
G36*
X86152708Y-73569667D02*
G01*
X86313172Y-73592379D01*
X86434688Y-73625749D01*
X86547753Y-73678513D01*
X86648015Y-73750631D01*
X86736938Y-73843583D01*
X86804910Y-73951267D01*
X86845881Y-74071212D01*
X86859976Y-74206894D01*
X86847591Y-74346908D01*
X86812019Y-74468959D01*
X86754171Y-74576425D01*
X86672977Y-74671719D01*
X86574834Y-74747041D01*
X86456888Y-74802709D01*
X86315151Y-74838123D01*
X86144497Y-74850780D01*
X85963299Y-74838262D01*
X85755082Y-74800252D01*
X85755082Y-75466272D01*
X85762785Y-75621455D01*
X85780682Y-75707415D01*
X85802862Y-75749441D01*
X85851315Y-75791612D01*
X85915116Y-75818106D01*
X85999172Y-75827751D01*
X86088016Y-75827751D01*
X86088016Y-75876600D01*
X85095779Y-75876600D01*
X85095779Y-75827751D01*
X85182943Y-75827751D01*
X85275453Y-75815551D01*
X85343366Y-75782118D01*
X85392992Y-75728069D01*
X85415896Y-75653679D01*
X85427186Y-75466272D01*
X85427186Y-73971505D01*
X85419734Y-73816148D01*
X85402520Y-73730621D01*
X85755082Y-73730621D01*
X85755082Y-74699196D01*
X85915519Y-74724994D01*
X86035198Y-74733543D01*
X86147668Y-74718328D01*
X86248618Y-74673185D01*
X86341570Y-74595393D01*
X86412050Y-74496393D01*
X86455324Y-74378742D01*
X86470561Y-74237272D01*
X86454985Y-74090636D01*
X86409042Y-73956545D01*
X86361363Y-73875861D01*
X86303512Y-73811819D01*
X86234867Y-73762372D01*
X86116095Y-73714462D01*
X85978717Y-73697953D01*
X85886253Y-73705130D01*
X85755082Y-73730621D01*
X85402520Y-73730621D01*
X85402438Y-73730216D01*
X85381085Y-73688336D01*
X85331533Y-73646096D01*
X85267048Y-73619627D01*
X85182943Y-73610026D01*
X85095779Y-73610026D01*
X85095779Y-73561177D01*
X85944523Y-73561177D01*
X86152708Y-73569667D01*
G37*
G36*
X88986873Y-75231798D02*
G01*
X89043202Y-75243858D01*
X88845212Y-75876600D01*
X87052012Y-75876600D01*
X87052012Y-75827751D01*
X87139023Y-75827751D01*
X87231575Y-75815595D01*
X87299484Y-75782300D01*
X87349072Y-75728527D01*
X87373180Y-75652922D01*
X87384945Y-75466272D01*
X87384945Y-73971505D01*
X87377305Y-73817716D01*
X87359452Y-73731392D01*
X87337165Y-73688336D01*
X87287701Y-73646109D01*
X87223228Y-73619634D01*
X87139023Y-73610026D01*
X87052012Y-73610026D01*
X87052012Y-73561177D01*
X88100577Y-73561177D01*
X88100577Y-73610026D01*
X87930401Y-73619932D01*
X87841832Y-73645441D01*
X87777438Y-73689265D01*
X87740166Y-73739475D01*
X87721943Y-73815597D01*
X87712841Y-74010584D01*
X87712841Y-75465356D01*
X87721318Y-75595720D01*
X87740166Y-75659987D01*
X87765759Y-75690800D01*
X87803364Y-75712957D01*
X87867686Y-75724004D01*
X88069741Y-75730054D01*
X88238879Y-75730054D01*
X88485347Y-75717867D01*
X88612876Y-75690364D01*
X88713834Y-75636783D01*
X88809186Y-75549925D01*
X88891495Y-75431484D01*
X88986873Y-75231798D01*
G37*
G36*
X89849966Y-73688184D02*
G01*
X89849966Y-74596767D01*
X90358907Y-74596767D01*
X90491375Y-74588102D01*
X90574548Y-74566741D01*
X90623605Y-74537691D01*
X90670508Y-74479373D01*
X90704680Y-74391848D01*
X90722676Y-74264597D01*
X90785874Y-74264597D01*
X90785874Y-75065713D01*
X90722676Y-75065713D01*
X90695326Y-74913391D01*
X90674896Y-74850780D01*
X90635229Y-74798792D01*
X90573994Y-74757662D01*
X90494074Y-74733712D01*
X90358907Y-74723773D01*
X89849966Y-74723773D01*
X89849966Y-75489322D01*
X89854667Y-75628794D01*
X89863552Y-75676778D01*
X89882140Y-75706480D01*
X89911485Y-75729901D01*
X89953667Y-75743456D01*
X90041239Y-75749593D01*
X90434012Y-75749593D01*
X90616988Y-75741294D01*
X90719165Y-75721963D01*
X90803974Y-75682440D01*
X90889983Y-75613275D01*
X90990336Y-75489146D01*
X91106901Y-75290417D01*
X91175289Y-75290417D01*
X90975468Y-75876600D01*
X89190816Y-75876600D01*
X89190816Y-75827751D01*
X89272790Y-75827751D01*
X89352370Y-75817515D01*
X89428189Y-75786535D01*
X89474152Y-75750709D01*
X89502378Y-75700745D01*
X89515741Y-75628658D01*
X89522070Y-75466272D01*
X89522070Y-73971505D01*
X89514801Y-73811354D01*
X89498051Y-73724134D01*
X89477648Y-73682688D01*
X89431407Y-73644484D01*
X89365442Y-73619455D01*
X89272790Y-73610026D01*
X89190816Y-73610026D01*
X89190816Y-73561177D01*
X90975468Y-73561177D01*
X91001113Y-74069202D01*
X90934404Y-74069202D01*
X90892323Y-73901787D01*
X90855025Y-73818090D01*
X90802112Y-73758715D01*
X90726035Y-73713829D01*
X90644727Y-73696092D01*
X90485303Y-73688184D01*
X89849966Y-73688184D01*
G37*
G36*
X94122537Y-73561177D02*
G01*
X94148182Y-74105534D01*
X94083305Y-74105534D01*
X94058621Y-73973081D01*
X94032014Y-73900675D01*
X93969337Y-73813579D01*
X93891117Y-73754740D01*
X93794790Y-73720619D01*
X93659849Y-73707723D01*
X93333632Y-73707723D01*
X93333632Y-75466272D01*
X93341053Y-75621777D01*
X93358329Y-75708425D01*
X93379733Y-75751120D01*
X93428127Y-75792145D01*
X93492914Y-75818193D01*
X93579402Y-75827751D01*
X93659697Y-75827751D01*
X93659697Y-75876600D01*
X92677840Y-75876600D01*
X92677840Y-75827751D01*
X92759814Y-75827751D01*
X92852703Y-75815964D01*
X92919935Y-75783947D01*
X92968184Y-75732802D01*
X92993477Y-75655196D01*
X93005736Y-75466272D01*
X93005736Y-73707723D01*
X92727300Y-73707723D01*
X92576931Y-73714973D01*
X92496795Y-73731537D01*
X92415972Y-73777663D01*
X92344754Y-73856253D01*
X92296081Y-73959143D01*
X92269650Y-74105534D01*
X92204773Y-74105534D01*
X92232097Y-73561177D01*
X94122537Y-73561177D01*
G37*
G36*
X94935102Y-73688184D02*
G01*
X94935102Y-74596767D01*
X95444043Y-74596767D01*
X95576511Y-74588102D01*
X95659684Y-74566741D01*
X95708741Y-74537691D01*
X95755644Y-74479373D01*
X95789816Y-74391848D01*
X95807812Y-74264597D01*
X95871010Y-74264597D01*
X95871010Y-75065713D01*
X95807812Y-75065713D01*
X95780462Y-74913391D01*
X95760032Y-74850780D01*
X95720365Y-74798792D01*
X95659130Y-74757662D01*
X95579210Y-74733712D01*
X95444043Y-74723773D01*
X94935102Y-74723773D01*
X94935102Y-75489322D01*
X94939803Y-75628794D01*
X94948688Y-75676778D01*
X94967276Y-75706480D01*
X94996621Y-75729901D01*
X95038803Y-75743456D01*
X95126375Y-75749593D01*
X95519148Y-75749593D01*
X95702124Y-75741294D01*
X95804301Y-75721963D01*
X95889110Y-75682440D01*
X95975119Y-75613275D01*
X96075472Y-75489146D01*
X96192037Y-75290417D01*
X96260425Y-75290417D01*
X96060604Y-75876600D01*
X94275952Y-75876600D01*
X94275952Y-75827751D01*
X94357926Y-75827751D01*
X94437506Y-75817515D01*
X94513325Y-75786535D01*
X94559288Y-75750709D01*
X94587514Y-75700745D01*
X94600877Y-75628658D01*
X94607206Y-75466272D01*
X94607206Y-73971505D01*
X94599937Y-73811354D01*
X94583188Y-73724134D01*
X94562785Y-73682688D01*
X94516543Y-73644484D01*
X94450578Y-73619455D01*
X94357926Y-73610026D01*
X94275952Y-73610026D01*
X94275952Y-73561177D01*
X96060604Y-73561177D01*
X96086249Y-74069202D01*
X96019540Y-74069202D01*
X95977460Y-73901787D01*
X95940162Y-73818090D01*
X95887248Y-73758715D01*
X95811171Y-73713829D01*
X95729863Y-73696092D01*
X95570439Y-73688184D01*
X94935102Y-73688184D01*
G37*
G36*
X97769083Y-74594019D02*
G01*
X98265964Y-75335296D01*
X98465689Y-75618992D01*
X98572489Y-75735397D01*
X98643200Y-75781810D01*
X98726792Y-75812825D01*
X98826196Y-75827751D01*
X98826196Y-75876600D01*
X97832280Y-75876600D01*
X97832280Y-75827751D01*
X97924743Y-75820586D01*
X97979131Y-75806532D01*
X98011730Y-75786515D01*
X98038055Y-75757989D01*
X98055601Y-75724381D01*
X98061105Y-75691891D01*
X98045688Y-75610680D01*
X97951807Y-75455281D01*
X97557660Y-74864366D01*
X97073906Y-75482911D01*
X96981705Y-75619992D01*
X96966439Y-75691586D01*
X96977831Y-75743063D01*
X97012540Y-75785314D01*
X97070514Y-75812144D01*
X97188395Y-75827751D01*
X97188395Y-75876600D01*
X96366976Y-75876600D01*
X96366976Y-75827751D01*
X96450282Y-75813449D01*
X96517185Y-75790504D01*
X96619734Y-75737069D01*
X96718686Y-75666703D01*
X96814155Y-75575543D01*
X96937283Y-75427498D01*
X97475228Y-74740565D01*
X97027805Y-74062638D01*
X96895194Y-73881401D01*
X96791806Y-73766810D01*
X96711816Y-73701159D01*
X96621991Y-73653266D01*
X96523087Y-73622814D01*
X96413077Y-73610026D01*
X96413077Y-73561177D01*
X97483776Y-73561177D01*
X97483776Y-73610026D01*
X97359536Y-73626582D01*
X97296778Y-73655974D01*
X97258107Y-73700415D01*
X97246403Y-73746039D01*
X97262618Y-73816023D01*
X97328377Y-73936701D01*
X97686498Y-74470829D01*
X98095299Y-73948760D01*
X98183074Y-73817632D01*
X98199408Y-73744817D01*
X98194214Y-73709527D01*
X98178953Y-73679177D01*
X98149609Y-73647260D01*
X98114076Y-73626970D01*
X98064424Y-73616377D01*
X97951807Y-73610026D01*
X97951807Y-73561177D01*
X98773226Y-73561177D01*
X98773226Y-73610026D01*
X98680864Y-73621204D01*
X98614468Y-73641167D01*
X98526154Y-73687837D01*
X98445177Y-73748634D01*
X98363258Y-73832561D01*
X98228412Y-73998067D01*
X97769083Y-74594019D01*
G37*
G36*
X100890506Y-73561177D02*
G01*
X100916152Y-74105534D01*
X100851275Y-74105534D01*
X100826591Y-73973081D01*
X100799984Y-73900675D01*
X100737306Y-73813579D01*
X100659086Y-73754740D01*
X100562759Y-73720619D01*
X100427819Y-73707723D01*
X100101602Y-73707723D01*
X100101602Y-75466272D01*
X100109023Y-75621777D01*
X100126299Y-75708425D01*
X100147703Y-75751120D01*
X100196096Y-75792145D01*
X100260883Y-75818193D01*
X100347371Y-75827751D01*
X100427666Y-75827751D01*
X100427666Y-75876600D01*
X99445810Y-75876600D01*
X99445810Y-75827751D01*
X99527784Y-75827751D01*
X99620673Y-75815964D01*
X99687904Y-75783947D01*
X99736153Y-75732802D01*
X99761446Y-75655196D01*
X99773706Y-75466272D01*
X99773706Y-73707723D01*
X99495269Y-73707723D01*
X99344900Y-73714973D01*
X99264765Y-73731537D01*
X99183941Y-73777663D01*
X99112724Y-73856253D01*
X99064050Y-73959143D01*
X99037619Y-74105534D01*
X98972742Y-74105534D01*
X99000066Y-73561177D01*
X100890506Y-73561177D01*
G37*
D11*
G36*
X82044763Y-101769837D02*
G01*
X81914121Y-101733394D01*
X81797834Y-101722026D01*
X81712741Y-101729143D01*
X81643158Y-101748994D01*
X81586075Y-101780278D01*
X81540979Y-101824325D01*
X81514085Y-101878404D01*
X81504651Y-101945783D01*
X81515279Y-102000939D01*
X81549146Y-102055613D01*
X81613270Y-102112190D01*
X81719065Y-102171372D01*
X81930915Y-102273954D01*
X81981870Y-102307029D01*
X82036520Y-102353089D01*
X82084749Y-102407694D01*
X82122707Y-102471791D01*
X82146918Y-102543238D01*
X82155314Y-102625481D01*
X82145662Y-102729045D01*
X82118281Y-102816289D01*
X82074165Y-102890431D01*
X82012432Y-102953651D01*
X81937970Y-103004577D01*
X81857901Y-103040738D01*
X81771054Y-103062718D01*
X81675926Y-103070247D01*
X81553098Y-103061172D01*
X81443735Y-103035002D01*
X81345649Y-102992578D01*
X81381827Y-102840445D01*
X81496124Y-102885955D01*
X81591684Y-102910411D01*
X81671804Y-102917839D01*
X81764127Y-102909029D01*
X81838894Y-102884423D01*
X81899775Y-102845299D01*
X81946843Y-102791696D01*
X81975420Y-102726290D01*
X81985504Y-102645447D01*
X81979056Y-102584865D01*
X81960424Y-102532230D01*
X81929633Y-102485804D01*
X81888385Y-102446709D01*
X81822150Y-102401996D01*
X81722821Y-102350891D01*
X81521045Y-102253071D01*
X81476557Y-102222890D01*
X81429821Y-102180714D01*
X81389472Y-102131345D01*
X81359662Y-102076759D01*
X81341166Y-102017096D01*
X81334841Y-101951096D01*
X81343482Y-101863576D01*
X81368137Y-101789252D01*
X81408215Y-101725429D01*
X81464900Y-101670369D01*
X81532081Y-101627397D01*
X81608176Y-101596036D01*
X81694743Y-101576467D01*
X81793712Y-101569619D01*
X81889658Y-101574857D01*
X81986293Y-101590702D01*
X82084147Y-101617521D01*
X82044763Y-101769837D01*
G37*
G36*
X83573052Y-103046800D02*
G01*
X83390602Y-103046800D01*
X83230776Y-102542682D01*
X82760547Y-102542682D01*
X82598706Y-103046800D01*
X82418363Y-103046800D01*
X82632544Y-102390275D01*
X82810648Y-102390275D01*
X83180676Y-102390275D01*
X82995204Y-101811786D01*
X82810648Y-102390275D01*
X82632544Y-102390275D01*
X82892622Y-101593066D01*
X83098702Y-101593066D01*
X83573052Y-103046800D01*
G37*
G36*
X84721054Y-103046800D02*
G01*
X84553351Y-103046800D01*
X84556282Y-101801161D01*
X84340035Y-102401998D01*
X84177186Y-102401998D01*
X83960940Y-101801161D01*
X83963871Y-103046800D01*
X83796076Y-103046800D01*
X83796076Y-101593066D01*
X84019283Y-101593066D01*
X84259069Y-102249041D01*
X84497938Y-101593066D01*
X84721054Y-101593066D01*
X84721054Y-103046800D01*
G37*
G36*
X85615211Y-101600385D02*
G01*
X85704278Y-101621070D01*
X85780467Y-101653858D01*
X85845792Y-101698396D01*
X85900365Y-101755295D01*
X85939250Y-101821262D01*
X85963290Y-101898100D01*
X85971730Y-101988465D01*
X85963391Y-102079299D01*
X85939526Y-102157538D01*
X85900784Y-102225617D01*
X85846342Y-102285220D01*
X85780873Y-102332546D01*
X85705624Y-102367013D01*
X85618775Y-102388561D01*
X85517988Y-102396137D01*
X85314931Y-102396137D01*
X85314931Y-103046800D01*
X85140999Y-103046800D01*
X85140999Y-102243729D01*
X85314931Y-102243729D01*
X85494358Y-102243729D01*
X85593054Y-102235296D01*
X85665706Y-102212789D01*
X85718498Y-102178817D01*
X85755694Y-102133608D01*
X85779059Y-102074978D01*
X85787541Y-101998723D01*
X85778370Y-101926667D01*
X85752019Y-101866492D01*
X85708040Y-101815358D01*
X85651448Y-101777309D01*
X85583941Y-101753785D01*
X85502601Y-101745474D01*
X85314931Y-101745474D01*
X85314931Y-102243729D01*
X85140999Y-102243729D01*
X85140999Y-101593066D01*
X85510752Y-101593066D01*
X85615211Y-101600385D01*
G37*
G36*
X87192639Y-103046800D02*
G01*
X86399827Y-103046800D01*
X86399827Y-101593066D01*
X86573758Y-101593066D01*
X86573758Y-102894392D01*
X87192639Y-102894392D01*
X87192639Y-103046800D01*
G37*
G36*
X88419685Y-103046800D02*
G01*
X87658654Y-103046800D01*
X87658654Y-101593066D01*
X88413548Y-101593066D01*
X88413548Y-101745474D01*
X87832586Y-101745474D01*
X87832586Y-102190973D01*
X88391017Y-102190973D01*
X88391017Y-102343380D01*
X87832586Y-102343380D01*
X87832586Y-102894392D01*
X88419685Y-102894392D01*
X88419685Y-103046800D01*
G37*
G36*
X91080772Y-101733750D02*
G01*
X90635089Y-101733750D01*
X90635089Y-103046800D01*
X90462165Y-103046800D01*
X90462165Y-101733750D01*
X90014377Y-101733750D01*
X90014377Y-101593066D01*
X91080772Y-101593066D01*
X91080772Y-101733750D01*
G37*
G36*
X92196168Y-103046800D02*
G01*
X91435137Y-103046800D01*
X91435137Y-101593066D01*
X92190031Y-101593066D01*
X92190031Y-101745474D01*
X91609069Y-101745474D01*
X91609069Y-102190973D01*
X92167500Y-102190973D01*
X92167500Y-102343380D01*
X91609069Y-102343380D01*
X91609069Y-102894392D01*
X92196168Y-102894392D01*
X92196168Y-103046800D01*
G37*
G36*
X93631583Y-103046800D02*
G01*
X93438142Y-103046800D01*
X93072969Y-102457594D01*
X92710818Y-103046800D01*
X92517377Y-103046800D01*
X92981378Y-102309949D01*
X92519392Y-101593066D01*
X92719061Y-101593066D01*
X93072969Y-102159923D01*
X93429899Y-101593066D01*
X93621325Y-101593066D01*
X93166575Y-102306469D01*
X93631583Y-103046800D01*
G37*
G36*
X94857254Y-101733750D02*
G01*
X94411572Y-101733750D01*
X94411572Y-103046800D01*
X94238648Y-103046800D01*
X94238648Y-101733750D01*
X93790860Y-101733750D01*
X93790860Y-101593066D01*
X94857254Y-101593066D01*
X94857254Y-101733750D01*
G37*
G36*
X79992698Y-98590468D02*
G01*
X78530599Y-95755724D01*
X79887673Y-95755724D01*
X80678104Y-97606169D01*
X82049222Y-95755724D01*
X83343404Y-95755724D01*
X81083853Y-98590468D01*
X80790151Y-100699200D01*
X79698690Y-100699200D01*
X79992698Y-98590468D01*
G37*
G36*
X86518292Y-95640258D02*
G01*
X86864114Y-95701702D01*
X87176796Y-95800604D01*
X87471558Y-95941530D01*
X87726587Y-96114840D01*
X87946161Y-96321146D01*
X88129976Y-96559598D01*
X88276902Y-96831595D01*
X88387019Y-97141802D01*
X88450289Y-97465640D01*
X88467980Y-97822374D01*
X88435868Y-98217692D01*
X88358388Y-98606757D01*
X88241582Y-98964178D01*
X88086295Y-99293582D01*
X87891857Y-99601307D01*
X87668315Y-99874080D01*
X87414627Y-100114543D01*
X87133239Y-100322080D01*
X86827426Y-100495277D01*
X86494748Y-100634780D01*
X86147866Y-100734968D01*
X85783934Y-100795801D01*
X85400234Y-100816436D01*
X85016440Y-100795177D01*
X84669332Y-100733778D01*
X84354264Y-100634780D01*
X84057286Y-100493722D01*
X83801094Y-100320483D01*
X83581236Y-100114543D01*
X83397588Y-99875923D01*
X83250762Y-99603820D01*
X83140683Y-99293582D01*
X83077412Y-98969744D01*
X83059722Y-98613010D01*
X83064294Y-98556731D01*
X84205891Y-98556731D01*
X84245882Y-98853029D01*
X84342379Y-99124492D01*
X84487071Y-99352811D01*
X84680418Y-99539713D01*
X84924266Y-99682539D01*
X85204043Y-99769541D01*
X85540063Y-99800386D01*
X85880559Y-99770353D01*
X86190360Y-99682539D01*
X86474873Y-99540386D01*
X86722199Y-99352811D01*
X86932034Y-99123005D01*
X87103218Y-98853029D01*
X87227474Y-98553003D01*
X87302886Y-98217692D01*
X87322723Y-97884287D01*
X87285178Y-97586019D01*
X87190486Y-97311812D01*
X87043989Y-97082879D01*
X86847841Y-96895657D01*
X86603130Y-96753151D01*
X86323600Y-96665927D01*
X85987638Y-96634999D01*
X85647114Y-96665100D01*
X85337036Y-96753151D01*
X85052814Y-96895113D01*
X84805503Y-97082879D01*
X84595849Y-97313026D01*
X84424179Y-97586019D01*
X84299796Y-97887940D01*
X84224816Y-98217692D01*
X84205891Y-98556731D01*
X83064294Y-98556731D01*
X83091834Y-98217692D01*
X83169827Y-97828792D01*
X83287833Y-97471381D01*
X83445070Y-97141802D01*
X83641253Y-96833724D01*
X83864751Y-96561065D01*
X84116433Y-96321146D01*
X84395854Y-96113751D01*
X84701589Y-95940410D01*
X85036312Y-95800604D01*
X85385580Y-95700334D01*
X85750765Y-95639541D01*
X86134489Y-95618948D01*
X86518292Y-95640258D01*
G37*
G36*
X93279509Y-98787999D02*
G01*
X93184881Y-99213114D01*
X93030991Y-99596748D01*
X92816247Y-99942498D01*
X92544948Y-100237886D01*
X92334768Y-100404010D01*
X92097891Y-100545758D01*
X91831454Y-100663174D01*
X91552337Y-100746721D01*
X91245856Y-100798520D01*
X90908216Y-100816436D01*
X90565275Y-100797837D01*
X90271349Y-100745425D01*
X90019477Y-100663174D01*
X89783599Y-100544593D01*
X89587033Y-100402890D01*
X89425051Y-100237886D01*
X89292905Y-100047844D01*
X89191485Y-99835254D01*
X89120663Y-99596748D01*
X89076352Y-99217720D01*
X89103261Y-98787999D01*
X89530076Y-95755724D01*
X90621230Y-95755724D01*
X90201743Y-98737014D01*
X90186886Y-98961573D01*
X90212124Y-99161080D01*
X90275935Y-99344343D01*
X90373019Y-99498135D01*
X90501842Y-99624410D01*
X90659699Y-99720396D01*
X90839319Y-99779711D01*
X91048045Y-99800386D01*
X91259692Y-99780195D01*
X91457152Y-99720396D01*
X91639750Y-99624917D01*
X91803366Y-99498135D01*
X91943425Y-99343489D01*
X92058600Y-99161080D01*
X92143104Y-98959057D01*
X92195070Y-98737014D01*
X92614863Y-95755724D01*
X93706018Y-95755724D01*
X93279509Y-98787999D01*
G37*
G36*
X97000093Y-95774569D02*
G01*
X97336077Y-95828997D01*
X97645917Y-95929201D01*
X97895698Y-96073545D01*
X98035066Y-96199319D01*
X98148925Y-96351654D01*
X98238249Y-96534248D01*
X98291416Y-96730612D01*
X98310008Y-96968358D01*
X98287403Y-97256902D01*
X98207154Y-97593710D01*
X98074316Y-97888211D01*
X97888676Y-98147167D01*
X97654063Y-98358906D01*
X97370598Y-98513555D01*
X97028331Y-98611534D01*
X97993701Y-100699200D01*
X96685475Y-100699200D01*
X95923132Y-98725717D01*
X95384577Y-98725717D01*
X95111635Y-100699200D01*
X94020480Y-100699200D01*
X94425537Y-97807364D01*
X95517384Y-97807364D01*
X96160964Y-97807364D01*
X96472068Y-97796984D01*
X96632277Y-97775381D01*
X96776456Y-97733481D01*
X96907135Y-97666006D01*
X97021309Y-97568006D01*
X97104509Y-97438423D01*
X97154116Y-97251406D01*
X97158401Y-97072712D01*
X97119006Y-96948545D01*
X97043656Y-96848926D01*
X96944067Y-96776049D01*
X96825625Y-96726832D01*
X96681811Y-96695143D01*
X96384751Y-96674077D01*
X95671257Y-96674077D01*
X95517384Y-97807364D01*
X94425537Y-97807364D01*
X94712909Y-95755724D01*
X96629605Y-95755724D01*
X97000093Y-95774569D01*
G37*
G36*
X101317235Y-95755724D02*
G01*
X102800095Y-95755724D01*
X104423088Y-99191000D01*
X104437132Y-99191000D01*
X104919817Y-95755724D01*
X106010972Y-95755724D01*
X105318544Y-100699200D01*
X103891555Y-100699200D01*
X102219713Y-97179965D01*
X102205669Y-97179965D01*
X101715962Y-100699200D01*
X100624807Y-100699200D01*
X101317235Y-95755724D01*
G37*
G36*
X111012150Y-100699200D02*
G01*
X109780861Y-100699200D01*
X109501203Y-99644070D01*
X107577485Y-99644070D01*
X107017863Y-100699200D01*
X105814662Y-100699200D01*
X106945588Y-98725717D01*
X108046126Y-98725717D01*
X109256349Y-98725717D01*
X108864645Y-97186682D01*
X108046126Y-98725717D01*
X106945588Y-98725717D01*
X108647574Y-95755724D01*
X109550051Y-95755724D01*
X111012150Y-100699200D01*
G37*
G36*
X112200697Y-95755724D02*
G01*
X113851473Y-95755724D01*
X114537185Y-98981562D01*
X114550923Y-98981562D01*
X116152851Y-95755724D01*
X117796911Y-95755724D01*
X117104177Y-100699200D01*
X116013022Y-100699200D01*
X116544556Y-96907940D01*
X116530512Y-96907940D01*
X114698080Y-100699200D01*
X113865517Y-100699200D01*
X113145001Y-96907940D01*
X113130957Y-96907940D01*
X112599423Y-100699200D01*
X111508268Y-100699200D01*
X112200697Y-95755724D01*
G37*
G36*
X118846850Y-95755724D02*
G01*
X122211600Y-95755724D01*
X122071771Y-96771775D01*
X119798176Y-96771775D01*
X119665369Y-97670588D01*
X121812874Y-97670588D01*
X121673045Y-98686638D01*
X119525540Y-98686638D01*
X119385711Y-99683149D01*
X121784786Y-99683149D01*
X121644957Y-100699200D01*
X118154421Y-100699200D01*
X118846850Y-95755724D01*
G37*
D10*
G36*
X142618605Y-72681853D02*
G01*
X142618605Y-73473200D01*
X142555408Y-73473200D01*
X142527346Y-73323098D01*
X142490002Y-73204273D01*
X142445193Y-73111415D01*
X142385321Y-73028451D01*
X142310476Y-72957465D01*
X142218963Y-72897702D01*
X142118721Y-72853351D01*
X142017836Y-72827281D01*
X141915033Y-72818629D01*
X141800892Y-72831312D01*
X141704230Y-72867658D01*
X141621179Y-72927469D01*
X141555191Y-73005733D01*
X141517609Y-73087383D01*
X141505163Y-73175071D01*
X141523189Y-73275709D01*
X141578589Y-73368633D01*
X141659810Y-73446512D01*
X141816431Y-73557266D01*
X142082492Y-73711336D01*
X142378991Y-73879798D01*
X142525488Y-73978324D01*
X142631294Y-74079541D01*
X142708212Y-74195548D01*
X142756394Y-74323980D01*
X142772326Y-74457651D01*
X142759619Y-74583070D01*
X142722166Y-74698075D01*
X142659307Y-74805281D01*
X142568230Y-74906447D01*
X142461084Y-74987582D01*
X142339776Y-75046071D01*
X142201628Y-75082313D01*
X142043108Y-75094972D01*
X141853515Y-75078944D01*
X141634001Y-75014219D01*
X141481282Y-74967928D01*
X141423037Y-74958196D01*
X141384196Y-74965146D01*
X141355565Y-74984910D01*
X141336143Y-75019692D01*
X141318928Y-75094972D01*
X141255730Y-75094972D01*
X141255730Y-74303625D01*
X141318928Y-74303625D01*
X141375518Y-74539975D01*
X141438455Y-74684339D01*
X141495593Y-74761734D01*
X141571237Y-74831603D01*
X141668195Y-74894235D01*
X141773973Y-74940414D01*
X141886434Y-74968270D01*
X142007235Y-74977736D01*
X142145343Y-74963926D01*
X142255799Y-74925478D01*
X142344595Y-74864315D01*
X142414504Y-74782266D01*
X142454853Y-74693838D01*
X142468396Y-74595953D01*
X142457060Y-74511035D01*
X142421379Y-74422236D01*
X142363518Y-74339832D01*
X142275292Y-74258746D01*
X142179500Y-74195726D01*
X141911522Y-74041217D01*
X141638126Y-73879713D01*
X141488830Y-73775908D01*
X141376595Y-73669215D01*
X141298473Y-73556700D01*
X141250030Y-73431748D01*
X141233596Y-73293070D01*
X141245566Y-73172316D01*
X141280786Y-73061810D01*
X141339739Y-72959080D01*
X141424869Y-72862440D01*
X141525575Y-72784331D01*
X141638543Y-72728357D01*
X141766137Y-72693856D01*
X141911522Y-72681853D01*
X142032818Y-72691517D01*
X142162567Y-72721690D01*
X142302616Y-72774818D01*
X142392537Y-72810277D01*
X142437560Y-72818629D01*
X142478497Y-72811609D01*
X142510070Y-72791457D01*
X142533176Y-72755933D01*
X142555408Y-72681853D01*
X142618605Y-72681853D01*
G37*
G36*
X145047753Y-74603739D02*
G01*
X145150798Y-74820012D01*
X145224524Y-74916675D01*
X145281418Y-74955995D01*
X145353835Y-74983306D01*
X145445716Y-74997275D01*
X145445716Y-75046124D01*
X144532095Y-75046124D01*
X144532095Y-74997275D01*
X144657591Y-74979351D01*
X144719094Y-74949953D01*
X144755903Y-74904565D01*
X144767790Y-74851645D01*
X144754236Y-74765141D01*
X144699402Y-74607708D01*
X144559420Y-74274316D01*
X143662744Y-74274316D01*
X143505665Y-74636253D01*
X143459350Y-74769475D01*
X143447657Y-74846150D01*
X143459682Y-74896828D01*
X143498032Y-74943084D01*
X143564481Y-74973964D01*
X143715714Y-74997275D01*
X143715714Y-75046124D01*
X142986496Y-75046124D01*
X142986496Y-74997275D01*
X143116890Y-74962701D01*
X143174411Y-74928429D01*
X143255711Y-74818224D01*
X143367362Y-74584199D01*
X143554430Y-74147310D01*
X143715714Y-74147310D01*
X144511488Y-74147310D01*
X144118714Y-73211402D01*
X143715714Y-74147310D01*
X143554430Y-74147310D01*
X144181912Y-72681853D01*
X144241752Y-72681853D01*
X145047753Y-74603739D01*
G37*
G36*
X146915753Y-75046124D02*
G01*
X146020908Y-73097829D01*
X146020908Y-74635796D01*
X146028329Y-74791301D01*
X146045605Y-74877949D01*
X146067009Y-74920644D01*
X146114441Y-74961519D01*
X146179133Y-74987630D01*
X146266830Y-74997275D01*
X146348804Y-74997275D01*
X146348804Y-75046124D01*
X145542650Y-75046124D01*
X145542650Y-74997275D01*
X145624624Y-74997275D01*
X145717513Y-74985488D01*
X145784745Y-74953471D01*
X145832994Y-74902326D01*
X145858287Y-74824720D01*
X145870546Y-74635796D01*
X145870546Y-73141029D01*
X145860317Y-72988616D01*
X145836352Y-72903656D01*
X145803768Y-72856363D01*
X145748425Y-72815118D01*
X145673923Y-72790079D01*
X145542650Y-72779550D01*
X145542650Y-72730701D01*
X146198442Y-72730701D01*
X147038790Y-74533519D01*
X147865247Y-72730701D01*
X148521039Y-72730701D01*
X148521039Y-72779550D01*
X148440744Y-72779550D01*
X148346715Y-72791384D01*
X148278993Y-72823443D01*
X148230695Y-72874499D01*
X148205402Y-72952105D01*
X148193143Y-73141029D01*
X148193143Y-74635796D01*
X148200814Y-74791131D01*
X148218691Y-74877806D01*
X148240923Y-74920644D01*
X148288355Y-74961519D01*
X148353046Y-74987630D01*
X148440744Y-74997275D01*
X148521039Y-74997275D01*
X148521039Y-75046124D01*
X147537351Y-75046124D01*
X147537351Y-74997275D01*
X147619325Y-74997275D01*
X147713293Y-74985398D01*
X147780380Y-74953323D01*
X147827695Y-74902326D01*
X147852988Y-74824720D01*
X147865247Y-74635796D01*
X147865247Y-73097829D01*
X146972082Y-75046124D01*
X146915753Y-75046124D01*
G37*
G36*
X149711233Y-72739191D02*
G01*
X149871697Y-72761903D01*
X149993213Y-72795273D01*
X150106278Y-72848037D01*
X150206540Y-72920155D01*
X150295463Y-73013107D01*
X150363435Y-73120791D01*
X150404406Y-73240736D01*
X150418501Y-73376418D01*
X150406116Y-73516432D01*
X150370544Y-73638483D01*
X150312696Y-73745949D01*
X150231502Y-73841243D01*
X150133359Y-73916565D01*
X150015413Y-73972233D01*
X149873676Y-74007647D01*
X149703022Y-74020304D01*
X149521824Y-74007786D01*
X149313607Y-73969776D01*
X149313607Y-74635796D01*
X149321310Y-74790979D01*
X149339207Y-74876939D01*
X149361387Y-74918965D01*
X149409840Y-74961136D01*
X149473641Y-74987630D01*
X149557697Y-74997275D01*
X149646541Y-74997275D01*
X149646541Y-75046124D01*
X148654304Y-75046124D01*
X148654304Y-74997275D01*
X148741468Y-74997275D01*
X148833978Y-74985075D01*
X148901891Y-74951642D01*
X148951517Y-74897593D01*
X148974421Y-74823203D01*
X148985711Y-74635796D01*
X148985711Y-73141029D01*
X148978259Y-72985672D01*
X148961045Y-72900145D01*
X149313607Y-72900145D01*
X149313607Y-73868720D01*
X149474044Y-73894518D01*
X149593723Y-73903067D01*
X149706193Y-73887852D01*
X149807143Y-73842709D01*
X149900095Y-73764917D01*
X149970575Y-73665917D01*
X150013849Y-73548266D01*
X150029086Y-73406796D01*
X150013510Y-73260160D01*
X149967567Y-73126069D01*
X149919888Y-73045385D01*
X149862037Y-72981343D01*
X149793392Y-72931896D01*
X149674620Y-72883986D01*
X149537242Y-72867477D01*
X149444778Y-72874654D01*
X149313607Y-72900145D01*
X148961045Y-72900145D01*
X148960963Y-72899740D01*
X148939610Y-72857860D01*
X148890058Y-72815620D01*
X148825573Y-72789151D01*
X148741468Y-72779550D01*
X148654304Y-72779550D01*
X148654304Y-72730701D01*
X149503048Y-72730701D01*
X149711233Y-72739191D01*
G37*
G36*
X152545398Y-74401322D02*
G01*
X152601727Y-74413382D01*
X152403737Y-75046124D01*
X150610537Y-75046124D01*
X150610537Y-74997275D01*
X150697548Y-74997275D01*
X150790100Y-74985119D01*
X150858009Y-74951824D01*
X150907597Y-74898051D01*
X150931705Y-74822446D01*
X150943470Y-74635796D01*
X150943470Y-73141029D01*
X150935830Y-72987240D01*
X150917977Y-72900916D01*
X150895690Y-72857860D01*
X150846226Y-72815633D01*
X150781753Y-72789158D01*
X150697548Y-72779550D01*
X150610537Y-72779550D01*
X150610537Y-72730701D01*
X151659102Y-72730701D01*
X151659102Y-72779550D01*
X151488926Y-72789456D01*
X151400357Y-72814965D01*
X151335963Y-72858789D01*
X151298691Y-72908999D01*
X151280468Y-72985121D01*
X151271366Y-73180108D01*
X151271366Y-74634880D01*
X151279843Y-74765244D01*
X151298691Y-74829511D01*
X151324284Y-74860324D01*
X151361889Y-74882481D01*
X151426211Y-74893528D01*
X151628266Y-74899578D01*
X151797404Y-74899578D01*
X152043872Y-74887391D01*
X152171401Y-74859888D01*
X152272359Y-74806307D01*
X152367711Y-74719449D01*
X152450020Y-74601008D01*
X152545398Y-74401322D01*
G37*
G36*
X153408491Y-72857708D02*
G01*
X153408491Y-73766291D01*
X153917432Y-73766291D01*
X154049900Y-73757626D01*
X154133073Y-73736265D01*
X154182130Y-73707215D01*
X154229033Y-73648897D01*
X154263205Y-73561372D01*
X154281201Y-73434121D01*
X154344399Y-73434121D01*
X154344399Y-74235237D01*
X154281201Y-74235237D01*
X154253851Y-74082915D01*
X154233421Y-74020304D01*
X154193754Y-73968316D01*
X154132519Y-73927186D01*
X154052599Y-73903236D01*
X153917432Y-73893297D01*
X153408491Y-73893297D01*
X153408491Y-74658846D01*
X153413192Y-74798318D01*
X153422077Y-74846302D01*
X153440665Y-74876004D01*
X153470010Y-74899425D01*
X153512192Y-74912980D01*
X153599764Y-74919117D01*
X153992537Y-74919117D01*
X154175513Y-74910818D01*
X154277690Y-74891487D01*
X154362499Y-74851964D01*
X154448508Y-74782799D01*
X154548861Y-74658670D01*
X154665426Y-74459941D01*
X154733814Y-74459941D01*
X154533993Y-75046124D01*
X152749341Y-75046124D01*
X152749341Y-74997275D01*
X152831315Y-74997275D01*
X152910895Y-74987039D01*
X152986714Y-74956059D01*
X153032677Y-74920233D01*
X153060903Y-74870269D01*
X153074266Y-74798182D01*
X153080595Y-74635796D01*
X153080595Y-73141029D01*
X153073326Y-72980878D01*
X153056576Y-72893658D01*
X153036173Y-72852212D01*
X152989932Y-72814008D01*
X152923967Y-72788979D01*
X152831315Y-72779550D01*
X152749341Y-72779550D01*
X152749341Y-72730701D01*
X154533993Y-72730701D01*
X154559638Y-73238726D01*
X154492929Y-73238726D01*
X154450848Y-73071311D01*
X154413550Y-72987614D01*
X154360637Y-72928239D01*
X154284560Y-72883353D01*
X154203252Y-72865616D01*
X154043828Y-72857708D01*
X153408491Y-72857708D01*
G37*
G36*
X157681062Y-72730701D02*
G01*
X157706707Y-73275058D01*
X157641830Y-73275058D01*
X157617146Y-73142605D01*
X157590539Y-73070199D01*
X157527862Y-72983103D01*
X157449642Y-72924264D01*
X157353315Y-72890143D01*
X157218374Y-72877247D01*
X156892157Y-72877247D01*
X156892157Y-74635796D01*
X156899578Y-74791301D01*
X156916854Y-74877949D01*
X156938258Y-74920644D01*
X156986652Y-74961669D01*
X157051439Y-74987717D01*
X157137927Y-74997275D01*
X157218222Y-74997275D01*
X157218222Y-75046124D01*
X156236365Y-75046124D01*
X156236365Y-74997275D01*
X156318339Y-74997275D01*
X156411228Y-74985488D01*
X156478460Y-74953471D01*
X156526709Y-74902326D01*
X156552002Y-74824720D01*
X156564261Y-74635796D01*
X156564261Y-72877247D01*
X156285825Y-72877247D01*
X156135456Y-72884497D01*
X156055320Y-72901061D01*
X155974497Y-72947187D01*
X155903279Y-73025777D01*
X155854606Y-73128667D01*
X155828175Y-73275058D01*
X155763298Y-73275058D01*
X155790622Y-72730701D01*
X157681062Y-72730701D01*
G37*
G36*
X158493627Y-72857708D02*
G01*
X158493627Y-73766291D01*
X159002568Y-73766291D01*
X159135036Y-73757626D01*
X159218209Y-73736265D01*
X159267266Y-73707215D01*
X159314169Y-73648897D01*
X159348341Y-73561372D01*
X159366337Y-73434121D01*
X159429535Y-73434121D01*
X159429535Y-74235237D01*
X159366337Y-74235237D01*
X159338987Y-74082915D01*
X159318557Y-74020304D01*
X159278890Y-73968316D01*
X159217655Y-73927186D01*
X159137735Y-73903236D01*
X159002568Y-73893297D01*
X158493627Y-73893297D01*
X158493627Y-74658846D01*
X158498328Y-74798318D01*
X158507213Y-74846302D01*
X158525801Y-74876004D01*
X158555146Y-74899425D01*
X158597328Y-74912980D01*
X158684900Y-74919117D01*
X159077673Y-74919117D01*
X159260649Y-74910818D01*
X159362826Y-74891487D01*
X159447635Y-74851964D01*
X159533644Y-74782799D01*
X159633997Y-74658670D01*
X159750562Y-74459941D01*
X159818950Y-74459941D01*
X159619129Y-75046124D01*
X157834477Y-75046124D01*
X157834477Y-74997275D01*
X157916451Y-74997275D01*
X157996031Y-74987039D01*
X158071850Y-74956059D01*
X158117813Y-74920233D01*
X158146039Y-74870269D01*
X158159402Y-74798182D01*
X158165731Y-74635796D01*
X158165731Y-73141029D01*
X158158462Y-72980878D01*
X158141713Y-72893658D01*
X158121310Y-72852212D01*
X158075068Y-72814008D01*
X158009103Y-72788979D01*
X157916451Y-72779550D01*
X157834477Y-72779550D01*
X157834477Y-72730701D01*
X159619129Y-72730701D01*
X159644774Y-73238726D01*
X159578065Y-73238726D01*
X159535985Y-73071311D01*
X159498687Y-72987614D01*
X159445773Y-72928239D01*
X159369696Y-72883353D01*
X159288388Y-72865616D01*
X159128964Y-72857708D01*
X158493627Y-72857708D01*
G37*
G36*
X161327608Y-73763543D02*
G01*
X161824489Y-74504820D01*
X162024214Y-74788516D01*
X162131014Y-74904921D01*
X162201725Y-74951334D01*
X162285317Y-74982349D01*
X162384721Y-74997275D01*
X162384721Y-75046124D01*
X161390805Y-75046124D01*
X161390805Y-74997275D01*
X161483268Y-74990110D01*
X161537656Y-74976056D01*
X161570255Y-74956039D01*
X161596580Y-74927513D01*
X161614126Y-74893905D01*
X161619630Y-74861415D01*
X161604213Y-74780204D01*
X161510332Y-74624805D01*
X161116185Y-74033890D01*
X160632431Y-74652435D01*
X160540230Y-74789516D01*
X160524964Y-74861110D01*
X160536356Y-74912587D01*
X160571065Y-74954838D01*
X160629039Y-74981668D01*
X160746920Y-74997275D01*
X160746920Y-75046124D01*
X159925501Y-75046124D01*
X159925501Y-74997275D01*
X160008807Y-74982973D01*
X160075710Y-74960028D01*
X160178259Y-74906593D01*
X160277211Y-74836227D01*
X160372680Y-74745067D01*
X160495808Y-74597022D01*
X161033753Y-73910089D01*
X160586330Y-73232162D01*
X160453719Y-73050925D01*
X160350331Y-72936334D01*
X160270341Y-72870683D01*
X160180516Y-72822790D01*
X160081612Y-72792338D01*
X159971602Y-72779550D01*
X159971602Y-72730701D01*
X161042301Y-72730701D01*
X161042301Y-72779550D01*
X160918061Y-72796106D01*
X160855303Y-72825498D01*
X160816632Y-72869939D01*
X160804928Y-72915563D01*
X160821143Y-72985547D01*
X160886902Y-73106225D01*
X161245023Y-73640353D01*
X161653824Y-73118284D01*
X161741599Y-72987156D01*
X161757933Y-72914341D01*
X161752739Y-72879051D01*
X161737478Y-72848701D01*
X161708134Y-72816784D01*
X161672601Y-72796494D01*
X161622949Y-72785901D01*
X161510332Y-72779550D01*
X161510332Y-72730701D01*
X162331751Y-72730701D01*
X162331751Y-72779550D01*
X162239389Y-72790728D01*
X162172993Y-72810691D01*
X162084679Y-72857361D01*
X162003702Y-72918158D01*
X161921783Y-73002085D01*
X161786937Y-73167591D01*
X161327608Y-73763543D01*
G37*
G36*
X164449031Y-72730701D02*
G01*
X164474677Y-73275058D01*
X164409800Y-73275058D01*
X164385116Y-73142605D01*
X164358509Y-73070199D01*
X164295831Y-72983103D01*
X164217611Y-72924264D01*
X164121284Y-72890143D01*
X163986344Y-72877247D01*
X163660127Y-72877247D01*
X163660127Y-74635796D01*
X163667548Y-74791301D01*
X163684824Y-74877949D01*
X163706228Y-74920644D01*
X163754621Y-74961669D01*
X163819408Y-74987717D01*
X163905896Y-74997275D01*
X163986191Y-74997275D01*
X163986191Y-75046124D01*
X163004335Y-75046124D01*
X163004335Y-74997275D01*
X163086309Y-74997275D01*
X163179198Y-74985488D01*
X163246429Y-74953471D01*
X163294678Y-74902326D01*
X163319971Y-74824720D01*
X163332231Y-74635796D01*
X163332231Y-72877247D01*
X163053794Y-72877247D01*
X162903425Y-72884497D01*
X162823290Y-72901061D01*
X162742466Y-72947187D01*
X162671249Y-73025777D01*
X162622575Y-73128667D01*
X162596144Y-73275058D01*
X162531267Y-73275058D01*
X162558591Y-72730701D01*
X164449031Y-72730701D01*
G37*
G36*
X146330649Y-76124390D02*
G01*
X146330649Y-76630852D01*
X146290202Y-76630852D01*
X146272243Y-76534787D01*
X146248343Y-76458739D01*
X146219665Y-76399310D01*
X146181347Y-76346213D01*
X146133446Y-76300782D01*
X146074878Y-76262534D01*
X146010723Y-76234149D01*
X145946156Y-76217465D01*
X145880363Y-76211927D01*
X145807312Y-76220044D01*
X145745449Y-76243306D01*
X145692296Y-76281585D01*
X145650064Y-76331673D01*
X145626011Y-76383929D01*
X145618046Y-76440050D01*
X145629583Y-76504458D01*
X145665038Y-76563930D01*
X145717020Y-76613772D01*
X145817257Y-76684655D01*
X145987537Y-76783260D01*
X146177296Y-76891075D01*
X146271054Y-76954132D01*
X146338770Y-77018911D01*
X146387997Y-77093155D01*
X146418834Y-77175351D01*
X146429030Y-77260901D01*
X146420897Y-77341169D01*
X146396928Y-77414773D01*
X146356698Y-77483384D01*
X146298409Y-77548131D01*
X146229835Y-77600057D01*
X146152198Y-77637490D01*
X146063784Y-77660685D01*
X145962331Y-77668787D01*
X145840991Y-77658528D01*
X145700502Y-77617105D01*
X145602762Y-77587479D01*
X145565485Y-77581250D01*
X145540627Y-77585698D01*
X145522303Y-77598347D01*
X145509873Y-77620607D01*
X145498856Y-77668787D01*
X145458409Y-77668787D01*
X145458409Y-77162325D01*
X145498856Y-77162325D01*
X145535073Y-77313589D01*
X145575352Y-77405981D01*
X145611921Y-77455514D01*
X145660333Y-77500231D01*
X145722387Y-77540315D01*
X145790084Y-77569869D01*
X145862059Y-77587697D01*
X145939372Y-77593755D01*
X146027761Y-77584917D01*
X146098453Y-77560311D01*
X146155283Y-77521166D01*
X146200024Y-77468655D01*
X146225847Y-77412061D01*
X146234515Y-77349415D01*
X146227260Y-77295067D01*
X146204424Y-77238235D01*
X146167393Y-77185497D01*
X146110928Y-77133602D01*
X146049621Y-77093269D01*
X145878116Y-76994383D01*
X145703142Y-76891021D01*
X145607592Y-76824586D01*
X145535763Y-76756302D01*
X145485764Y-76684293D01*
X145454761Y-76604323D01*
X145444243Y-76515570D01*
X145451903Y-76438286D01*
X145474445Y-76367563D01*
X145512174Y-76301816D01*
X145566657Y-76239966D01*
X145631109Y-76189977D01*
X145703409Y-76154153D01*
X145785069Y-76132072D01*
X145878116Y-76124390D01*
X145955745Y-76130575D01*
X146038784Y-76149886D01*
X146128416Y-76183888D01*
X146185965Y-76206582D01*
X146214780Y-76211927D01*
X146240980Y-76207434D01*
X146261186Y-76194537D01*
X146275974Y-76171802D01*
X146290202Y-76124390D01*
X146330649Y-76124390D01*
G37*
G36*
X147885304Y-77354397D02*
G01*
X147951252Y-77492812D01*
X147998437Y-77554676D01*
X148034849Y-77579841D01*
X148081196Y-77597320D01*
X148140000Y-77606260D01*
X148140000Y-77637524D01*
X147555283Y-77637524D01*
X147555283Y-77606260D01*
X147635599Y-77594789D01*
X147674962Y-77575974D01*
X147698520Y-77546926D01*
X147706127Y-77513057D01*
X147697452Y-77457695D01*
X147662359Y-77356937D01*
X147572770Y-77143567D01*
X146998897Y-77143567D01*
X146898367Y-77375207D01*
X146868725Y-77460468D01*
X146861242Y-77509540D01*
X146868938Y-77541975D01*
X146893482Y-77571578D01*
X146936009Y-77591342D01*
X147032798Y-77606260D01*
X147032798Y-77637524D01*
X146566099Y-77637524D01*
X146566099Y-77606260D01*
X146649551Y-77584133D01*
X146686364Y-77562199D01*
X146738397Y-77491668D01*
X146809853Y-77341892D01*
X146929576Y-77062283D01*
X147032798Y-77062283D01*
X147542093Y-77062283D01*
X147290719Y-76463302D01*
X147032798Y-77062283D01*
X146929576Y-77062283D01*
X147331165Y-76124390D01*
X147369463Y-76124390D01*
X147885304Y-77354397D01*
G37*
G36*
X149080823Y-77637524D02*
G01*
X148508123Y-76390615D01*
X148508123Y-77374914D01*
X148512872Y-77474437D01*
X148523929Y-77529892D01*
X148537627Y-77557216D01*
X148567984Y-77583377D01*
X148609386Y-77600088D01*
X148665513Y-77606260D01*
X148717976Y-77606260D01*
X148717976Y-77637524D01*
X148202038Y-77637524D01*
X148202038Y-77606260D01*
X148254501Y-77606260D01*
X148313950Y-77598717D01*
X148356978Y-77578226D01*
X148387858Y-77545493D01*
X148404045Y-77495825D01*
X148411891Y-77374914D01*
X148411891Y-76418263D01*
X148405344Y-76320719D01*
X148390007Y-76266344D01*
X148369153Y-76236077D01*
X148333733Y-76209680D01*
X148286052Y-76193655D01*
X148202038Y-76186916D01*
X148202038Y-76155653D01*
X148621745Y-76155653D01*
X149159567Y-77309457D01*
X149688500Y-76155653D01*
X150108207Y-76155653D01*
X150108207Y-76186916D01*
X150056818Y-76186916D01*
X149996639Y-76194490D01*
X149953297Y-76215008D01*
X149922387Y-76247684D01*
X149906199Y-76297352D01*
X149898353Y-76418263D01*
X149898353Y-77374914D01*
X149903262Y-77474328D01*
X149914704Y-77529800D01*
X149928932Y-77557216D01*
X149959289Y-77583377D01*
X150000691Y-77600088D01*
X150056818Y-77606260D01*
X150108207Y-77606260D01*
X150108207Y-77637524D01*
X149478646Y-77637524D01*
X149478646Y-77606260D01*
X149531110Y-77606260D01*
X149591249Y-77598659D01*
X149634185Y-77578131D01*
X149664466Y-77545493D01*
X149680654Y-77495825D01*
X149688500Y-77374914D01*
X149688500Y-76390615D01*
X149116874Y-77637524D01*
X149080823Y-77637524D01*
G37*
G36*
X150869930Y-76161087D02*
G01*
X150972628Y-76175623D01*
X151050398Y-76196979D01*
X151122759Y-76230748D01*
X151186927Y-76276903D01*
X151243838Y-76336393D01*
X151287340Y-76405311D01*
X151313561Y-76482075D01*
X151322582Y-76568912D01*
X151314656Y-76658521D01*
X151291890Y-76736633D01*
X151254867Y-76805412D01*
X151202903Y-76866400D01*
X151140091Y-76914606D01*
X151064606Y-76950234D01*
X150973894Y-76972899D01*
X150864675Y-76980999D01*
X150748709Y-76972988D01*
X150615450Y-76948661D01*
X150615450Y-77374914D01*
X150620380Y-77474231D01*
X150631834Y-77529245D01*
X150646029Y-77556142D01*
X150677039Y-77583131D01*
X150717872Y-77600087D01*
X150771668Y-77606260D01*
X150828528Y-77606260D01*
X150828528Y-77637524D01*
X150193496Y-77637524D01*
X150193496Y-77606260D01*
X150249281Y-77606260D01*
X150308488Y-77598453D01*
X150351952Y-77577056D01*
X150383712Y-77542464D01*
X150398371Y-77494854D01*
X150405597Y-77374914D01*
X150405597Y-76418263D01*
X150400827Y-76318835D01*
X150389810Y-76264097D01*
X150615450Y-76264097D01*
X150615450Y-76883985D01*
X150718130Y-76900496D01*
X150794724Y-76905967D01*
X150866705Y-76896230D01*
X150931313Y-76867338D01*
X150990802Y-76817551D01*
X151035910Y-76754191D01*
X151063605Y-76678895D01*
X151073357Y-76588354D01*
X151063388Y-76494507D01*
X151033985Y-76408689D01*
X151003470Y-76357051D01*
X150966445Y-76316064D01*
X150922512Y-76284418D01*
X150846498Y-76253755D01*
X150758576Y-76243190D01*
X150699399Y-76247783D01*
X150615450Y-76264097D01*
X150389810Y-76264097D01*
X150389758Y-76263838D01*
X150376092Y-76237035D01*
X150344379Y-76210001D01*
X150303108Y-76193061D01*
X150249281Y-76186916D01*
X150193496Y-76186916D01*
X150193496Y-76155653D01*
X150736692Y-76155653D01*
X150869930Y-76161087D01*
G37*
G36*
X152683796Y-77224851D02*
G01*
X152719846Y-77232569D01*
X152593133Y-77637524D01*
X151445485Y-77637524D01*
X151445485Y-77606260D01*
X151501172Y-77606260D01*
X151560406Y-77598481D01*
X151603867Y-77577172D01*
X151635604Y-77542757D01*
X151651033Y-77494370D01*
X151658562Y-77374914D01*
X151658562Y-76418263D01*
X151653672Y-76319838D01*
X151642247Y-76264591D01*
X151627983Y-76237035D01*
X151596326Y-76210010D01*
X151555063Y-76193066D01*
X151501172Y-76186916D01*
X151445485Y-76186916D01*
X151445485Y-76155653D01*
X152116567Y-76155653D01*
X152116567Y-76186916D01*
X152007654Y-76193256D01*
X151950970Y-76209582D01*
X151909758Y-76237629D01*
X151885904Y-76269764D01*
X151874241Y-76318482D01*
X151868416Y-76443274D01*
X151868416Y-77374327D01*
X151873841Y-77457761D01*
X151885904Y-77498891D01*
X151902283Y-77518612D01*
X151926350Y-77532792D01*
X151967517Y-77539862D01*
X152096832Y-77543734D01*
X152205080Y-77543734D01*
X152362820Y-77535934D01*
X152444438Y-77518333D01*
X152509052Y-77484041D01*
X152570077Y-77428452D01*
X152622754Y-77352650D01*
X152683796Y-77224851D01*
G37*
G36*
X153236176Y-76236937D02*
G01*
X153236176Y-76818431D01*
X153561898Y-76818431D01*
X153646678Y-76812885D01*
X153699908Y-76799214D01*
X153731305Y-76780622D01*
X153761322Y-76743299D01*
X153783193Y-76687282D01*
X153794710Y-76605842D01*
X153835157Y-76605842D01*
X153835157Y-77118556D01*
X153794710Y-77118556D01*
X153777206Y-77021070D01*
X153764131Y-76980999D01*
X153738744Y-76947727D01*
X153699553Y-76921403D01*
X153648405Y-76906076D01*
X153561898Y-76899715D01*
X153236176Y-76899715D01*
X153236176Y-77389666D01*
X153239184Y-77478928D01*
X153244871Y-77509638D01*
X153256767Y-77528647D01*
X153275548Y-77543637D01*
X153302544Y-77552311D01*
X153358590Y-77556239D01*
X153609965Y-77556239D01*
X153727070Y-77550928D01*
X153792463Y-77538556D01*
X153846741Y-77513261D01*
X153901786Y-77468996D01*
X153966012Y-77389553D01*
X154040614Y-77262366D01*
X154084382Y-77262366D01*
X153956497Y-77637524D01*
X152814320Y-77637524D01*
X152814320Y-77606260D01*
X152866783Y-77606260D01*
X152917715Y-77599709D01*
X152966239Y-77579882D01*
X152995655Y-77556954D01*
X153013719Y-77524976D01*
X153022272Y-77478841D01*
X153026322Y-77374914D01*
X153026322Y-76418263D01*
X153021670Y-76315766D01*
X153010950Y-76259946D01*
X152997892Y-76233420D01*
X152968298Y-76208970D01*
X152926081Y-76192951D01*
X152866783Y-76186916D01*
X152814320Y-76186916D01*
X152814320Y-76155653D01*
X153956497Y-76155653D01*
X153972910Y-76480789D01*
X153930216Y-76480789D01*
X153903284Y-76373644D01*
X153879414Y-76320078D01*
X153845549Y-76282077D01*
X153796860Y-76253350D01*
X153744823Y-76241998D01*
X153642791Y-76236937D01*
X153236176Y-76236937D01*
G37*
G36*
X155970621Y-76155653D02*
G01*
X155987034Y-76504041D01*
X155945513Y-76504041D01*
X155929715Y-76419271D01*
X155912687Y-76372932D01*
X155872573Y-76317190D01*
X155822512Y-76279533D01*
X155760863Y-76257696D01*
X155674501Y-76249443D01*
X155465722Y-76249443D01*
X155465722Y-77374914D01*
X155470472Y-77474437D01*
X155481528Y-77529892D01*
X155495227Y-77557216D01*
X155526199Y-77583473D01*
X155567662Y-77600143D01*
X155623015Y-77606260D01*
X155674403Y-77606260D01*
X155674403Y-77637524D01*
X155046015Y-77637524D01*
X155046015Y-77606260D01*
X155098479Y-77606260D01*
X155157928Y-77598717D01*
X155200956Y-77578226D01*
X155231835Y-77545493D01*
X155248023Y-77495825D01*
X155255869Y-77374914D01*
X155255869Y-76249443D01*
X155077669Y-76249443D01*
X154981433Y-76254083D01*
X154930147Y-76264683D01*
X154878419Y-76294204D01*
X154832840Y-76344502D01*
X154801689Y-76410352D01*
X154784773Y-76504041D01*
X154743252Y-76504041D01*
X154760740Y-76155653D01*
X155970621Y-76155653D01*
G37*
G36*
X156490663Y-76236937D02*
G01*
X156490663Y-76818431D01*
X156816385Y-76818431D01*
X156901165Y-76812885D01*
X156954395Y-76799214D01*
X156985792Y-76780622D01*
X157015810Y-76743299D01*
X157037680Y-76687282D01*
X157049197Y-76605842D01*
X157089644Y-76605842D01*
X157089644Y-77118556D01*
X157049197Y-77118556D01*
X157031693Y-77021070D01*
X157018618Y-76980999D01*
X156993231Y-76947727D01*
X156954040Y-76921403D01*
X156902892Y-76906076D01*
X156816385Y-76899715D01*
X156490663Y-76899715D01*
X156490663Y-77389666D01*
X156493671Y-77478928D01*
X156499358Y-77509638D01*
X156511254Y-77528647D01*
X156530035Y-77543637D01*
X156557031Y-77552311D01*
X156613077Y-77556239D01*
X156864452Y-77556239D01*
X156981557Y-77550928D01*
X157046950Y-77538556D01*
X157101228Y-77513261D01*
X157156274Y-77468996D01*
X157220499Y-77389553D01*
X157295101Y-77262366D01*
X157338869Y-77262366D01*
X157210984Y-77637524D01*
X156068807Y-77637524D01*
X156068807Y-77606260D01*
X156121270Y-77606260D01*
X156172202Y-77599709D01*
X156220726Y-77579882D01*
X156250142Y-77556954D01*
X156268207Y-77524976D01*
X156276759Y-77478841D01*
X156280809Y-77374914D01*
X156280809Y-76418263D01*
X156276157Y-76315766D01*
X156265438Y-76259946D01*
X156252380Y-76233420D01*
X156222785Y-76208970D01*
X156180568Y-76192951D01*
X156121270Y-76186916D01*
X156068807Y-76186916D01*
X156068807Y-76155653D01*
X157210984Y-76155653D01*
X157227397Y-76480789D01*
X157184703Y-76480789D01*
X157157772Y-76373644D01*
X157133901Y-76320078D01*
X157100036Y-76282077D01*
X157051347Y-76253350D01*
X156999310Y-76241998D01*
X156897278Y-76236937D01*
X156490663Y-76236937D01*
G37*
G36*
X158304410Y-76816672D02*
G01*
X158622414Y-77291089D01*
X158750239Y-77472655D01*
X158818590Y-77547154D01*
X158863846Y-77576858D01*
X158917344Y-77596708D01*
X158980963Y-77606260D01*
X158980963Y-77637524D01*
X158344857Y-77637524D01*
X158344857Y-77606260D01*
X158404033Y-77601675D01*
X158438842Y-77592681D01*
X158459705Y-77579870D01*
X158476553Y-77561613D01*
X158487782Y-77540104D01*
X158491305Y-77519310D01*
X158481437Y-77467335D01*
X158421354Y-77367879D01*
X158169100Y-76989694D01*
X157859498Y-77385563D01*
X157800488Y-77473295D01*
X157790719Y-77519115D01*
X157798010Y-77552060D01*
X157820223Y-77579101D01*
X157857327Y-77596272D01*
X157932770Y-77606260D01*
X157932770Y-77637524D01*
X157407062Y-77637524D01*
X157407062Y-77606260D01*
X157460378Y-77597107D01*
X157503196Y-77582422D01*
X157568827Y-77548224D01*
X157632156Y-77503190D01*
X157693257Y-77444848D01*
X157772059Y-77350099D01*
X158116343Y-76910461D01*
X157829993Y-76476588D01*
X157745122Y-76360597D01*
X157678953Y-76287258D01*
X157627760Y-76245242D01*
X157570271Y-76214590D01*
X157506973Y-76195101D01*
X157436567Y-76186916D01*
X157436567Y-76155653D01*
X158121814Y-76155653D01*
X158121814Y-76186916D01*
X158042301Y-76197512D01*
X158002135Y-76216323D01*
X157977386Y-76244765D01*
X157969895Y-76273965D01*
X157980273Y-76318755D01*
X158022359Y-76395988D01*
X158251556Y-76737831D01*
X158513189Y-76403706D01*
X158569365Y-76319784D01*
X158579819Y-76273183D01*
X158576494Y-76250597D01*
X158566727Y-76231173D01*
X158547947Y-76210746D01*
X158525206Y-76197761D01*
X158493429Y-76190981D01*
X158421354Y-76186916D01*
X158421354Y-76155653D01*
X158947062Y-76155653D01*
X158947062Y-76186916D01*
X158887950Y-76194070D01*
X158845457Y-76206847D01*
X158788936Y-76236715D01*
X158737111Y-76275625D01*
X158684683Y-76329339D01*
X158598381Y-76435263D01*
X158304410Y-76816672D01*
G37*
G36*
X160302121Y-76155653D02*
G01*
X160318534Y-76504041D01*
X160277013Y-76504041D01*
X160261215Y-76419271D01*
X160244187Y-76372932D01*
X160204074Y-76317190D01*
X160154013Y-76279533D01*
X160092363Y-76257696D01*
X160006001Y-76249443D01*
X159797223Y-76249443D01*
X159797223Y-77374914D01*
X159801972Y-77474437D01*
X159813029Y-77529892D01*
X159826727Y-77557216D01*
X159857699Y-77583473D01*
X159899163Y-77600143D01*
X159954515Y-77606260D01*
X160005904Y-77606260D01*
X160005904Y-77637524D01*
X159377516Y-77637524D01*
X159377516Y-77606260D01*
X159429979Y-77606260D01*
X159489428Y-77598717D01*
X159532456Y-77578226D01*
X159563336Y-77545493D01*
X159579523Y-77495825D01*
X159587369Y-77374914D01*
X159587369Y-76249443D01*
X159409170Y-76249443D01*
X159312934Y-76254083D01*
X159261647Y-76264683D01*
X159209920Y-76294204D01*
X159164341Y-76344502D01*
X159133189Y-76410352D01*
X159116274Y-76504041D01*
X159074752Y-76504041D01*
X159092240Y-76155653D01*
X160302121Y-76155653D01*
G37*
D12*
%TO.C,REF\u002A\u002A*%
X120904200Y-71983600D03*
X120904200Y-73583600D03*
X122504200Y-71983600D03*
X122504200Y-73583600D03*
D13*
X118266700Y-70183600D03*
X118266700Y-70583600D03*
X118266700Y-70983600D03*
X118266700Y-71383600D03*
X118266700Y-71783600D03*
X118266700Y-72183600D03*
X118266700Y-72583600D03*
X118266700Y-72983600D03*
X118266700Y-73383600D03*
X118266700Y-73783600D03*
X118266700Y-74183600D03*
X118266700Y-74583600D03*
X118266700Y-74983600D03*
X118266700Y-75383600D03*
D14*
X119104200Y-76221100D03*
X119504200Y-76221100D03*
X119904200Y-76221100D03*
X120304200Y-76221100D03*
X120704200Y-76221100D03*
X121104200Y-76221100D03*
X121504200Y-76221100D03*
X121904200Y-76221100D03*
X122304200Y-76221100D03*
X122704200Y-76221100D03*
X123104200Y-76221100D03*
X123504200Y-76221100D03*
X123904200Y-76221100D03*
X124304200Y-76221100D03*
D13*
X125141700Y-75383600D03*
X125141700Y-74983600D03*
X125141700Y-74583600D03*
X125141700Y-74183600D03*
X125141700Y-73783600D03*
X125141700Y-73383600D03*
X125141700Y-72983600D03*
X125141700Y-72583600D03*
X125141700Y-72183600D03*
X125141700Y-71783600D03*
X125141700Y-71383600D03*
X125141700Y-70983600D03*
X125141700Y-70583600D03*
X125141700Y-70183600D03*
D14*
X124304200Y-69346100D03*
X123904200Y-69346100D03*
X123504200Y-69346100D03*
X123104200Y-69346100D03*
X122704200Y-69346100D03*
X122304200Y-69346100D03*
X121904200Y-69346100D03*
X121504200Y-69346100D03*
X121104200Y-69346100D03*
X120704200Y-69346100D03*
X120304200Y-69346100D03*
X119904200Y-69346100D03*
X119504200Y-69346100D03*
X119104200Y-69346100D03*
%TD*%
M02*
