%TF.GenerationSoftware,KiCad,Pcbnew,9.0.7*%
%TF.CreationDate,2026-04-03T10:46:12-05:00*%
%TF.ProjectId,SaxCard,53617843-6172-4642-9e6b-696361645f70,rev?*%
%TF.SameCoordinates,Original*%
%TF.FileFunction,Legend,Top*%
%TF.FilePolarity,Positive*%
%FSLAX46Y46*%
G04 Gerber Fmt 4.6, Leading zero omitted, Abs format (unit mm)*
G04 Created by KiCad (PCBNEW 9.0.7) date 2026-04-03 10:46:12*
%MOMM*%
%LPD*%
G01*
G04 APERTURE LIST*
%ADD10C,0.100000*%
%ADD11C,0.000000*%
%ADD12C,0.120000*%
G04 APERTURE END LIST*
D10*
X147619807Y-62376103D02*
X147762664Y-62423722D01*
X147762664Y-62423722D02*
X148000759Y-62423722D01*
X148000759Y-62423722D02*
X148095997Y-62376103D01*
X148095997Y-62376103D02*
X148143616Y-62328483D01*
X148143616Y-62328483D02*
X148191235Y-62233245D01*
X148191235Y-62233245D02*
X148191235Y-62138007D01*
X148191235Y-62138007D02*
X148143616Y-62042769D01*
X148143616Y-62042769D02*
X148095997Y-61995150D01*
X148095997Y-61995150D02*
X148000759Y-61947531D01*
X148000759Y-61947531D02*
X147810283Y-61899912D01*
X147810283Y-61899912D02*
X147715045Y-61852293D01*
X147715045Y-61852293D02*
X147667426Y-61804674D01*
X147667426Y-61804674D02*
X147619807Y-61709436D01*
X147619807Y-61709436D02*
X147619807Y-61614198D01*
X147619807Y-61614198D02*
X147667426Y-61518960D01*
X147667426Y-61518960D02*
X147715045Y-61471341D01*
X147715045Y-61471341D02*
X147810283Y-61423722D01*
X147810283Y-61423722D02*
X148048378Y-61423722D01*
X148048378Y-61423722D02*
X148191235Y-61471341D01*
X148572188Y-62138007D02*
X149048378Y-62138007D01*
X148476950Y-62423722D02*
X148810283Y-61423722D01*
X148810283Y-61423722D02*
X149143616Y-62423722D01*
X149476950Y-62423722D02*
X149476950Y-61423722D01*
X149476950Y-61423722D02*
X149810283Y-62138007D01*
X149810283Y-62138007D02*
X150143616Y-61423722D01*
X150143616Y-61423722D02*
X150143616Y-62423722D01*
X150619807Y-62423722D02*
X150619807Y-61423722D01*
X150619807Y-61423722D02*
X151000759Y-61423722D01*
X151000759Y-61423722D02*
X151095997Y-61471341D01*
X151095997Y-61471341D02*
X151143616Y-61518960D01*
X151143616Y-61518960D02*
X151191235Y-61614198D01*
X151191235Y-61614198D02*
X151191235Y-61757055D01*
X151191235Y-61757055D02*
X151143616Y-61852293D01*
X151143616Y-61852293D02*
X151095997Y-61899912D01*
X151095997Y-61899912D02*
X151000759Y-61947531D01*
X151000759Y-61947531D02*
X150619807Y-61947531D01*
X152095997Y-62423722D02*
X151619807Y-62423722D01*
X151619807Y-62423722D02*
X151619807Y-61423722D01*
X152429331Y-61899912D02*
X152762664Y-61899912D01*
X152905521Y-62423722D02*
X152429331Y-62423722D01*
X152429331Y-62423722D02*
X152429331Y-61423722D01*
X152429331Y-61423722D02*
X152905521Y-61423722D01*
X154762664Y-62518960D02*
X154667426Y-62471341D01*
X154667426Y-62471341D02*
X154572188Y-62376103D01*
X154572188Y-62376103D02*
X154429331Y-62233245D01*
X154429331Y-62233245D02*
X154334093Y-62185626D01*
X154334093Y-62185626D02*
X154238855Y-62185626D01*
X154286474Y-62423722D02*
X154191236Y-62376103D01*
X154191236Y-62376103D02*
X154095998Y-62280864D01*
X154095998Y-62280864D02*
X154048379Y-62090388D01*
X154048379Y-62090388D02*
X154048379Y-61757055D01*
X154048379Y-61757055D02*
X154095998Y-61566579D01*
X154095998Y-61566579D02*
X154191236Y-61471341D01*
X154191236Y-61471341D02*
X154286474Y-61423722D01*
X154286474Y-61423722D02*
X154476950Y-61423722D01*
X154476950Y-61423722D02*
X154572188Y-61471341D01*
X154572188Y-61471341D02*
X154667426Y-61566579D01*
X154667426Y-61566579D02*
X154715045Y-61757055D01*
X154715045Y-61757055D02*
X154715045Y-62090388D01*
X154715045Y-62090388D02*
X154667426Y-62280864D01*
X154667426Y-62280864D02*
X154572188Y-62376103D01*
X154572188Y-62376103D02*
X154476950Y-62423722D01*
X154476950Y-62423722D02*
X154286474Y-62423722D01*
X155715045Y-62423722D02*
X155381712Y-61947531D01*
X155143617Y-62423722D02*
X155143617Y-61423722D01*
X155143617Y-61423722D02*
X155524569Y-61423722D01*
X155524569Y-61423722D02*
X155619807Y-61471341D01*
X155619807Y-61471341D02*
X155667426Y-61518960D01*
X155667426Y-61518960D02*
X155715045Y-61614198D01*
X155715045Y-61614198D02*
X155715045Y-61757055D01*
X155715045Y-61757055D02*
X155667426Y-61852293D01*
X155667426Y-61852293D02*
X155619807Y-61899912D01*
X155619807Y-61899912D02*
X155524569Y-61947531D01*
X155524569Y-61947531D02*
X155143617Y-61947531D01*
X157476950Y-62328483D02*
X157429331Y-62376103D01*
X157429331Y-62376103D02*
X157286474Y-62423722D01*
X157286474Y-62423722D02*
X157191236Y-62423722D01*
X157191236Y-62423722D02*
X157048379Y-62376103D01*
X157048379Y-62376103D02*
X156953141Y-62280864D01*
X156953141Y-62280864D02*
X156905522Y-62185626D01*
X156905522Y-62185626D02*
X156857903Y-61995150D01*
X156857903Y-61995150D02*
X156857903Y-61852293D01*
X156857903Y-61852293D02*
X156905522Y-61661817D01*
X156905522Y-61661817D02*
X156953141Y-61566579D01*
X156953141Y-61566579D02*
X157048379Y-61471341D01*
X157048379Y-61471341D02*
X157191236Y-61423722D01*
X157191236Y-61423722D02*
X157286474Y-61423722D01*
X157286474Y-61423722D02*
X157429331Y-61471341D01*
X157429331Y-61471341D02*
X157476950Y-61518960D01*
X158095998Y-61423722D02*
X158286474Y-61423722D01*
X158286474Y-61423722D02*
X158381712Y-61471341D01*
X158381712Y-61471341D02*
X158476950Y-61566579D01*
X158476950Y-61566579D02*
X158524569Y-61757055D01*
X158524569Y-61757055D02*
X158524569Y-62090388D01*
X158524569Y-62090388D02*
X158476950Y-62280864D01*
X158476950Y-62280864D02*
X158381712Y-62376103D01*
X158381712Y-62376103D02*
X158286474Y-62423722D01*
X158286474Y-62423722D02*
X158095998Y-62423722D01*
X158095998Y-62423722D02*
X158000760Y-62376103D01*
X158000760Y-62376103D02*
X157905522Y-62280864D01*
X157905522Y-62280864D02*
X157857903Y-62090388D01*
X157857903Y-62090388D02*
X157857903Y-61757055D01*
X157857903Y-61757055D02*
X157905522Y-61566579D01*
X157905522Y-61566579D02*
X158000760Y-61471341D01*
X158000760Y-61471341D02*
X158095998Y-61423722D01*
X158953141Y-62423722D02*
X158953141Y-61423722D01*
X158953141Y-61423722D02*
X159191236Y-61423722D01*
X159191236Y-61423722D02*
X159334093Y-61471341D01*
X159334093Y-61471341D02*
X159429331Y-61566579D01*
X159429331Y-61566579D02*
X159476950Y-61661817D01*
X159476950Y-61661817D02*
X159524569Y-61852293D01*
X159524569Y-61852293D02*
X159524569Y-61995150D01*
X159524569Y-61995150D02*
X159476950Y-62185626D01*
X159476950Y-62185626D02*
X159429331Y-62280864D01*
X159429331Y-62280864D02*
X159334093Y-62376103D01*
X159334093Y-62376103D02*
X159191236Y-62423722D01*
X159191236Y-62423722D02*
X158953141Y-62423722D01*
X159953141Y-61899912D02*
X160286474Y-61899912D01*
X160429331Y-62423722D02*
X159953141Y-62423722D01*
X159953141Y-62423722D02*
X159953141Y-61423722D01*
X159953141Y-61423722D02*
X160429331Y-61423722D01*
X83314837Y-63387808D02*
X83457694Y-63435427D01*
X83457694Y-63435427D02*
X83695789Y-63435427D01*
X83695789Y-63435427D02*
X83791027Y-63387808D01*
X83791027Y-63387808D02*
X83838646Y-63340188D01*
X83838646Y-63340188D02*
X83886265Y-63244950D01*
X83886265Y-63244950D02*
X83886265Y-63149712D01*
X83886265Y-63149712D02*
X83838646Y-63054474D01*
X83838646Y-63054474D02*
X83791027Y-63006855D01*
X83791027Y-63006855D02*
X83695789Y-62959236D01*
X83695789Y-62959236D02*
X83505313Y-62911617D01*
X83505313Y-62911617D02*
X83410075Y-62863998D01*
X83410075Y-62863998D02*
X83362456Y-62816379D01*
X83362456Y-62816379D02*
X83314837Y-62721141D01*
X83314837Y-62721141D02*
X83314837Y-62625903D01*
X83314837Y-62625903D02*
X83362456Y-62530665D01*
X83362456Y-62530665D02*
X83410075Y-62483046D01*
X83410075Y-62483046D02*
X83505313Y-62435427D01*
X83505313Y-62435427D02*
X83743408Y-62435427D01*
X83743408Y-62435427D02*
X83886265Y-62483046D01*
X84267218Y-63149712D02*
X84743408Y-63149712D01*
X84171980Y-63435427D02*
X84505313Y-62435427D01*
X84505313Y-62435427D02*
X84838646Y-63435427D01*
X85171980Y-63435427D02*
X85171980Y-62435427D01*
X85171980Y-62435427D02*
X85505313Y-63149712D01*
X85505313Y-63149712D02*
X85838646Y-62435427D01*
X85838646Y-62435427D02*
X85838646Y-63435427D01*
X86314837Y-63435427D02*
X86314837Y-62435427D01*
X86314837Y-62435427D02*
X86695789Y-62435427D01*
X86695789Y-62435427D02*
X86791027Y-62483046D01*
X86791027Y-62483046D02*
X86838646Y-62530665D01*
X86838646Y-62530665D02*
X86886265Y-62625903D01*
X86886265Y-62625903D02*
X86886265Y-62768760D01*
X86886265Y-62768760D02*
X86838646Y-62863998D01*
X86838646Y-62863998D02*
X86791027Y-62911617D01*
X86791027Y-62911617D02*
X86695789Y-62959236D01*
X86695789Y-62959236D02*
X86314837Y-62959236D01*
X87791027Y-63435427D02*
X87314837Y-63435427D01*
X87314837Y-63435427D02*
X87314837Y-62435427D01*
X88124361Y-62911617D02*
X88457694Y-62911617D01*
X88600551Y-63435427D02*
X88124361Y-63435427D01*
X88124361Y-63435427D02*
X88124361Y-62435427D01*
X88124361Y-62435427D02*
X88600551Y-62435427D01*
X90457694Y-63530665D02*
X90362456Y-63483046D01*
X90362456Y-63483046D02*
X90267218Y-63387808D01*
X90267218Y-63387808D02*
X90124361Y-63244950D01*
X90124361Y-63244950D02*
X90029123Y-63197331D01*
X90029123Y-63197331D02*
X89933885Y-63197331D01*
X89981504Y-63435427D02*
X89886266Y-63387808D01*
X89886266Y-63387808D02*
X89791028Y-63292569D01*
X89791028Y-63292569D02*
X89743409Y-63102093D01*
X89743409Y-63102093D02*
X89743409Y-62768760D01*
X89743409Y-62768760D02*
X89791028Y-62578284D01*
X89791028Y-62578284D02*
X89886266Y-62483046D01*
X89886266Y-62483046D02*
X89981504Y-62435427D01*
X89981504Y-62435427D02*
X90171980Y-62435427D01*
X90171980Y-62435427D02*
X90267218Y-62483046D01*
X90267218Y-62483046D02*
X90362456Y-62578284D01*
X90362456Y-62578284D02*
X90410075Y-62768760D01*
X90410075Y-62768760D02*
X90410075Y-63102093D01*
X90410075Y-63102093D02*
X90362456Y-63292569D01*
X90362456Y-63292569D02*
X90267218Y-63387808D01*
X90267218Y-63387808D02*
X90171980Y-63435427D01*
X90171980Y-63435427D02*
X89981504Y-63435427D01*
X91410075Y-63435427D02*
X91076742Y-62959236D01*
X90838647Y-63435427D02*
X90838647Y-62435427D01*
X90838647Y-62435427D02*
X91219599Y-62435427D01*
X91219599Y-62435427D02*
X91314837Y-62483046D01*
X91314837Y-62483046D02*
X91362456Y-62530665D01*
X91362456Y-62530665D02*
X91410075Y-62625903D01*
X91410075Y-62625903D02*
X91410075Y-62768760D01*
X91410075Y-62768760D02*
X91362456Y-62863998D01*
X91362456Y-62863998D02*
X91314837Y-62911617D01*
X91314837Y-62911617D02*
X91219599Y-62959236D01*
X91219599Y-62959236D02*
X90838647Y-62959236D01*
X93171980Y-63340188D02*
X93124361Y-63387808D01*
X93124361Y-63387808D02*
X92981504Y-63435427D01*
X92981504Y-63435427D02*
X92886266Y-63435427D01*
X92886266Y-63435427D02*
X92743409Y-63387808D01*
X92743409Y-63387808D02*
X92648171Y-63292569D01*
X92648171Y-63292569D02*
X92600552Y-63197331D01*
X92600552Y-63197331D02*
X92552933Y-63006855D01*
X92552933Y-63006855D02*
X92552933Y-62863998D01*
X92552933Y-62863998D02*
X92600552Y-62673522D01*
X92600552Y-62673522D02*
X92648171Y-62578284D01*
X92648171Y-62578284D02*
X92743409Y-62483046D01*
X92743409Y-62483046D02*
X92886266Y-62435427D01*
X92886266Y-62435427D02*
X92981504Y-62435427D01*
X92981504Y-62435427D02*
X93124361Y-62483046D01*
X93124361Y-62483046D02*
X93171980Y-62530665D01*
X93791028Y-62435427D02*
X93981504Y-62435427D01*
X93981504Y-62435427D02*
X94076742Y-62483046D01*
X94076742Y-62483046D02*
X94171980Y-62578284D01*
X94171980Y-62578284D02*
X94219599Y-62768760D01*
X94219599Y-62768760D02*
X94219599Y-63102093D01*
X94219599Y-63102093D02*
X94171980Y-63292569D01*
X94171980Y-63292569D02*
X94076742Y-63387808D01*
X94076742Y-63387808D02*
X93981504Y-63435427D01*
X93981504Y-63435427D02*
X93791028Y-63435427D01*
X93791028Y-63435427D02*
X93695790Y-63387808D01*
X93695790Y-63387808D02*
X93600552Y-63292569D01*
X93600552Y-63292569D02*
X93552933Y-63102093D01*
X93552933Y-63102093D02*
X93552933Y-62768760D01*
X93552933Y-62768760D02*
X93600552Y-62578284D01*
X93600552Y-62578284D02*
X93695790Y-62483046D01*
X93695790Y-62483046D02*
X93791028Y-62435427D01*
X94648171Y-63435427D02*
X94648171Y-62435427D01*
X94648171Y-62435427D02*
X94886266Y-62435427D01*
X94886266Y-62435427D02*
X95029123Y-62483046D01*
X95029123Y-62483046D02*
X95124361Y-62578284D01*
X95124361Y-62578284D02*
X95171980Y-62673522D01*
X95171980Y-62673522D02*
X95219599Y-62863998D01*
X95219599Y-62863998D02*
X95219599Y-63006855D01*
X95219599Y-63006855D02*
X95171980Y-63197331D01*
X95171980Y-63197331D02*
X95124361Y-63292569D01*
X95124361Y-63292569D02*
X95029123Y-63387808D01*
X95029123Y-63387808D02*
X94886266Y-63435427D01*
X94886266Y-63435427D02*
X94648171Y-63435427D01*
X95648171Y-62911617D02*
X95981504Y-62911617D01*
X96124361Y-63435427D02*
X95648171Y-63435427D01*
X95648171Y-63435427D02*
X95648171Y-62435427D01*
X95648171Y-62435427D02*
X96124361Y-62435427D01*
D11*
%TO.C,G\u002A\u002A\u002A*%
G36*
X152312371Y-83299341D02*
G01*
X152533464Y-83351729D01*
X152854512Y-83447490D01*
X153191992Y-83558400D01*
X153532757Y-83671818D01*
X153865928Y-83779264D01*
X154164329Y-83872219D01*
X154400785Y-83942164D01*
X154511211Y-83971959D01*
X154762826Y-84042641D01*
X154910227Y-84105266D01*
X154962088Y-84164913D01*
X154934545Y-84219963D01*
X154857715Y-84226323D01*
X154689893Y-84198537D01*
X154447396Y-84139885D01*
X154227095Y-84077837D01*
X153769006Y-83939496D01*
X153346190Y-83806283D01*
X152972554Y-83682961D01*
X152662003Y-83574292D01*
X152428445Y-83485038D01*
X152285785Y-83419963D01*
X152260725Y-83404387D01*
X152174812Y-83325473D01*
X152192424Y-83290523D01*
X152312371Y-83299341D01*
G37*
G36*
X144587616Y-87519946D02*
G01*
X144591664Y-87523206D01*
X144612572Y-87602614D01*
X144592710Y-87629747D01*
X144514276Y-87671493D01*
X144354260Y-87736171D01*
X144140078Y-87814544D01*
X143899145Y-87897374D01*
X143658878Y-87975422D01*
X143446692Y-88039451D01*
X143290005Y-88080224D01*
X143226805Y-88089993D01*
X143099610Y-88116010D01*
X142955387Y-88175228D01*
X142727148Y-88248562D01*
X142504859Y-88241718D01*
X142393650Y-88198738D01*
X142303777Y-88118462D01*
X142322147Y-88057842D01*
X142443431Y-88032482D01*
X142450473Y-88032422D01*
X142618781Y-88014418D01*
X142869621Y-87965123D01*
X143178232Y-87890706D01*
X143519851Y-87797336D01*
X143869714Y-87691182D01*
X144026273Y-87639867D01*
X144303307Y-87554650D01*
X144492893Y-87514167D01*
X144587616Y-87519946D01*
G37*
G36*
X160542433Y-91222653D02*
G01*
X160718030Y-91331071D01*
X160860856Y-91453423D01*
X161052617Y-91651179D01*
X161249503Y-91873456D01*
X161436042Y-92100400D01*
X161596764Y-92312157D01*
X161716198Y-92488871D01*
X161778872Y-92610688D01*
X161784589Y-92638875D01*
X161766769Y-92719126D01*
X161704754Y-92738121D01*
X161585717Y-92692600D01*
X161396827Y-92579303D01*
X161301592Y-92516134D01*
X160950117Y-92253824D01*
X160658002Y-91984748D01*
X160436510Y-91722182D01*
X160296899Y-91479403D01*
X160296221Y-91476452D01*
X160505317Y-91476452D01*
X160530026Y-91568727D01*
X160616827Y-91703389D01*
X160753508Y-91864788D01*
X160927856Y-92037274D01*
X161127659Y-92205195D01*
X161182265Y-92246172D01*
X161335916Y-92355511D01*
X161412740Y-92398355D01*
X161425775Y-92377781D01*
X161388056Y-92296866D01*
X161386754Y-92294429D01*
X161308990Y-92181833D01*
X161181544Y-92029779D01*
X161025811Y-91860189D01*
X160863189Y-91694981D01*
X160715072Y-91556076D01*
X160602858Y-91465395D01*
X160554915Y-91442216D01*
X160505317Y-91476452D01*
X160296221Y-91476452D01*
X160250361Y-91276709D01*
X160289260Y-91189875D01*
X160393063Y-91173722D01*
X160542433Y-91222653D01*
G37*
G36*
X161633504Y-88949553D02*
G01*
X161884030Y-88962206D01*
X162315600Y-88991345D01*
X162698739Y-89026748D01*
X163020554Y-89066541D01*
X163268151Y-89108847D01*
X163428637Y-89151792D01*
X163489118Y-89193500D01*
X163489287Y-89195704D01*
X163437747Y-89227201D01*
X163281323Y-89258508D01*
X163017309Y-89290004D01*
X162643002Y-89322072D01*
X162537498Y-89329821D01*
X162097496Y-89360283D01*
X161756936Y-89380840D01*
X161502031Y-89391351D01*
X161318994Y-89391675D01*
X161194042Y-89381669D01*
X161113387Y-89361192D01*
X161063244Y-89330102D01*
X161048525Y-89314522D01*
X161015959Y-89239791D01*
X161049681Y-89202730D01*
X161601230Y-89202730D01*
X161683196Y-89211834D01*
X161865085Y-89217103D01*
X161983471Y-89218704D01*
X162238464Y-89216913D01*
X162383489Y-89204403D01*
X162421750Y-89180802D01*
X162409645Y-89169285D01*
X162267506Y-89126950D01*
X162048008Y-89120630D01*
X161781629Y-89150465D01*
X161699354Y-89166025D01*
X161609758Y-89188043D01*
X161601230Y-89202730D01*
X161049681Y-89202730D01*
X161077100Y-89172597D01*
X161098391Y-89158795D01*
X161189952Y-89071828D01*
X161216357Y-89004898D01*
X161233718Y-88971002D01*
X161297417Y-88951221D01*
X161424872Y-88944443D01*
X161633504Y-88949553D01*
G37*
G36*
X143810741Y-83838451D02*
G01*
X144171342Y-84115997D01*
X144551923Y-84478281D01*
X144930775Y-84904317D01*
X144994072Y-84982356D01*
X145201505Y-85261075D01*
X145323225Y-85467651D01*
X145361727Y-85599295D01*
X145319503Y-85653221D01*
X145199048Y-85626639D01*
X145002853Y-85516761D01*
X144733414Y-85320799D01*
X144708805Y-85301349D01*
X144531214Y-85166326D01*
X144402952Y-85080998D01*
X144338072Y-85053975D01*
X144337730Y-85074056D01*
X144372008Y-85164498D01*
X144332973Y-85191462D01*
X144324581Y-85191657D01*
X144223551Y-85143002D01*
X144072001Y-85000686D01*
X143874981Y-84770182D01*
X143637541Y-84456962D01*
X143604866Y-84411702D01*
X143309896Y-84001099D01*
X143360900Y-83946094D01*
X143589643Y-83946094D01*
X143626135Y-84042179D01*
X143729176Y-84189588D01*
X143896351Y-84380072D01*
X144044224Y-84528834D01*
X144272728Y-84743773D01*
X144502931Y-84951090D01*
X144717746Y-85136373D01*
X144900083Y-85285212D01*
X145032852Y-85383196D01*
X145096286Y-85416023D01*
X145091615Y-85376578D01*
X145032078Y-85271411D01*
X144955457Y-85158589D01*
X144731337Y-84869382D01*
X144479095Y-84580933D01*
X144224687Y-84320642D01*
X143994069Y-84115909D01*
X143903591Y-84048255D01*
X143725958Y-83940885D01*
X143622113Y-83909580D01*
X143589643Y-83946094D01*
X143360900Y-83946094D01*
X143452030Y-83847814D01*
X143594163Y-83694530D01*
X143810741Y-83838451D01*
G37*
G36*
X149175359Y-80413532D02*
G01*
X149196519Y-80418117D01*
X149432654Y-80483454D01*
X149637318Y-80574072D01*
X149839682Y-80707756D01*
X150068913Y-80902292D01*
X150213188Y-81037989D01*
X150415516Y-81245184D01*
X150639441Y-81495547D01*
X150872725Y-81772990D01*
X151103130Y-82061427D01*
X151318416Y-82344770D01*
X151506345Y-82606932D01*
X151654679Y-82831826D01*
X151751179Y-83003365D01*
X151783694Y-83102350D01*
X151759697Y-83192643D01*
X151691466Y-83184750D01*
X151584648Y-83082603D01*
X151444886Y-82890131D01*
X151417300Y-82847200D01*
X151263468Y-82616106D01*
X151078200Y-82354882D01*
X150906593Y-82126585D01*
X150597690Y-81799972D01*
X150206723Y-81491760D01*
X149765248Y-81222740D01*
X149304821Y-81013704D01*
X149123949Y-80952013D01*
X148886804Y-80871286D01*
X148732744Y-80801268D01*
X148674641Y-80748019D01*
X148675323Y-80740804D01*
X148747203Y-80695215D01*
X148899255Y-80700422D01*
X149112946Y-80750889D01*
X149369744Y-80841083D01*
X149651117Y-80965469D01*
X149936938Y-81117583D01*
X150221055Y-81282855D01*
X150082274Y-81133706D01*
X149794365Y-80887219D01*
X149462888Y-80706114D01*
X149125457Y-80610325D01*
X149085439Y-80605416D01*
X148895971Y-80591576D01*
X148773844Y-80607197D01*
X148674104Y-80664262D01*
X148591675Y-80737025D01*
X148348091Y-80998237D01*
X148091264Y-81339229D01*
X147816557Y-81767245D01*
X147519334Y-82289531D01*
X147194959Y-82913330D01*
X147181010Y-82941182D01*
X146959074Y-83378643D01*
X146780419Y-83716231D01*
X146642445Y-83958045D01*
X146542549Y-84108185D01*
X146478130Y-84170750D01*
X146446587Y-84149840D01*
X146442307Y-84105269D01*
X146468225Y-84024164D01*
X146540308Y-83859873D01*
X146650051Y-83628843D01*
X146788948Y-83347521D01*
X146948494Y-83032355D01*
X147120182Y-82699790D01*
X147295509Y-82366274D01*
X147465968Y-82048254D01*
X147623054Y-81762176D01*
X147758261Y-81524488D01*
X147863084Y-81351637D01*
X147878736Y-81327674D01*
X148130683Y-80968358D01*
X148350563Y-80704063D01*
X148551673Y-80525611D01*
X148747310Y-80423824D01*
X148950773Y-80389524D01*
X149175359Y-80413532D01*
G37*
G36*
X159447528Y-82458325D02*
G01*
X159634832Y-82602854D01*
X159753436Y-82828160D01*
X159775088Y-82918120D01*
X159823383Y-83090745D01*
X159903586Y-83296264D01*
X159943986Y-83382481D01*
X160065782Y-83666171D01*
X160175549Y-84011665D01*
X160276600Y-84432471D01*
X160372251Y-84942094D01*
X160450655Y-85447361D01*
X160513129Y-85917518D01*
X160557274Y-86328585D01*
X160582609Y-86670400D01*
X160588653Y-86932798D01*
X160574924Y-87105617D01*
X160540943Y-87178694D01*
X160532694Y-87180471D01*
X160464679Y-87135243D01*
X160452991Y-87109442D01*
X160437287Y-87038094D01*
X160402648Y-86869081D01*
X160351840Y-86616290D01*
X160287633Y-86293610D01*
X160212795Y-85914930D01*
X160130096Y-85494138D01*
X160082008Y-85248480D01*
X159995559Y-84806496D01*
X159915069Y-84395485D01*
X159845931Y-84042938D01*
X159971863Y-84042938D01*
X159980864Y-84138162D01*
X160008968Y-84310080D01*
X160051409Y-84536411D01*
X160103417Y-84794878D01*
X160160227Y-85063200D01*
X160217069Y-85319099D01*
X160269177Y-85540295D01*
X160311782Y-85704509D01*
X160340117Y-85789462D01*
X160346982Y-85795856D01*
X160347089Y-85734174D01*
X160330377Y-85583154D01*
X160299750Y-85365378D01*
X160258113Y-85103430D01*
X160257315Y-85098653D01*
X160201542Y-84788373D01*
X160144320Y-84509840D01*
X160089512Y-84277343D01*
X160040979Y-84105167D01*
X160002586Y-84007600D01*
X159978195Y-83998930D01*
X159971863Y-84042938D01*
X159845931Y-84042938D01*
X159843399Y-84030028D01*
X159783415Y-83724707D01*
X159737979Y-83494103D01*
X159709955Y-83352800D01*
X159703175Y-83319267D01*
X159648110Y-83204332D01*
X159535879Y-83052032D01*
X159429950Y-82935710D01*
X159251480Y-82780894D01*
X159080184Y-82699660D01*
X158873232Y-82677824D01*
X158687721Y-82689928D01*
X158478589Y-82744217D01*
X158204374Y-82864764D01*
X157883044Y-83040247D01*
X157532566Y-83259347D01*
X157170905Y-83510741D01*
X156816029Y-83783108D01*
X156485904Y-84065127D01*
X156443202Y-84104257D01*
X156258215Y-84270443D01*
X156139366Y-84362254D01*
X156073533Y-84386765D01*
X156047595Y-84351047D01*
X156045439Y-84318672D01*
X156090986Y-84224857D01*
X156217321Y-84082868D01*
X156408992Y-83904967D01*
X156650543Y-83703416D01*
X156926519Y-83490479D01*
X157221467Y-83278417D01*
X157519932Y-83079493D01*
X157806458Y-82905971D01*
X157872227Y-82869195D01*
X158312234Y-82650603D01*
X158710454Y-82498673D01*
X159051580Y-82418709D01*
X159205727Y-82407316D01*
X159447528Y-82458325D01*
G37*
G36*
X148929030Y-85391928D02*
G01*
X149190345Y-85527747D01*
X149407820Y-85711802D01*
X149559114Y-85928711D01*
X149621886Y-86163092D01*
X149622397Y-86192771D01*
X149567028Y-86435821D01*
X149421144Y-86647083D01*
X149205637Y-86817199D01*
X148941404Y-86936813D01*
X148649337Y-86996568D01*
X148350332Y-86987107D01*
X148065283Y-86899073D01*
X148055649Y-86894371D01*
X147872410Y-86778260D01*
X148232240Y-86778260D01*
X148445328Y-86780484D01*
X148597249Y-86766517D01*
X148656234Y-86716030D01*
X148658415Y-86697473D01*
X148653798Y-86635461D01*
X148621041Y-86619347D01*
X148531783Y-86648861D01*
X148423440Y-86695249D01*
X148232240Y-86778260D01*
X147872410Y-86778260D01*
X147783825Y-86722127D01*
X147615681Y-86521928D01*
X147562640Y-86352289D01*
X147816522Y-86352289D01*
X147850848Y-86471863D01*
X147923837Y-86576163D01*
X148036002Y-86684039D01*
X148135367Y-86723841D01*
X148196040Y-86689115D01*
X148203829Y-86645970D01*
X148162009Y-86590037D01*
X148910463Y-86590037D01*
X148953106Y-86590610D01*
X148999354Y-86578979D01*
X149149364Y-86517588D01*
X149297677Y-86430444D01*
X149398181Y-86338305D01*
X149451500Y-86250706D01*
X149451068Y-86193278D01*
X149390325Y-86191654D01*
X149354500Y-86208516D01*
X149252060Y-86279145D01*
X149112025Y-86391892D01*
X149056178Y-86440415D01*
X148942862Y-86544747D01*
X148910463Y-86590037D01*
X148162009Y-86590037D01*
X148161850Y-86589824D01*
X148096595Y-86594097D01*
X147985607Y-86595028D01*
X147954762Y-86525752D01*
X148004087Y-86396666D01*
X148095753Y-86264265D01*
X148279746Y-86031955D01*
X148042906Y-86152782D01*
X147878201Y-86254248D01*
X147816522Y-86352289D01*
X147562640Y-86352289D01*
X147543505Y-86291090D01*
X147566750Y-86035648D01*
X147683439Y-85788218D01*
X147736558Y-85727889D01*
X148446814Y-85727889D01*
X148452745Y-85739459D01*
X148536999Y-85692535D01*
X148601592Y-85653558D01*
X148760886Y-85564159D01*
X148847876Y-85539221D01*
X148882180Y-85576374D01*
X148885708Y-85619252D01*
X148936913Y-85693514D01*
X149057360Y-85740238D01*
X149186992Y-85777675D01*
X149256491Y-85819029D01*
X149229221Y-85873066D01*
X149130660Y-85968831D01*
X149007130Y-86066709D01*
X148814520Y-86214939D01*
X148693046Y-86322270D01*
X148646957Y-86382045D01*
X148680496Y-86387607D01*
X148797912Y-86332299D01*
X148860288Y-86296932D01*
X149044997Y-86185762D01*
X149209657Y-86081158D01*
X149283248Y-86030957D01*
X149419101Y-85932673D01*
X149280257Y-85784059D01*
X149039149Y-85587450D01*
X148747618Y-85472889D01*
X148628040Y-85448968D01*
X148494881Y-85431374D01*
X148460254Y-85441077D01*
X148506301Y-85477654D01*
X148575612Y-85531218D01*
X148566842Y-85585998D01*
X148506301Y-85658491D01*
X148446814Y-85727889D01*
X147736558Y-85727889D01*
X147869654Y-85576726D01*
X148150579Y-85576726D01*
X148201759Y-85588357D01*
X148214681Y-85588549D01*
X148317424Y-85559594D01*
X148345887Y-85532596D01*
X148350472Y-85482400D01*
X148282715Y-85490743D01*
X148203829Y-85532596D01*
X148150579Y-85576726D01*
X147869654Y-85576726D01*
X147874314Y-85571434D01*
X148120117Y-85407929D01*
X148364239Y-85326523D01*
X148646214Y-85319726D01*
X148929030Y-85391928D01*
G37*
G36*
X149505006Y-89085027D02*
G01*
X149484739Y-89168034D01*
X149375970Y-89296919D01*
X149281981Y-89382625D01*
X149053527Y-89618746D01*
X148922899Y-89861562D01*
X148876227Y-90129080D01*
X148905127Y-90367434D01*
X149019897Y-90561182D01*
X149231431Y-90724778D01*
X149384218Y-90803159D01*
X149673068Y-90910445D01*
X149947445Y-90951917D01*
X150233204Y-90925493D01*
X150556198Y-90829091D01*
X150899347Y-90681132D01*
X151133189Y-90573630D01*
X151333522Y-90487534D01*
X151475520Y-90433160D01*
X151529251Y-90419397D01*
X151626249Y-90379402D01*
X151644696Y-90357623D01*
X151723978Y-90318810D01*
X151790157Y-90323905D01*
X151913443Y-90299593D01*
X152010081Y-90208762D01*
X152124318Y-90113187D01*
X152226287Y-90106422D01*
X152287956Y-90184956D01*
X152295104Y-90244470D01*
X152329568Y-90439983D01*
X152442559Y-90594931D01*
X152648480Y-90725471D01*
X152771684Y-90779119D01*
X153103167Y-90898429D01*
X153360374Y-90958486D01*
X153564776Y-90961254D01*
X153737847Y-90908699D01*
X153801840Y-90873415D01*
X153809888Y-90866444D01*
X154127498Y-90866444D01*
X154154275Y-90873983D01*
X154231230Y-90844655D01*
X154342304Y-90777836D01*
X154491993Y-90656638D01*
X154556640Y-90546479D01*
X154563563Y-90476220D01*
X154545400Y-90454443D01*
X154509135Y-90519664D01*
X154416944Y-90639731D01*
X154319375Y-90700835D01*
X154211263Y-90757672D01*
X154139170Y-90821406D01*
X154127498Y-90866444D01*
X153809888Y-90866444D01*
X154003087Y-90699103D01*
X154132668Y-90483040D01*
X154170272Y-90293351D01*
X154141441Y-90176150D01*
X154110380Y-90111163D01*
X154321326Y-90111163D01*
X154331471Y-90233487D01*
X154349774Y-90364968D01*
X154368525Y-90394280D01*
X154398713Y-90332410D01*
X154407348Y-90309364D01*
X154424998Y-90168069D01*
X154382413Y-90095776D01*
X154335338Y-90063887D01*
X154321326Y-90111163D01*
X154110380Y-90111163D01*
X154069742Y-90026140D01*
X153977360Y-89879277D01*
X153886482Y-89771516D01*
X153827284Y-89737518D01*
X153778678Y-89691462D01*
X153772509Y-89652283D01*
X153811304Y-89578169D01*
X153924316Y-89584240D01*
X154106484Y-89669253D01*
X154272512Y-89775116D01*
X154529191Y-89986687D01*
X154681385Y-90200398D01*
X154737761Y-90428998D01*
X154738504Y-90460755D01*
X154685351Y-90685492D01*
X154526999Y-90870465D01*
X154265109Y-91014595D01*
X153901342Y-91116804D01*
X153672923Y-91152971D01*
X153232186Y-91183734D01*
X152877542Y-91151010D01*
X152598140Y-91050625D01*
X152383132Y-90878405D01*
X152221667Y-90630176D01*
X152201741Y-90586911D01*
X152110385Y-90379848D01*
X151819187Y-90576151D01*
X151331598Y-90867228D01*
X150840223Y-91090040D01*
X150360810Y-91240595D01*
X149909109Y-91314900D01*
X149500869Y-91308965D01*
X149203391Y-91239172D01*
X148863324Y-91062260D01*
X148611372Y-90818862D01*
X148986932Y-90818862D01*
X149011794Y-90861035D01*
X149203065Y-91027022D01*
X149454314Y-91123573D01*
X149784460Y-91157647D01*
X149818557Y-91157887D01*
X150009086Y-91155065D01*
X150141298Y-91147437D01*
X150188548Y-91136605D01*
X150187908Y-91135693D01*
X150123962Y-91116501D01*
X149978479Y-91087374D01*
X149782421Y-91054485D01*
X149774264Y-91053225D01*
X149535316Y-91004975D01*
X149306687Y-90939998D01*
X149161648Y-90883005D01*
X149031006Y-90823264D01*
X148986932Y-90818862D01*
X148611372Y-90818862D01*
X148606271Y-90813934D01*
X148492998Y-90628715D01*
X148424133Y-90473974D01*
X148402095Y-90358972D01*
X148413804Y-90289002D01*
X148607102Y-90289002D01*
X148614135Y-90449551D01*
X148636454Y-90581354D01*
X148672024Y-90645302D01*
X148678700Y-90646625D01*
X148683298Y-90594959D01*
X148687018Y-90460819D01*
X148688781Y-90307950D01*
X148683408Y-90142300D01*
X148667463Y-90046098D01*
X148647033Y-90038104D01*
X148617390Y-90138817D01*
X148607102Y-90289002D01*
X148413804Y-90289002D01*
X148423794Y-90229308D01*
X148463072Y-90101555D01*
X148565947Y-89850422D01*
X148700304Y-89613424D01*
X148845074Y-89423156D01*
X148970290Y-89316877D01*
X149103108Y-89235133D01*
X149219452Y-89155079D01*
X149343283Y-89082608D01*
X149433192Y-89055639D01*
X149505006Y-89085027D01*
G37*
G36*
X155708783Y-88675159D02*
G01*
X155935639Y-88697078D01*
X155992735Y-88703159D01*
X156315612Y-88748630D01*
X156538932Y-88806746D01*
X156662544Y-88869981D01*
X156802568Y-89000145D01*
X156941366Y-89170649D01*
X157054492Y-89346431D01*
X157117496Y-89492432D01*
X157123194Y-89530591D01*
X157147168Y-89604062D01*
X157235234Y-89607831D01*
X157267140Y-89600537D01*
X157380408Y-89596087D01*
X157404265Y-89638882D01*
X157330183Y-89696333D01*
X157295551Y-89709106D01*
X157203774Y-89758273D01*
X157181905Y-89793810D01*
X157148287Y-89864933D01*
X157064855Y-89980705D01*
X157038169Y-90013265D01*
X156853431Y-90161912D01*
X156592853Y-90281076D01*
X156292480Y-90361203D01*
X155988356Y-90392741D01*
X155716528Y-90366134D01*
X155711478Y-90364896D01*
X155412641Y-90236814D01*
X155180270Y-90027101D01*
X155101908Y-89884544D01*
X155275864Y-89884544D01*
X155291280Y-89963865D01*
X155412118Y-90075985D01*
X155475785Y-90121075D01*
X155639361Y-90203141D01*
X155809322Y-90245210D01*
X155947966Y-90241552D01*
X156010673Y-90202386D01*
X155983699Y-90177052D01*
X155878987Y-90179431D01*
X155871969Y-90180424D01*
X155748845Y-90182553D01*
X155705753Y-90131711D01*
X155704500Y-90112236D01*
X155687182Y-90073253D01*
X156350112Y-90073253D01*
X156361542Y-90077130D01*
X156437346Y-90050960D01*
X156439277Y-90050046D01*
X156727319Y-90050046D01*
X156755730Y-90078457D01*
X156784142Y-90050046D01*
X156755730Y-90021634D01*
X156727319Y-90050046D01*
X156439277Y-90050046D01*
X156577055Y-89984838D01*
X156698907Y-89920866D01*
X156901537Y-89786678D01*
X156994957Y-89663754D01*
X157001240Y-89637627D01*
X157019457Y-89509324D01*
X156828650Y-89621903D01*
X156701032Y-89709566D01*
X156567502Y-89819844D01*
X156449927Y-89931425D01*
X156370174Y-90022999D01*
X156350112Y-90073253D01*
X155687182Y-90073253D01*
X155675879Y-90047808D01*
X155574224Y-90052190D01*
X155568641Y-90053567D01*
X155441177Y-90052950D01*
X155424586Y-90035598D01*
X155903381Y-90035598D01*
X156130674Y-89917476D01*
X156326729Y-89797657D01*
X156519239Y-89653389D01*
X156550343Y-89626378D01*
X156690580Y-89520656D01*
X156815592Y-89459478D01*
X156850664Y-89453401D01*
X156924041Y-89437758D01*
X156913337Y-89370449D01*
X156896960Y-89338206D01*
X156860219Y-89283391D01*
X156813611Y-89271144D01*
X156734776Y-89309699D01*
X156601358Y-89407289D01*
X156504949Y-89482557D01*
X156319364Y-89633906D01*
X156151599Y-89780239D01*
X156038985Y-89888850D01*
X155903381Y-90035598D01*
X155424586Y-90035598D01*
X155381424Y-89990457D01*
X155411194Y-89891123D01*
X155418739Y-89881557D01*
X155449207Y-89827146D01*
X155389568Y-89828238D01*
X155364484Y-89834458D01*
X155275864Y-89884544D01*
X155101908Y-89884544D01*
X155029903Y-89753552D01*
X155011001Y-89666115D01*
X155326823Y-89666115D01*
X155371440Y-89664117D01*
X155420384Y-89650515D01*
X155536186Y-89599900D01*
X155706042Y-89506681D01*
X155900813Y-89389240D01*
X156091362Y-89265960D01*
X156248550Y-89155224D01*
X156343239Y-89075414D01*
X156354553Y-89061163D01*
X156440285Y-89003694D01*
X156474967Y-88998815D01*
X156551082Y-89025767D01*
X156535735Y-89099295D01*
X156435453Y-89208407D01*
X156280563Y-89326198D01*
X156116778Y-89445819D01*
X155965269Y-89570882D01*
X155845714Y-89682948D01*
X155777790Y-89763580D01*
X155780959Y-89794341D01*
X155848484Y-89765616D01*
X155972435Y-89693227D01*
X156032363Y-89654775D01*
X156200645Y-89533714D01*
X156394631Y-89379830D01*
X156494049Y-89295145D01*
X156743778Y-89075080D01*
X156533531Y-88945140D01*
X156396485Y-88868183D01*
X156316957Y-88852592D01*
X156260692Y-88892695D01*
X156255391Y-88899099D01*
X156171669Y-88976659D01*
X156029213Y-89086148D01*
X155919688Y-89162661D01*
X155726935Y-89301461D01*
X155539830Y-89451091D01*
X155465102Y-89517248D01*
X155356349Y-89622209D01*
X155326823Y-89666115D01*
X155011001Y-89666115D01*
X154981286Y-89528663D01*
X154981833Y-89468928D01*
X155080872Y-89468928D01*
X155100434Y-89539787D01*
X155156422Y-89600556D01*
X155192123Y-89596057D01*
X155210721Y-89532339D01*
X155178319Y-89484540D01*
X155102401Y-89428282D01*
X155080872Y-89468928D01*
X154981833Y-89468928D01*
X154983893Y-89244099D01*
X155002136Y-89191860D01*
X155563513Y-89191860D01*
X155752022Y-89081132D01*
X155891516Y-88990123D01*
X155990492Y-88909679D01*
X155999943Y-88899375D01*
X156021643Y-88843471D01*
X155952956Y-88831490D01*
X155851207Y-88875591D01*
X155732288Y-88981001D01*
X155705036Y-89013247D01*
X155563513Y-89191860D01*
X155002136Y-89191860D01*
X155060553Y-89024587D01*
X155223355Y-88839912D01*
X155272659Y-88800403D01*
X155370862Y-88729069D01*
X155456328Y-88687111D01*
X155558990Y-88670489D01*
X155708783Y-88675159D01*
G37*
G36*
X144365381Y-93781513D02*
G01*
X144562892Y-93956497D01*
X144700949Y-94165721D01*
X144808921Y-94418757D01*
X144900770Y-94732467D01*
X144967890Y-95065087D01*
X145001672Y-95374851D01*
X144996461Y-95599554D01*
X144962306Y-95864499D01*
X145261926Y-95745828D01*
X145548387Y-95663031D01*
X145889234Y-95626258D01*
X146016133Y-95623147D01*
X146339938Y-95640028D01*
X146609822Y-95705181D01*
X146843027Y-95830936D01*
X147056791Y-96029623D01*
X147268356Y-96313571D01*
X147481795Y-96671341D01*
X147731794Y-97184225D01*
X147926554Y-97715209D01*
X148062371Y-98244525D01*
X148135541Y-98752407D01*
X148142359Y-99219087D01*
X148079121Y-99624797D01*
X148052032Y-99714084D01*
X147940852Y-99932529D01*
X147757943Y-100178214D01*
X147530555Y-100422533D01*
X147285940Y-100636882D01*
X147051346Y-100792655D01*
X147000831Y-100817572D01*
X146779329Y-100882207D01*
X146484515Y-100919215D01*
X146153440Y-100928092D01*
X145823154Y-100908330D01*
X145530708Y-100859423D01*
X145454946Y-100838701D01*
X145129585Y-100710665D01*
X144845182Y-100531881D01*
X144583328Y-100286073D01*
X144325610Y-99956966D01*
X144145981Y-99681589D01*
X143934687Y-99317701D01*
X143787746Y-99004832D01*
X143694013Y-98709063D01*
X143642339Y-98396473D01*
X143623106Y-98090538D01*
X143614913Y-97931178D01*
X143755221Y-97931178D01*
X143758146Y-98220914D01*
X143778178Y-98505078D01*
X143813344Y-98758149D01*
X143861669Y-98954605D01*
X143921181Y-99068925D01*
X143935673Y-99080575D01*
X143948388Y-99034859D01*
X143959879Y-98894862D01*
X143969153Y-98679949D01*
X143972481Y-98531486D01*
X144060834Y-98531486D01*
X144100041Y-98965305D01*
X144186849Y-99355730D01*
X144318135Y-99679234D01*
X144432963Y-99851063D01*
X144612211Y-100030893D01*
X144853773Y-100230235D01*
X145117591Y-100419247D01*
X145363604Y-100568089D01*
X145456209Y-100613305D01*
X145801449Y-100738424D01*
X146115033Y-100787178D01*
X146438024Y-100761380D01*
X146783247Y-100671943D01*
X146986191Y-100595241D01*
X147177578Y-100504252D01*
X147221335Y-100479203D01*
X147421794Y-100293138D01*
X147569927Y-100020800D01*
X147660632Y-99679284D01*
X147688806Y-99285689D01*
X147667905Y-98982815D01*
X147628760Y-98669510D01*
X147304685Y-98801193D01*
X147053252Y-98891300D01*
X146787847Y-98966722D01*
X146537901Y-99021138D01*
X146332848Y-99048226D01*
X146202120Y-99041664D01*
X146195564Y-99039423D01*
X146109351Y-98980857D01*
X146129068Y-98922455D01*
X146247727Y-98877265D01*
X146286043Y-98870448D01*
X146434168Y-98833711D01*
X146639370Y-98765361D01*
X146840070Y-98687170D01*
X147057011Y-98596264D01*
X147258470Y-98512299D01*
X147389446Y-98458140D01*
X147569471Y-98384340D01*
X147476823Y-98038557D01*
X147422972Y-97850141D01*
X147376025Y-97746643D01*
X147315516Y-97702681D01*
X147220976Y-97692872D01*
X147197992Y-97692775D01*
X147052005Y-97707901D01*
X146840365Y-97747777D01*
X146606168Y-97804145D01*
X146580999Y-97810966D01*
X146366312Y-97863392D01*
X146188228Y-97895112D01*
X146079529Y-97900556D01*
X146068956Y-97897984D01*
X145995599Y-97825345D01*
X146008513Y-97724527D01*
X146081512Y-97654893D01*
X146461249Y-97654893D01*
X146469049Y-97688674D01*
X146499131Y-97692775D01*
X146545903Y-97671984D01*
X146537013Y-97654893D01*
X146469577Y-97648092D01*
X146461249Y-97654893D01*
X146081512Y-97654893D01*
X146101368Y-97635952D01*
X146192299Y-97544855D01*
X146215014Y-97469562D01*
X146215740Y-97465482D01*
X146868482Y-97465482D01*
X146878588Y-97509224D01*
X146957127Y-97519191D01*
X147064024Y-97495384D01*
X147124187Y-97465482D01*
X147163298Y-97425880D01*
X147103998Y-97410712D01*
X147056511Y-97409529D01*
X146930689Y-97427949D01*
X146868482Y-97465482D01*
X146215740Y-97465482D01*
X146227585Y-97398877D01*
X146278301Y-97349139D01*
X146386668Y-97313519D01*
X146572189Y-97285184D01*
X146809659Y-97261314D01*
X147013644Y-97239893D01*
X147164863Y-97218419D01*
X147235728Y-97200948D01*
X147237833Y-97198363D01*
X147214789Y-97138635D01*
X147154825Y-97007429D01*
X147083726Y-96859484D01*
X146885486Y-96548923D01*
X146629751Y-96289062D01*
X146343583Y-96104459D01*
X146185805Y-96044677D01*
X145906494Y-95997544D01*
X145614261Y-96000038D01*
X145335460Y-96046194D01*
X145096443Y-96130049D01*
X144923563Y-96245639D01*
X144854534Y-96345944D01*
X144782643Y-96463705D01*
X144663361Y-96603256D01*
X144624478Y-96641545D01*
X144410166Y-96900068D01*
X144249670Y-97229101D01*
X144137724Y-97627770D01*
X144072354Y-98077799D01*
X144060834Y-98531486D01*
X143972481Y-98531486D01*
X143975216Y-98409485D01*
X143976569Y-98283586D01*
X143975571Y-97993398D01*
X143968720Y-97748503D01*
X143957049Y-97568943D01*
X143941589Y-97474763D01*
X143934412Y-97465482D01*
X143922907Y-97419961D01*
X143954285Y-97301739D01*
X144017828Y-97138329D01*
X144102818Y-96957244D01*
X144198540Y-96785995D01*
X144200027Y-96783603D01*
X144385697Y-96545253D01*
X144635216Y-96303914D01*
X144907316Y-96095777D01*
X145125390Y-95972064D01*
X145423048Y-95881799D01*
X145759303Y-95848522D01*
X146091061Y-95872194D01*
X146375230Y-95952777D01*
X146417772Y-95973204D01*
X146716355Y-96186407D01*
X146985457Y-96492738D01*
X147207627Y-96872317D01*
X147208324Y-96873799D01*
X147302374Y-97055188D01*
X147390962Y-97194981D01*
X147448897Y-97257893D01*
X147505764Y-97351863D01*
X147497235Y-97442569D01*
X147491835Y-97550685D01*
X147526946Y-97579129D01*
X147566310Y-97620250D01*
X147559011Y-97662313D01*
X147552194Y-97761989D01*
X147569117Y-97928059D01*
X147591032Y-98050344D01*
X147632694Y-98225075D01*
X147674087Y-98312164D01*
X147732514Y-98336251D01*
X147787343Y-98329886D01*
X147889046Y-98331646D01*
X147919465Y-98406416D01*
X147919712Y-98420118D01*
X147889252Y-98524988D01*
X147848683Y-98559378D01*
X147815948Y-98607157D01*
X147793985Y-98732647D01*
X147781614Y-98947671D01*
X147777656Y-99264053D01*
X147777654Y-99271500D01*
X147777654Y-99959897D01*
X147891301Y-99749714D01*
X147944049Y-99632493D01*
X147977876Y-99497129D01*
X147996513Y-99316017D01*
X148003689Y-99061550D01*
X148004171Y-98914475D01*
X147986139Y-98480584D01*
X147927331Y-98084663D01*
X147818954Y-97690188D01*
X147652210Y-97260634D01*
X147552605Y-97039308D01*
X147294996Y-96562992D01*
X147014532Y-96196125D01*
X146707342Y-95936107D01*
X146369556Y-95780338D01*
X145997301Y-95726216D01*
X145646782Y-95758960D01*
X145178056Y-95900362D01*
X144750612Y-96132888D01*
X144379909Y-96442423D01*
X144081408Y-96814854D01*
X143870570Y-97236065D01*
X143808586Y-97437070D01*
X143771377Y-97661389D01*
X143755221Y-97931178D01*
X143614913Y-97931178D01*
X143610025Y-97836091D01*
X143583383Y-97614658D01*
X143535792Y-97390412D01*
X143459864Y-97127525D01*
X143365321Y-96840426D01*
X143265600Y-96540855D01*
X143197864Y-96312481D01*
X143155840Y-96119486D01*
X143133255Y-95926052D01*
X143123836Y-95696363D01*
X143121506Y-95448256D01*
X143121866Y-95338392D01*
X143318097Y-95338392D01*
X143347482Y-95734358D01*
X143409264Y-96129847D01*
X143499121Y-96491637D01*
X143612729Y-96786504D01*
X143659127Y-96870714D01*
X143728933Y-97015853D01*
X143719359Y-97093002D01*
X143715718Y-97095558D01*
X143681798Y-97164788D01*
X143690027Y-97187268D01*
X143730631Y-97171576D01*
X143801134Y-97074706D01*
X143867583Y-96953889D01*
X143983821Y-96758636D01*
X144144325Y-96535627D01*
X144295737Y-96354336D01*
X144580249Y-96043034D01*
X144556791Y-95291059D01*
X144540425Y-94945682D01*
X144515889Y-94669793D01*
X144484962Y-94479725D01*
X144460428Y-94406421D01*
X144405551Y-94348301D01*
X144656459Y-94348301D01*
X144656824Y-94409126D01*
X144670736Y-94559971D01*
X144695812Y-94778332D01*
X144729667Y-95041704D01*
X144730851Y-95050493D01*
X144822844Y-95732372D01*
X144839751Y-95344235D01*
X144829505Y-94997222D01*
X144774712Y-94675920D01*
X144765359Y-94642043D01*
X144713782Y-94477245D01*
X144673530Y-94371503D01*
X144656459Y-94348301D01*
X144405551Y-94348301D01*
X144342329Y-94281342D01*
X144165603Y-94184331D01*
X143979065Y-94136870D01*
X143866884Y-94145199D01*
X143679422Y-94249353D01*
X143507826Y-94424437D01*
X143389693Y-94629832D01*
X143373808Y-94677912D01*
X143325431Y-94975169D01*
X143318097Y-95338392D01*
X143121866Y-95338392D01*
X143122488Y-95148937D01*
X143130860Y-94935833D01*
X143150504Y-94781567D01*
X143185304Y-94658762D01*
X143239143Y-94540042D01*
X143254502Y-94510672D01*
X143475271Y-94155220D01*
X143684281Y-93923089D01*
X144027991Y-93923089D01*
X144069367Y-93963480D01*
X144169377Y-94013126D01*
X144324778Y-94081807D01*
X144388866Y-94100265D01*
X144373078Y-94066836D01*
X144302745Y-93993730D01*
X144182372Y-93914481D01*
X144077031Y-93898582D01*
X144027991Y-93923089D01*
X143684281Y-93923089D01*
X143702099Y-93903300D01*
X143929629Y-93756192D01*
X144152508Y-93715170D01*
X144365381Y-93781513D01*
G37*
G36*
X145886961Y-87725611D02*
G01*
X145882299Y-87755806D01*
X145865737Y-87873206D01*
X145860990Y-87971708D01*
X145836560Y-88093581D01*
X145773967Y-88274830D01*
X145696547Y-88454706D01*
X145609149Y-88658795D01*
X145559317Y-88840706D01*
X145537306Y-89048821D01*
X145533180Y-89265929D01*
X145541087Y-89534490D01*
X145561943Y-89804147D01*
X145591379Y-90019769D01*
X145593976Y-90033043D01*
X145648064Y-90263098D01*
X145722705Y-90530884D01*
X145809180Y-90810232D01*
X145898775Y-91074973D01*
X145982774Y-91298938D01*
X146052460Y-91455958D01*
X146085711Y-91509450D01*
X146167883Y-91577529D01*
X146323743Y-91685510D01*
X146528425Y-91816703D01*
X146689179Y-91914450D01*
X147213278Y-92215552D01*
X147666956Y-92450936D01*
X148067723Y-92626881D01*
X148433087Y-92749664D01*
X148780559Y-92825565D01*
X149127648Y-92860864D01*
X149340373Y-92865183D01*
X149649108Y-92870698D01*
X149982450Y-92888174D01*
X150278443Y-92914136D01*
X150334780Y-92920950D01*
X150938982Y-92986085D01*
X151558010Y-93028595D01*
X152169851Y-93048468D01*
X152752495Y-93045696D01*
X153283928Y-93020269D01*
X153742139Y-92972177D01*
X154018622Y-92922557D01*
X154209856Y-92880182D01*
X154381774Y-92842990D01*
X154409765Y-92837086D01*
X154522826Y-92787627D01*
X154533210Y-92724518D01*
X154537448Y-92654122D01*
X154617290Y-92591892D01*
X154733269Y-92550269D01*
X155420384Y-92550269D01*
X155448795Y-92578681D01*
X155477207Y-92550269D01*
X155448795Y-92521858D01*
X155420384Y-92550269D01*
X154733269Y-92550269D01*
X154785294Y-92531598D01*
X154971503Y-92486786D01*
X155673047Y-92486786D01*
X155690294Y-92488971D01*
X155827321Y-92481352D01*
X155874970Y-92518426D01*
X155918559Y-92553730D01*
X156051893Y-92536881D01*
X156278821Y-92467086D01*
X156471614Y-92395558D01*
X156634650Y-92324946D01*
X156833215Y-92228147D01*
X157044331Y-92117871D01*
X157245023Y-92006826D01*
X157412315Y-91907722D01*
X157523231Y-91833268D01*
X157554953Y-91796323D01*
X157494798Y-91803416D01*
X157399859Y-91845890D01*
X157302185Y-91888361D01*
X157118382Y-91959064D01*
X156870043Y-92050029D01*
X156578766Y-92153287D01*
X156386379Y-92219884D01*
X156108440Y-92316881D01*
X155888127Y-92397090D01*
X155738608Y-92455422D01*
X155673047Y-92486786D01*
X154971503Y-92486786D01*
X155051032Y-92467647D01*
X155261368Y-92415667D01*
X155446755Y-92357746D01*
X155537470Y-92320450D01*
X155655097Y-92272699D01*
X155849712Y-92206510D01*
X156088496Y-92132737D01*
X156219349Y-92094945D01*
X156715789Y-91930911D01*
X157184277Y-91729988D01*
X157598416Y-91505274D01*
X157931811Y-91269863D01*
X157997214Y-91212922D01*
X158199072Y-90996088D01*
X158398528Y-90727738D01*
X158514896Y-90537341D01*
X158659027Y-90285031D01*
X158766911Y-90125344D01*
X158848909Y-90047255D01*
X158915380Y-90039738D01*
X158955798Y-90068100D01*
X158991571Y-90155554D01*
X158966800Y-90305624D01*
X158959533Y-90330074D01*
X158927351Y-90474805D01*
X158948489Y-90541594D01*
X158963775Y-90549330D01*
X158976618Y-90603176D01*
X158921826Y-90718194D01*
X158812699Y-90875778D01*
X158662540Y-91057321D01*
X158484648Y-91244215D01*
X158428902Y-91297572D01*
X158179867Y-91506150D01*
X157857208Y-91740437D01*
X157491319Y-91980362D01*
X157112594Y-92205855D01*
X156802382Y-92371639D01*
X156283660Y-92590645D01*
X155729658Y-92753098D01*
X155267199Y-92834595D01*
X155097402Y-92858983D01*
X154844079Y-92901766D01*
X154534923Y-92957976D01*
X154197625Y-93022639D01*
X153999802Y-93062101D01*
X153648457Y-93132416D01*
X153299325Y-93200768D01*
X152983381Y-93261198D01*
X152731603Y-93307744D01*
X152636043Y-93324529D01*
X152377073Y-93355168D01*
X152042025Y-93375639D01*
X151668080Y-93385190D01*
X151292415Y-93383068D01*
X150952210Y-93368521D01*
X150851631Y-93360648D01*
X150686681Y-93345795D01*
X150550131Y-94056086D01*
X150491588Y-94372804D01*
X150436447Y-94692737D01*
X150391343Y-94976126D01*
X150365172Y-95164140D01*
X150334629Y-95388082D01*
X150290070Y-95681166D01*
X150238148Y-96000786D01*
X150198547Y-96231324D01*
X149989281Y-97496851D01*
X149822870Y-98688548D01*
X149696069Y-99836459D01*
X149605633Y-100970629D01*
X149548315Y-102121103D01*
X149541951Y-102310276D01*
X149506579Y-103433147D01*
X149647628Y-103486773D01*
X149736758Y-103498584D01*
X149930928Y-103508286D01*
X150221546Y-103515780D01*
X150600023Y-103520967D01*
X151057768Y-103523747D01*
X151586192Y-103524019D01*
X152176703Y-103521684D01*
X152476677Y-103519632D01*
X153162875Y-103513659D01*
X153747722Y-103506540D01*
X154243517Y-103497296D01*
X154662556Y-103484951D01*
X155017135Y-103468526D01*
X155319551Y-103447046D01*
X155582101Y-103419532D01*
X155817083Y-103385007D01*
X156036791Y-103342494D01*
X156253524Y-103291015D01*
X156479578Y-103229593D01*
X156613672Y-103190827D01*
X157039847Y-103065853D01*
X156784142Y-103023146D01*
X156537800Y-102978719D01*
X156384128Y-102940484D01*
X156302973Y-102900995D01*
X156274179Y-102852805D01*
X156272733Y-102834198D01*
X156285952Y-102792140D01*
X156336482Y-102766385D01*
X156440627Y-102756234D01*
X156614696Y-102760987D01*
X156874994Y-102779946D01*
X157092557Y-102799048D01*
X157320716Y-102816201D01*
X157490812Y-102813610D01*
X157646749Y-102784264D01*
X157832430Y-102721155D01*
X158001729Y-102653902D01*
X158214729Y-102569775D01*
X158388840Y-102505213D01*
X158496434Y-102470293D01*
X158514410Y-102466885D01*
X158541257Y-102487850D01*
X158480577Y-102545880D01*
X158347677Y-102629657D01*
X158168065Y-102722979D01*
X157892196Y-102855572D01*
X158147900Y-102827441D01*
X158312223Y-102812198D01*
X158553389Y-102793317D01*
X158834774Y-102773551D01*
X159039161Y-102760472D01*
X159674716Y-102721634D01*
X159524370Y-102267048D01*
X159453662Y-102079364D01*
X159341412Y-101812943D01*
X159197712Y-101490290D01*
X159032657Y-101133907D01*
X158856337Y-100766297D01*
X158798007Y-100647585D01*
X158621927Y-100289690D01*
X158453719Y-99944470D01*
X158303172Y-99632266D01*
X158180072Y-99373418D01*
X158094205Y-99188265D01*
X158073507Y-99141768D01*
X157908423Y-98759239D01*
X157714440Y-98304147D01*
X157505345Y-97809253D01*
X157294920Y-97307322D01*
X157136255Y-96925661D01*
X157295551Y-96925661D01*
X157323963Y-96954073D01*
X157352375Y-96925661D01*
X157323963Y-96897249D01*
X157295551Y-96925661D01*
X157136255Y-96925661D01*
X157096950Y-96831116D01*
X157065736Y-96755191D01*
X157238728Y-96755191D01*
X157267140Y-96783603D01*
X157295551Y-96755191D01*
X157267140Y-96726780D01*
X157238728Y-96755191D01*
X157065736Y-96755191D01*
X156937252Y-96442663D01*
X157125082Y-96442663D01*
X157145872Y-96489435D01*
X157162964Y-96480545D01*
X157169764Y-96413109D01*
X157162964Y-96404781D01*
X157129182Y-96412581D01*
X157125082Y-96442663D01*
X156937252Y-96442663D01*
X156925221Y-96413398D01*
X156913988Y-96385843D01*
X156754839Y-95998992D01*
X156626576Y-95698696D01*
X156519354Y-95465411D01*
X156423324Y-95279596D01*
X156328641Y-95121709D01*
X156225458Y-94972207D01*
X156152605Y-94874775D01*
X156019076Y-94694641D01*
X155951557Y-94585224D01*
X155943529Y-94529745D01*
X155988476Y-94511429D01*
X156011141Y-94510672D01*
X156119808Y-94561576D01*
X156257938Y-94704882D01*
X156415363Y-94926479D01*
X156581913Y-95212256D01*
X156727606Y-95504876D01*
X156876238Y-95825122D01*
X156982945Y-96053023D01*
X157053168Y-96199536D01*
X157092349Y-96275622D01*
X157105929Y-96292239D01*
X157099351Y-96260347D01*
X157094508Y-96243782D01*
X157064913Y-96142819D01*
X157012453Y-95961734D01*
X156945552Y-95729658D01*
X156897347Y-95561903D01*
X156717786Y-94935590D01*
X156567655Y-94409703D01*
X156444820Y-93975492D01*
X156347147Y-93624205D01*
X156272503Y-93347094D01*
X156218754Y-93135407D01*
X156183766Y-92980395D01*
X156165406Y-92873307D01*
X156161541Y-92805394D01*
X156170036Y-92767904D01*
X156188759Y-92752089D01*
X156211502Y-92749151D01*
X156230610Y-92754633D01*
X156251263Y-92777573D01*
X156276380Y-92827715D01*
X156308879Y-92914800D01*
X156351678Y-93048572D01*
X156407697Y-93238774D01*
X156479854Y-93495148D01*
X156571066Y-93827437D01*
X156684253Y-94245383D01*
X156822333Y-94758730D01*
X156898443Y-95042376D01*
X157010177Y-95451409D01*
X157125950Y-95861913D01*
X157238288Y-96248324D01*
X157339715Y-96585080D01*
X157422757Y-96846617D01*
X157446750Y-96917544D01*
X157552604Y-97211679D01*
X157683812Y-97559111D01*
X157833297Y-97942699D01*
X157993983Y-98345303D01*
X158158793Y-98749781D01*
X158320649Y-99138993D01*
X158472475Y-99495797D01*
X158607194Y-99803053D01*
X158717730Y-100043619D01*
X158797004Y-100200356D01*
X158813849Y-100228807D01*
X158890750Y-100349850D01*
X159321114Y-100217068D01*
X159671069Y-100077761D01*
X160062267Y-99870349D01*
X160464484Y-99615089D01*
X160847497Y-99332238D01*
X161181080Y-99042053D01*
X161370785Y-98843329D01*
X161798728Y-98287684D01*
X161930159Y-98062126D01*
X162125529Y-98062126D01*
X162153941Y-98090538D01*
X162182352Y-98062126D01*
X162153941Y-98033715D01*
X162125529Y-98062126D01*
X161930159Y-98062126D01*
X161994710Y-97951345D01*
X162212250Y-97951345D01*
X162212792Y-97976891D01*
X162250869Y-97929384D01*
X162320972Y-97804223D01*
X162408625Y-97627454D01*
X162417499Y-97608582D01*
X162562678Y-97261551D01*
X162670161Y-96929175D01*
X162731517Y-96640986D01*
X162742172Y-96471075D01*
X162735577Y-96363718D01*
X162725265Y-96364652D01*
X162709735Y-96442663D01*
X162647884Y-96725916D01*
X162561357Y-97041363D01*
X162462919Y-97347704D01*
X162365334Y-97603639D01*
X162321785Y-97697957D01*
X162249989Y-97850033D01*
X162212250Y-97951345D01*
X161994710Y-97951345D01*
X162126798Y-97724659D01*
X162367491Y-97129879D01*
X162499771Y-96641143D01*
X162531929Y-96475087D01*
X162556901Y-96291832D01*
X162575563Y-96074724D01*
X162588791Y-95807110D01*
X162597461Y-95472336D01*
X162602449Y-95053749D01*
X162604362Y-94652730D01*
X162608527Y-93118502D01*
X162814457Y-92692328D01*
X163048315Y-92285990D01*
X163321941Y-91969954D01*
X163657128Y-91725127D01*
X164075666Y-91532418D01*
X164180900Y-91495187D01*
X164604149Y-91405589D01*
X165015143Y-91428158D01*
X165415760Y-91563304D01*
X165807878Y-91811438D01*
X165875865Y-91866593D01*
X166242534Y-92244253D01*
X166536097Y-92702383D01*
X166757455Y-93243278D01*
X166907513Y-93869236D01*
X166987172Y-94582554D01*
X166993644Y-94709554D01*
X166983146Y-95469208D01*
X166893716Y-96271794D01*
X166732371Y-97085885D01*
X166506127Y-97880060D01*
X166222000Y-98622893D01*
X166030436Y-99023626D01*
X165761458Y-99453968D01*
X165418047Y-99845051D01*
X164984816Y-100212961D01*
X164704004Y-100410384D01*
X164260635Y-100704408D01*
X164514223Y-100706432D01*
X164935031Y-100748670D01*
X165342214Y-100861037D01*
X165705508Y-101032011D01*
X165994647Y-101250070D01*
X166025767Y-101281867D01*
X166224916Y-101534946D01*
X166349748Y-101806070D01*
X166416846Y-102134718D01*
X166427122Y-102237313D01*
X166419110Y-102604138D01*
X166331000Y-102905519D01*
X166166419Y-103132455D01*
X166026152Y-103232586D01*
X165932459Y-103276756D01*
X165835074Y-103301601D01*
X165707533Y-103308261D01*
X165523375Y-103297879D01*
X165256138Y-103271593D01*
X165217418Y-103267444D01*
X164327867Y-103192930D01*
X163416435Y-103160157D01*
X162462074Y-103169312D01*
X161443738Y-103220583D01*
X160376587Y-103310568D01*
X160164598Y-103325084D01*
X159993518Y-103325099D01*
X159897750Y-103310740D01*
X159894064Y-103308787D01*
X159852157Y-103249615D01*
X159914814Y-103195209D01*
X160072955Y-103149984D01*
X160278773Y-103121763D01*
X160460761Y-103104477D01*
X160724467Y-103079252D01*
X161038490Y-103049102D01*
X161371430Y-103017037D01*
X161384465Y-103015779D01*
X163119936Y-103015779D01*
X163915462Y-103026544D01*
X164286033Y-103034201D01*
X164643000Y-103046388D01*
X164967978Y-103062005D01*
X165242580Y-103079950D01*
X165448421Y-103099123D01*
X165567115Y-103118420D01*
X165587013Y-103126682D01*
X165686598Y-103146099D01*
X165850312Y-103103387D01*
X165906160Y-103079788D01*
X166006355Y-102999442D01*
X166120099Y-102862290D01*
X166218058Y-102709826D01*
X166270899Y-102583545D01*
X166273627Y-102559970D01*
X166236353Y-102580427D01*
X166140921Y-102659094D01*
X166063642Y-102728176D01*
X165853656Y-102920516D01*
X165026617Y-102926876D01*
X164672010Y-102932397D01*
X164301868Y-102942872D01*
X163957881Y-102956848D01*
X163681739Y-102972871D01*
X163659757Y-102974507D01*
X163119936Y-103015779D01*
X161384465Y-103015779D01*
X161472061Y-103007325D01*
X161877112Y-102970141D01*
X162346999Y-102930181D01*
X162857195Y-102889255D01*
X163383168Y-102849174D01*
X163900388Y-102811749D01*
X164384326Y-102778789D01*
X164810451Y-102752105D01*
X165154234Y-102733508D01*
X165226265Y-102730256D01*
X165535929Y-102709368D01*
X165754749Y-102671958D01*
X165905246Y-102609525D01*
X166009939Y-102513572D01*
X166074158Y-102410244D01*
X166163604Y-102136367D01*
X166147490Y-101879790D01*
X166033488Y-101648140D01*
X165829270Y-101449045D01*
X165542511Y-101290133D01*
X165180883Y-101179033D01*
X164781453Y-101125132D01*
X164477279Y-101102910D01*
X164269759Y-101079983D01*
X164141940Y-101052616D01*
X164076868Y-101017075D01*
X164057592Y-100969626D01*
X164057520Y-100965658D01*
X164018169Y-100903290D01*
X164455283Y-100903290D01*
X164483694Y-100931701D01*
X164512106Y-100903290D01*
X164625753Y-100903290D01*
X164654164Y-100931701D01*
X164682576Y-100903290D01*
X164654164Y-100874878D01*
X164625753Y-100903290D01*
X164512106Y-100903290D01*
X164483694Y-100874878D01*
X164455283Y-100903290D01*
X164018169Y-100903290D01*
X164009922Y-100890220D01*
X163943873Y-100858413D01*
X163844188Y-100803762D01*
X163851332Y-100723308D01*
X163962584Y-100621484D01*
X164156961Y-100511556D01*
X164712266Y-100187669D01*
X165205456Y-99793988D01*
X165620452Y-99345523D01*
X165941176Y-98857283D01*
X165952909Y-98835050D01*
X166212288Y-98264706D01*
X166434752Y-97628498D01*
X166615506Y-96951977D01*
X166749753Y-96260695D01*
X166832697Y-95580206D01*
X166859542Y-94936060D01*
X166825493Y-94353811D01*
X166812333Y-94256246D01*
X166689696Y-93624501D01*
X166521569Y-93088547D01*
X166303358Y-92638145D01*
X166030468Y-92263051D01*
X165826756Y-92059337D01*
X165457722Y-91792472D01*
X165077825Y-91638266D01*
X164683315Y-91596234D01*
X164270440Y-91665893D01*
X163904616Y-91811390D01*
X163515796Y-92054463D01*
X163213013Y-92362327D01*
X162982840Y-92749864D01*
X162917631Y-92905296D01*
X162850801Y-93123344D01*
X162799663Y-93373863D01*
X162766490Y-93629774D01*
X162753555Y-93863998D01*
X162763132Y-94049456D01*
X162797493Y-94159068D01*
X162811296Y-94172136D01*
X162846803Y-94248379D01*
X162878671Y-94417648D01*
X162905920Y-94659354D01*
X162927571Y-94952907D01*
X162942646Y-95277718D01*
X162950164Y-95613198D01*
X162949147Y-95938756D01*
X162938614Y-96233804D01*
X162920010Y-96457794D01*
X162818964Y-97015073D01*
X162647222Y-97527618D01*
X162396807Y-98007831D01*
X162059743Y-98468113D01*
X161628056Y-98920862D01*
X161093770Y-99378481D01*
X160989064Y-99460038D01*
X160627967Y-99729402D01*
X160319004Y-99938260D01*
X160031883Y-100104344D01*
X159736315Y-100245389D01*
X159450340Y-100360918D01*
X158968263Y-100544036D01*
X159295927Y-101220867D01*
X159421831Y-101471521D01*
X159535336Y-101680207D01*
X159625425Y-101827870D01*
X159681078Y-101895460D01*
X159687351Y-101897697D01*
X159727139Y-101938587D01*
X159720264Y-101978081D01*
X159722728Y-102069768D01*
X159759212Y-102231309D01*
X159818662Y-102418462D01*
X159891288Y-102610725D01*
X159951278Y-102721436D01*
X160022186Y-102776772D01*
X160127570Y-102802909D01*
X160170162Y-102809071D01*
X160392419Y-102839684D01*
X160193538Y-102887239D01*
X160050395Y-102934895D01*
X159961123Y-102989136D01*
X159955735Y-102996057D01*
X159886233Y-103024906D01*
X159781757Y-102985042D01*
X159699920Y-102956335D01*
X159575815Y-102941701D01*
X159390727Y-102940889D01*
X159125941Y-102953649D01*
X158854683Y-102972663D01*
X158530979Y-102995923D01*
X158214919Y-103016488D01*
X157940231Y-103032299D01*
X157740646Y-103041296D01*
X157721726Y-103041864D01*
X157478048Y-103065915D01*
X157230886Y-103117115D01*
X157113617Y-103154400D01*
X156745492Y-103282696D01*
X156359480Y-103387380D01*
X155940255Y-103470442D01*
X155472493Y-103533869D01*
X154940869Y-103579649D01*
X154330058Y-103609770D01*
X153624735Y-103626219D01*
X153461543Y-103628139D01*
X152977241Y-103634162D01*
X152444881Y-103642747D01*
X151902575Y-103653150D01*
X151388435Y-103664625D01*
X150940572Y-103676428D01*
X150846111Y-103679260D01*
X150355805Y-103691093D01*
X149975977Y-103692814D01*
X149703904Y-103684374D01*
X149536864Y-103665722D01*
X149496558Y-103654514D01*
X149401534Y-103604690D01*
X149355393Y-103529215D01*
X149341002Y-103391071D01*
X149340294Y-103316897D01*
X149329504Y-103148884D01*
X149302069Y-103032520D01*
X149283471Y-103005750D01*
X149252915Y-102933105D01*
X149235478Y-102779568D01*
X149229922Y-102572156D01*
X149235010Y-102337886D01*
X149249506Y-102103777D01*
X149272172Y-101896846D01*
X149301772Y-101744109D01*
X149337068Y-101672586D01*
X149344609Y-101670404D01*
X149380397Y-101720148D01*
X149406739Y-101841289D01*
X149408233Y-101855079D01*
X149417281Y-101867897D01*
X149430165Y-101781576D01*
X149445482Y-101610505D01*
X149461830Y-101369071D01*
X149470524Y-101215818D01*
X149544735Y-100132847D01*
X149655062Y-98967798D01*
X149798558Y-97745314D01*
X149972275Y-96490038D01*
X150173267Y-95226615D01*
X150217700Y-94968110D01*
X150286917Y-94569320D01*
X150350255Y-94202014D01*
X150404888Y-93882757D01*
X150447994Y-93628117D01*
X150476750Y-93454658D01*
X150487833Y-93383160D01*
X150481948Y-93298011D01*
X150421769Y-93232383D01*
X150283437Y-93164494D01*
X150221055Y-93139623D01*
X150109763Y-93103118D01*
X150675641Y-93103118D01*
X150902934Y-93177472D01*
X151072783Y-93212152D01*
X151322711Y-93236620D01*
X151619387Y-93248007D01*
X151726871Y-93248379D01*
X152323516Y-93244932D01*
X151783694Y-93199598D01*
X151507501Y-93176216D01*
X151237472Y-93153038D01*
X151018772Y-93133951D01*
X150959757Y-93128691D01*
X150675641Y-93103118D01*
X150109763Y-93103118D01*
X150043009Y-93081222D01*
X149868118Y-93054110D01*
X149652242Y-93053817D01*
X149482352Y-93064839D01*
X149194772Y-93077210D01*
X148941403Y-93059823D01*
X148663162Y-93007234D01*
X148544768Y-92978444D01*
X147930819Y-92805445D01*
X147346426Y-92606644D01*
X146854276Y-92405569D01*
X146659571Y-92323118D01*
X146547785Y-92292020D01*
X146502402Y-92308600D01*
X146499131Y-92326540D01*
X146467881Y-92401607D01*
X146384424Y-92391892D01*
X146264203Y-92303932D01*
X146149374Y-92178448D01*
X145999815Y-92016257D01*
X145837747Y-91874921D01*
X145777345Y-91832874D01*
X145641020Y-91722778D01*
X145591542Y-91623373D01*
X145635818Y-91551989D01*
X145660988Y-91541011D01*
X145667514Y-91489135D01*
X145593384Y-91373585D01*
X145490518Y-91253429D01*
X145328208Y-91061786D01*
X145255254Y-90937624D01*
X145270830Y-90879273D01*
X145302381Y-90873983D01*
X145309760Y-90825319D01*
X145281553Y-90696242D01*
X145223704Y-90512127D01*
X145205868Y-90462014D01*
X145129522Y-90228770D01*
X145083294Y-90014436D01*
X145060211Y-89774183D01*
X145060018Y-89765929D01*
X145313326Y-89765929D01*
X145323496Y-89913277D01*
X145357305Y-90112772D01*
X145408123Y-90340782D01*
X145469318Y-90573672D01*
X145534259Y-90787808D01*
X145596313Y-90959557D01*
X145648849Y-91065283D01*
X145683129Y-91083870D01*
X145679231Y-91022570D01*
X145647697Y-90883258D01*
X145595895Y-90697956D01*
X145520069Y-90429962D01*
X145443177Y-90133758D01*
X145402835Y-89964811D01*
X145356941Y-89782620D01*
X145327281Y-89712777D01*
X145313799Y-89755158D01*
X145313326Y-89765929D01*
X145060018Y-89765929D01*
X145054700Y-89538636D01*
X145305842Y-89538636D01*
X145334254Y-89567048D01*
X145362665Y-89538636D01*
X145334254Y-89510225D01*
X145305842Y-89538636D01*
X145054700Y-89538636D01*
X145053370Y-89481813D01*
X145055796Y-89203196D01*
X145070046Y-89002432D01*
X145099415Y-88856757D01*
X145249019Y-88856757D01*
X145277430Y-88885169D01*
X145305842Y-88856757D01*
X145277430Y-88828346D01*
X145249019Y-88856757D01*
X145099415Y-88856757D01*
X145102011Y-88843883D01*
X145157586Y-88691910D01*
X145199003Y-88601052D01*
X145314909Y-88384079D01*
X145449193Y-88170992D01*
X145523186Y-88070451D01*
X145635139Y-87918212D01*
X145715903Y-87784030D01*
X145734592Y-87740589D01*
X145790829Y-87665237D01*
X145857034Y-87661833D01*
X145886961Y-87725611D01*
G37*
D12*
%TO.C,REF\u002A\u002A*%
X118094200Y-76393600D02*
X118094200Y-75743600D01*
X118744200Y-76393600D02*
X118094200Y-76393600D01*
X124664200Y-69173600D02*
X125314200Y-69173600D01*
X125314200Y-69173600D02*
X125314200Y-69823600D01*
X125314200Y-75743600D02*
X125314200Y-76393600D01*
X125314200Y-76393600D02*
X124664200Y-76393600D01*
%TD*%
M02*
