%TF.GenerationSoftware,KiCad,Pcbnew,9.0.7*%
%TF.CreationDate,2026-04-03T11:36:41-05:00*%
%TF.ProjectId,SaxCard,53617843-6172-4642-9e6b-696361645f70,rev?*%
%TF.SameCoordinates,Original*%
%TF.FileFunction,Paste,Top*%
%TF.FilePolarity,Positive*%
%FSLAX46Y46*%
G04 Gerber Fmt 4.6, Leading zero omitted, Abs format (unit mm)*
G04 Created by KiCad (PCBNEW 9.0.7) date 2026-04-03 11:36:41*
%MOMM*%
%LPD*%
G01*
G04 APERTURE LIST*
G04 Aperture macros list*
%AMRoundRect*
0 Rectangle with rounded corners*
0 $1 Rounding radius*
0 $2 $3 $4 $5 $6 $7 $8 $9 X,Y pos of 4 corners*
0 Add a 4 corners polygon primitive as box body*
4,1,4,$2,$3,$4,$5,$6,$7,$8,$9,$2,$3,0*
0 Add four circle primitives for the rounded corners*
1,1,$1+$1,$2,$3*
1,1,$1+$1,$4,$5*
1,1,$1+$1,$6,$7*
1,1,$1+$1,$8,$9*
0 Add four rect primitives between the rounded corners*
20,1,$1+$1,$2,$3,$4,$5,0*
20,1,$1+$1,$4,$5,$6,$7,0*
20,1,$1+$1,$6,$7,$8,$9,0*
20,1,$1+$1,$8,$9,$2,$3,0*%
G04 Aperture macros list end*
%ADD10C,0.250000*%
%ADD11C,0.300000*%
%ADD12RoundRect,0.249999X-0.395001X-0.395001X0.395001X-0.395001X0.395001X0.395001X-0.395001X0.395001X0*%
%ADD13RoundRect,0.050000X-0.387500X-0.050000X0.387500X-0.050000X0.387500X0.050000X-0.387500X0.050000X0*%
%ADD14RoundRect,0.050000X-0.050000X-0.387500X0.050000X-0.387500X0.050000X0.387500X-0.050000X0.387500X0*%
G04 APERTURE END LIST*
D10*
G36*
X81090655Y-75876600D02*
G01*
X80195810Y-73928305D01*
X80195810Y-75466272D01*
X80203231Y-75621777D01*
X80220507Y-75708425D01*
X80241911Y-75751120D01*
X80289343Y-75791995D01*
X80354034Y-75818106D01*
X80441732Y-75827751D01*
X80523706Y-75827751D01*
X80523706Y-75876600D01*
X79717552Y-75876600D01*
X79717552Y-75827751D01*
X79799526Y-75827751D01*
X79892415Y-75815964D01*
X79959647Y-75783947D01*
X80007896Y-75732802D01*
X80033189Y-75655196D01*
X80045448Y-75466272D01*
X80045448Y-73971505D01*
X80035219Y-73819092D01*
X80011254Y-73734132D01*
X79978670Y-73686839D01*
X79923327Y-73645594D01*
X79848825Y-73620555D01*
X79717552Y-73610026D01*
X79717552Y-73561177D01*
X80373344Y-73561177D01*
X81213692Y-75363995D01*
X82040149Y-73561177D01*
X82695941Y-73561177D01*
X82695941Y-73610026D01*
X82615646Y-73610026D01*
X82521617Y-73621860D01*
X82453895Y-73653919D01*
X82405597Y-73704975D01*
X82380304Y-73782581D01*
X82368045Y-73971505D01*
X82368045Y-75466272D01*
X82375716Y-75621607D01*
X82393593Y-75708282D01*
X82415825Y-75751120D01*
X82463257Y-75791995D01*
X82527948Y-75818106D01*
X82615646Y-75827751D01*
X82695941Y-75827751D01*
X82695941Y-75876600D01*
X81712253Y-75876600D01*
X81712253Y-75827751D01*
X81794227Y-75827751D01*
X81888195Y-75815874D01*
X81955282Y-75783799D01*
X82002597Y-75732802D01*
X82027890Y-75655196D01*
X82040149Y-75466272D01*
X82040149Y-73928305D01*
X81146983Y-75876600D01*
X81090655Y-75876600D01*
G37*
G36*
X82791654Y-74303676D02*
G01*
X83520871Y-74303676D01*
X83520871Y-74352524D01*
X83484998Y-74352524D01*
X83414842Y-74362189D01*
X83369746Y-74387481D01*
X83341018Y-74426692D01*
X83331430Y-74474493D01*
X83343140Y-74549448D01*
X83387759Y-74668208D01*
X83768625Y-75461539D01*
X84118656Y-74592951D01*
X84140576Y-74517903D01*
X84147659Y-74445489D01*
X84135753Y-74396183D01*
X84093010Y-74364431D01*
X83990581Y-74352524D01*
X83990581Y-74303676D01*
X84499522Y-74303676D01*
X84499522Y-74352524D01*
X84440674Y-74364162D01*
X84402130Y-74381223D01*
X84369126Y-74409132D01*
X84327025Y-74461975D01*
X84268865Y-74600125D01*
X83632002Y-76167554D01*
X83560670Y-76313172D01*
X83479987Y-76426365D01*
X83390354Y-76512242D01*
X83286251Y-76580028D01*
X83191231Y-76617176D01*
X83102453Y-76628867D01*
X83009141Y-76613745D01*
X82936826Y-76570554D01*
X82887563Y-76506667D01*
X82871949Y-76436679D01*
X82884022Y-76370812D01*
X82918813Y-76320816D01*
X82972521Y-76288780D01*
X83047803Y-76277158D01*
X83108430Y-76284531D01*
X83201524Y-76311962D01*
X83287009Y-76335776D01*
X83337209Y-76324260D01*
X83398750Y-76283722D01*
X83453868Y-76216506D01*
X83520871Y-76082069D01*
X83632002Y-75812486D01*
X83070091Y-74631724D01*
X82988117Y-74490216D01*
X82918049Y-74403968D01*
X82871829Y-74378452D01*
X82791654Y-74352524D01*
X82791654Y-74303676D01*
G37*
G36*
X87500045Y-73512329D02*
G01*
X87553015Y-74303676D01*
X87500045Y-74303676D01*
X87435999Y-74124057D01*
X87363564Y-73981936D01*
X87283986Y-73871311D01*
X87197642Y-73787255D01*
X87059602Y-73700393D01*
X86904106Y-73647759D01*
X86726406Y-73629565D01*
X86576136Y-73642851D01*
X86438092Y-73681855D01*
X86309667Y-73746649D01*
X86198293Y-73836169D01*
X86100703Y-73958462D01*
X86016881Y-74119883D01*
X85960166Y-74294046D01*
X85923412Y-74504297D01*
X85910177Y-74757204D01*
X85922267Y-74964925D01*
X85956578Y-75145286D01*
X86010927Y-75302171D01*
X86090597Y-75445751D01*
X86191138Y-75562599D01*
X86313941Y-75655865D01*
X86453406Y-75723535D01*
X86606401Y-75764738D01*
X86776018Y-75778902D01*
X86923810Y-75767688D01*
X87055521Y-75735315D01*
X87173828Y-75682732D01*
X87280291Y-75607942D01*
X87405428Y-75485234D01*
X87553015Y-75300186D01*
X87605986Y-75319726D01*
X87477131Y-75518756D01*
X87341706Y-75669597D01*
X87199474Y-75779666D01*
X87038927Y-75859185D01*
X86856646Y-75908317D01*
X86647943Y-75925448D01*
X86420767Y-75907212D01*
X86222407Y-75854949D01*
X86047848Y-75770506D01*
X85893298Y-75653227D01*
X85756457Y-75500008D01*
X85654157Y-75336285D01*
X85580921Y-75159240D01*
X85536145Y-74966381D01*
X85520762Y-74754609D01*
X85538393Y-74528266D01*
X85590251Y-74317722D01*
X85676162Y-74119883D01*
X85793970Y-73939965D01*
X85935940Y-73791526D01*
X86103892Y-73671545D01*
X86290911Y-73583177D01*
X86488315Y-73530242D01*
X86699234Y-73512329D01*
X86863924Y-73525328D01*
X87028390Y-73564722D01*
X87194436Y-73632008D01*
X87262171Y-73661636D01*
X87296866Y-73668644D01*
X87339939Y-73660764D01*
X87377161Y-73637045D01*
X87414106Y-73585504D01*
X87440358Y-73512329D01*
X87500045Y-73512329D01*
G37*
G36*
X88293834Y-74264597D02*
G01*
X88293834Y-74619665D01*
X88408648Y-74443564D01*
X88512094Y-74337210D01*
X88606693Y-74281688D01*
X88696835Y-74264597D01*
X88783788Y-74279468D01*
X88852235Y-74322452D01*
X88898795Y-74385618D01*
X88913753Y-74456022D01*
X88902525Y-74518349D01*
X88869332Y-74569748D01*
X88820348Y-74604810D01*
X88763544Y-74616306D01*
X88704151Y-74603382D01*
X88629363Y-74557688D01*
X88557802Y-74510182D01*
X88519301Y-74499070D01*
X88489443Y-74506527D01*
X88452745Y-74533111D01*
X88380325Y-74617219D01*
X88293834Y-74763005D01*
X88293834Y-75524890D01*
X88303195Y-75639246D01*
X88326349Y-75710362D01*
X88355410Y-75750545D01*
X88404812Y-75790809D01*
X88468729Y-75817376D01*
X88567081Y-75827751D01*
X88567081Y-75876600D01*
X87766117Y-75876600D01*
X87766117Y-75827751D01*
X87876536Y-75816500D01*
X87943804Y-75788519D01*
X87979108Y-75752988D01*
X88003491Y-75697692D01*
X88012039Y-75524890D01*
X88012039Y-74919168D01*
X88008085Y-74659441D01*
X88000896Y-74577228D01*
X87984168Y-74528114D01*
X87959985Y-74498001D01*
X87927089Y-74479786D01*
X87885644Y-74473424D01*
X87831586Y-74479349D01*
X87766117Y-74499070D01*
X87749020Y-74450221D01*
X88222088Y-74264597D01*
X88293834Y-74264597D01*
G37*
G36*
X89872958Y-74275973D02*
G01*
X89986052Y-74308749D01*
X90086422Y-74362208D01*
X90176184Y-74437399D01*
X90248574Y-74528544D01*
X90301040Y-74633978D01*
X90333793Y-74756451D01*
X90345322Y-74899628D01*
X89264242Y-74899628D01*
X89275549Y-75073827D01*
X89308893Y-75219673D01*
X89361785Y-75341978D01*
X89433380Y-75444595D01*
X89525804Y-75533662D01*
X89622313Y-75594338D01*
X89724469Y-75630087D01*
X89834702Y-75642126D01*
X89934528Y-75632698D01*
X90022850Y-75605385D01*
X90101995Y-75560458D01*
X90168879Y-75498625D01*
X90232503Y-75407860D01*
X90292352Y-75280647D01*
X90345322Y-75313620D01*
X90306880Y-75461650D01*
X90238313Y-75601507D01*
X90136952Y-75735397D01*
X90044409Y-75819165D01*
X89942992Y-75877791D01*
X89830750Y-75913253D01*
X89704795Y-75925448D01*
X89568912Y-75911718D01*
X89444966Y-75871341D01*
X89330062Y-75803725D01*
X89222263Y-75705935D01*
X89137066Y-75591001D01*
X89074730Y-75456889D01*
X89035534Y-75299948D01*
X89021678Y-75115478D01*
X89036198Y-74914659D01*
X89065928Y-74792161D01*
X89264242Y-74792161D01*
X89988269Y-74792161D01*
X89973105Y-74652089D01*
X89952396Y-74578601D01*
X89898856Y-74492177D01*
X89825084Y-74427171D01*
X89737738Y-74385535D01*
X89648466Y-74372064D01*
X89558350Y-74384104D01*
X89474629Y-74420278D01*
X89394759Y-74483194D01*
X89332517Y-74563550D01*
X89288589Y-74664830D01*
X89264242Y-74792161D01*
X89065928Y-74792161D01*
X89076894Y-74746979D01*
X89140909Y-74606700D01*
X89227453Y-74489300D01*
X89337715Y-74390411D01*
X89458837Y-74321071D01*
X89593172Y-74279059D01*
X89744179Y-74264597D01*
X89872958Y-74275973D01*
G37*
G36*
X91339540Y-74273322D02*
G01*
X91451898Y-74297441D01*
X91543333Y-74334664D01*
X91604189Y-74376223D01*
X91653465Y-74430794D01*
X91692016Y-74500291D01*
X91712852Y-74592866D01*
X91722699Y-74801015D01*
X91722699Y-75332243D01*
X91731247Y-75606406D01*
X91743848Y-75651470D01*
X91759335Y-75673878D01*
X91804673Y-75690975D01*
X91852605Y-75679068D01*
X91990908Y-75554199D01*
X91990908Y-75649912D01*
X91883967Y-75769592D01*
X91789294Y-75844025D01*
X91704186Y-75883806D01*
X91625307Y-75896139D01*
X91549310Y-75881419D01*
X91492042Y-75838742D01*
X91456681Y-75768892D01*
X91440904Y-75642890D01*
X91219600Y-75810910D01*
X91138653Y-75862403D01*
X91043725Y-75894977D01*
X90942343Y-75905909D01*
X90838836Y-75893313D01*
X90750968Y-75856994D01*
X90675050Y-75796457D01*
X90617765Y-75717702D01*
X90582492Y-75623065D01*
X90570025Y-75508098D01*
X90580392Y-75424598D01*
X90856858Y-75424598D01*
X90865389Y-75501070D01*
X90889887Y-75566118D01*
X90930283Y-75622282D01*
X90983132Y-75666785D01*
X91038899Y-75692265D01*
X91099422Y-75700745D01*
X91181987Y-75686711D01*
X91292483Y-75636822D01*
X91440904Y-75535423D01*
X91440904Y-74958246D01*
X91107970Y-75098839D01*
X90986625Y-75177645D01*
X90914866Y-75250880D01*
X90871210Y-75334448D01*
X90856858Y-75424598D01*
X90580392Y-75424598D01*
X90583335Y-75400893D01*
X90621316Y-75312551D01*
X90674734Y-75242708D01*
X90753782Y-75171006D01*
X90864490Y-75097007D01*
X91068818Y-74996277D01*
X91440904Y-74850780D01*
X91440904Y-74788040D01*
X91430272Y-74629116D01*
X91403606Y-74525387D01*
X91366562Y-74460907D01*
X91311419Y-74412681D01*
X91241002Y-74382805D01*
X91150560Y-74372064D01*
X91051727Y-74387569D01*
X90979895Y-74430682D01*
X90930644Y-74495012D01*
X90915018Y-74565473D01*
X90918376Y-74665460D01*
X90907538Y-74738300D01*
X90878229Y-74788192D01*
X90832564Y-74820204D01*
X90773205Y-74831240D01*
X90715456Y-74819845D01*
X90669859Y-74786208D01*
X90640430Y-74734978D01*
X90629712Y-74663171D01*
X90645078Y-74570349D01*
X90692828Y-74480215D01*
X90779921Y-74389466D01*
X90886986Y-74323048D01*
X91024794Y-74280240D01*
X91201851Y-74264597D01*
X91339540Y-74273322D01*
G37*
G36*
X92562284Y-73785881D02*
G01*
X92562284Y-74303676D01*
X92927732Y-74303676D01*
X92927732Y-74411142D01*
X92562284Y-74411142D01*
X92562284Y-75439405D01*
X92575632Y-75579269D01*
X92605789Y-75647164D01*
X92655687Y-75687395D01*
X92717683Y-75700745D01*
X92772374Y-75692333D01*
X92826982Y-75666093D01*
X92873192Y-75624187D01*
X92908956Y-75563969D01*
X92975512Y-75563969D01*
X92927701Y-75672455D01*
X92871186Y-75756439D01*
X92806374Y-75819966D01*
X92730262Y-75869019D01*
X92655736Y-75896853D01*
X92581060Y-75905909D01*
X92504309Y-75895124D01*
X92427339Y-75861640D01*
X92362256Y-75808073D01*
X92316361Y-75734939D01*
X92291061Y-75640886D01*
X92280488Y-75480621D01*
X92280488Y-74411142D01*
X92032887Y-74411142D01*
X92032887Y-74360462D01*
X92124536Y-74313236D01*
X92224923Y-74236356D01*
X92316745Y-74141097D01*
X92400015Y-74024933D01*
X92509313Y-73785881D01*
X92562284Y-73785881D01*
G37*
G36*
X93478042Y-73443941D02*
G01*
X93544548Y-73456424D01*
X93600163Y-73493705D01*
X93637945Y-73548586D01*
X93650538Y-73613995D01*
X93637968Y-73679692D01*
X93600163Y-73735353D01*
X93544489Y-73773231D01*
X93478042Y-73785881D01*
X93411437Y-73773260D01*
X93355004Y-73735353D01*
X93316601Y-73679633D01*
X93303866Y-73613995D01*
X93316458Y-73548586D01*
X93354241Y-73493705D01*
X93410090Y-73456498D01*
X93478042Y-73443941D01*
G37*
G36*
X93619702Y-74264597D02*
G01*
X93619702Y-75524890D01*
X93626524Y-75664534D01*
X93641074Y-75727764D01*
X93668027Y-75772321D01*
X93704271Y-75803021D01*
X93755228Y-75820141D01*
X93857076Y-75827751D01*
X93857076Y-75876600D01*
X93097175Y-75876600D01*
X93097175Y-75827751D01*
X93201764Y-75820507D01*
X93250743Y-75804701D01*
X93285087Y-75775288D01*
X93313178Y-75728527D01*
X93328965Y-75663178D01*
X93336228Y-75524890D01*
X93336228Y-74919168D01*
X93331184Y-74675865D01*
X93320810Y-74574175D01*
X93304056Y-74522941D01*
X93283258Y-74495254D01*
X93254173Y-74479281D01*
X93213191Y-74473424D01*
X93163529Y-74479138D01*
X93097175Y-74499070D01*
X93073209Y-74450221D01*
X93544598Y-74264597D01*
X93619702Y-74264597D01*
G37*
G36*
X94989053Y-74282109D02*
G01*
X95138534Y-74332645D01*
X95270423Y-74415834D01*
X95387715Y-74534790D01*
X95467920Y-74655022D01*
X95524570Y-74782304D01*
X95558790Y-74918293D01*
X95570439Y-75065103D01*
X95559656Y-75203297D01*
X95526643Y-75344740D01*
X95469689Y-75491001D01*
X95391917Y-75625978D01*
X95299606Y-75733111D01*
X95192168Y-75815997D01*
X95070393Y-75876598D01*
X94939957Y-75913048D01*
X94798479Y-75925448D01*
X94628318Y-75907254D01*
X94480943Y-75854740D01*
X94351357Y-75768001D01*
X94236568Y-75643195D01*
X94159234Y-75519950D01*
X94104689Y-75390975D01*
X94071846Y-75254783D01*
X94060713Y-75109524D01*
X94072119Y-74969543D01*
X94378382Y-74969543D01*
X94394525Y-75197045D01*
X94440522Y-75394550D01*
X94514089Y-75566869D01*
X94593025Y-75683349D01*
X94677783Y-75759535D01*
X94769600Y-75803299D01*
X94871905Y-75817981D01*
X94975664Y-75802665D01*
X95065439Y-75757545D01*
X95145152Y-75679526D01*
X95199396Y-75580127D01*
X95237734Y-75427875D01*
X95252771Y-75203253D01*
X95239881Y-74989652D01*
X95203900Y-74811214D01*
X95147874Y-74662331D01*
X95073405Y-74538301D01*
X94982835Y-74444143D01*
X94881306Y-74390254D01*
X94764285Y-74372064D01*
X94675392Y-74385174D01*
X94582325Y-74426713D01*
X94528187Y-74469306D01*
X94478936Y-74531514D01*
X94434710Y-74617986D01*
X94393881Y-74765677D01*
X94378382Y-74969543D01*
X94072119Y-74969543D01*
X94072230Y-74968182D01*
X94107270Y-74825903D01*
X94167417Y-74681031D01*
X94248729Y-74547805D01*
X94342188Y-74444271D01*
X94448296Y-74366415D01*
X94567801Y-74309464D01*
X94690194Y-74275831D01*
X94817256Y-74264597D01*
X94989053Y-74282109D01*
G37*
G36*
X96256915Y-74591577D02*
G01*
X96409095Y-74433909D01*
X96544665Y-74334789D01*
X96667270Y-74281285D01*
X96781273Y-74264597D01*
X96902188Y-74281196D01*
X97001550Y-74328863D01*
X97055936Y-74377538D01*
X97105014Y-74446436D01*
X97148401Y-74540286D01*
X97174862Y-74656934D01*
X97185953Y-74855359D01*
X97185953Y-75524890D01*
X97193487Y-75666463D01*
X97209920Y-75733870D01*
X97234413Y-75773240D01*
X97270522Y-75803021D01*
X97321675Y-75820115D01*
X97425006Y-75827751D01*
X97425006Y-75876600D01*
X96651367Y-75876600D01*
X96651367Y-75827751D01*
X96683882Y-75827751D01*
X96783562Y-75817482D01*
X96836686Y-75793252D01*
X96872715Y-75752001D01*
X96897289Y-75691433D01*
X96904158Y-75524890D01*
X96904158Y-74879478D01*
X96896431Y-74735360D01*
X96876583Y-74634783D01*
X96848593Y-74567000D01*
X96804197Y-74513794D01*
X96743708Y-74481458D01*
X96661594Y-74469761D01*
X96566857Y-74481906D01*
X96469456Y-74519818D01*
X96366814Y-74587832D01*
X96256915Y-74692785D01*
X96256915Y-75524890D01*
X96263300Y-75674220D01*
X96275691Y-75728527D01*
X96304803Y-75773877D01*
X96341484Y-75803937D01*
X96394369Y-75820179D01*
X96511385Y-75827751D01*
X96511385Y-75876600D01*
X95737746Y-75876600D01*
X95737746Y-75827751D01*
X95771940Y-75827751D01*
X95848762Y-75819392D01*
X95900093Y-75797676D01*
X95933293Y-75764858D01*
X95962156Y-75686661D01*
X95975119Y-75524890D01*
X95975119Y-74938707D01*
X95970679Y-74673664D01*
X95962297Y-74582418D01*
X95944363Y-74525362D01*
X95922912Y-74496017D01*
X95893121Y-74479437D01*
X95852082Y-74473424D01*
X95802625Y-74479174D01*
X95737746Y-74499070D01*
X95712100Y-74450221D01*
X96183489Y-74264597D01*
X96256915Y-74264597D01*
X96256915Y-74591577D01*
G37*
G36*
X98560735Y-74264597D02*
G01*
X98560735Y-74801931D01*
X98504407Y-74801931D01*
X98450950Y-74637987D01*
X98394894Y-74529539D01*
X98337864Y-74462128D01*
X98265612Y-74412905D01*
X98180521Y-74382681D01*
X98079119Y-74372064D01*
X97968476Y-74388622D01*
X97886167Y-74434803D01*
X97829969Y-74503115D01*
X97812741Y-74573869D01*
X97826695Y-74662811D01*
X97867391Y-74736596D01*
X97937619Y-74801141D01*
X98082630Y-74884058D01*
X98331910Y-75004347D01*
X98467679Y-75083993D01*
X98564023Y-75167645D01*
X98628461Y-75255396D01*
X98665982Y-75348728D01*
X98678582Y-75450396D01*
X98668131Y-75553743D01*
X98637948Y-75643901D01*
X98588254Y-75723653D01*
X98517229Y-75794778D01*
X98404144Y-75867992D01*
X98284722Y-75910993D01*
X98156055Y-75925448D01*
X98008540Y-75913580D01*
X97828159Y-75874157D01*
X97735958Y-75857060D01*
X97702247Y-75868222D01*
X97674439Y-75905909D01*
X97618110Y-75905909D01*
X97618110Y-75349035D01*
X97674439Y-75349035D01*
X97718691Y-75498262D01*
X97780035Y-75613073D01*
X97857163Y-75699981D01*
X97952323Y-75766397D01*
X98052194Y-75805051D01*
X98159414Y-75817981D01*
X98235312Y-75809892D01*
X98298403Y-75786933D01*
X98351450Y-75749593D01*
X98407435Y-75673711D01*
X98425791Y-75584882D01*
X98416417Y-75510655D01*
X98389073Y-75446138D01*
X98342901Y-75388877D01*
X98236769Y-75310283D01*
X98012563Y-75189514D01*
X97849159Y-75101293D01*
X97746585Y-75028868D01*
X97688025Y-74969543D01*
X97646309Y-74900445D01*
X97620392Y-74818752D01*
X97611241Y-74721331D01*
X97626348Y-74596997D01*
X97670175Y-74489785D01*
X97743590Y-74395572D01*
X97838873Y-74323686D01*
X97951351Y-74279929D01*
X98085988Y-74264597D01*
X98182088Y-74273864D01*
X98309776Y-74305965D01*
X98425791Y-74332985D01*
X98468534Y-74320467D01*
X98504407Y-74264597D01*
X98560735Y-74264597D01*
G37*
D11*
G36*
X82001624Y-101842377D02*
G01*
X81964346Y-102132354D01*
X81877243Y-102132354D01*
X81838958Y-101842377D01*
X81838958Y-101593066D01*
X82001624Y-101593066D01*
X82001624Y-101842377D01*
G37*
G36*
X81630680Y-101842377D02*
G01*
X81592395Y-102132354D01*
X81505292Y-102132354D01*
X81467007Y-101842377D01*
X81467007Y-101593066D01*
X81630680Y-101593066D01*
X81630680Y-101842377D01*
G37*
G36*
X83062798Y-101569619D02*
G01*
X83105648Y-101577797D01*
X83141658Y-101602317D01*
X83166211Y-101638224D01*
X83174356Y-101680444D01*
X83166222Y-101724441D01*
X83142207Y-101760220D01*
X83106479Y-101784251D01*
X83062798Y-101792368D01*
X83022522Y-101784155D01*
X82986411Y-101758754D01*
X82961420Y-101722030D01*
X82953255Y-101680444D01*
X82961433Y-101639031D01*
X82986411Y-101602775D01*
X83022487Y-101577735D01*
X83062798Y-101569619D01*
G37*
G36*
X83143581Y-103046800D02*
G01*
X82977893Y-103046800D01*
X82977893Y-102120631D01*
X82663278Y-102120631D01*
X82663278Y-101974085D01*
X83143581Y-101974085D01*
X83143581Y-103046800D01*
G37*
G36*
X85938391Y-102992761D02*
G01*
X85827340Y-103036697D01*
X85721093Y-103062017D01*
X85618372Y-103070247D01*
X85525814Y-103060878D01*
X85455792Y-103035381D01*
X85402967Y-102995599D01*
X85364173Y-102940452D01*
X85338939Y-102866138D01*
X85329585Y-102766714D01*
X85329585Y-102120631D01*
X85124604Y-102120631D01*
X85124604Y-101974085D01*
X85329585Y-101974085D01*
X85329585Y-101680993D01*
X85491152Y-101680993D01*
X85491152Y-101974085D01*
X85853853Y-101974085D01*
X85853853Y-102120631D01*
X85491152Y-102120631D01*
X85491152Y-102723391D01*
X85496478Y-102785810D01*
X85510994Y-102834094D01*
X85533375Y-102871311D01*
X85564747Y-102900298D01*
X85602312Y-102917643D01*
X85648047Y-102923701D01*
X85733850Y-102917235D01*
X85820690Y-102897548D01*
X85909448Y-102863801D01*
X85938391Y-102992761D01*
G37*
G36*
X87203813Y-102004860D02*
G01*
X87136952Y-102162488D01*
X87032140Y-102129978D01*
X86953037Y-102120631D01*
X86884741Y-102130152D01*
X86816017Y-102159740D01*
X86752947Y-102206063D01*
X86692552Y-102271573D01*
X86643509Y-102338078D01*
X86636223Y-102352173D01*
X86636223Y-103046800D01*
X86471543Y-103046800D01*
X86471543Y-101974085D01*
X86636223Y-101974085D01*
X86636223Y-102182180D01*
X86693290Y-102093090D01*
X86754050Y-102028849D01*
X86818745Y-101985170D01*
X86888519Y-101959376D01*
X86965310Y-101950638D01*
X87045197Y-101956568D01*
X87124438Y-101974465D01*
X87203813Y-102004860D01*
G37*
G36*
X88494789Y-101974085D02*
G01*
X88088583Y-103044876D01*
X88022841Y-103200871D01*
X87964507Y-103306751D01*
X87913003Y-103374512D01*
X87850192Y-103428186D01*
X87784541Y-103458733D01*
X87713884Y-103468851D01*
X87615715Y-103459753D01*
X87515772Y-103431848D01*
X87543616Y-103298034D01*
X87622236Y-103316741D01*
X87685124Y-103322305D01*
X87738580Y-103314958D01*
X87784384Y-103293517D01*
X87824526Y-103257001D01*
X87875009Y-103179418D01*
X87935168Y-103042220D01*
X87533358Y-101974085D01*
X87713884Y-101974085D01*
X88014119Y-102817639D01*
X88314263Y-101974085D01*
X88494789Y-101974085D01*
G37*
G36*
X91046974Y-103046800D02*
G01*
X90881286Y-103046800D01*
X90881286Y-102346952D01*
X90872042Y-102213301D01*
X90850587Y-102141282D01*
X90823154Y-102107388D01*
X90789970Y-102097183D01*
X90762124Y-102104082D01*
X90728456Y-102128542D01*
X90686106Y-102179707D01*
X90628953Y-102270107D01*
X90628953Y-103046800D01*
X90464272Y-103046800D01*
X90464272Y-102346952D01*
X90454952Y-102213507D01*
X90433297Y-102141465D01*
X90405540Y-102107456D01*
X90371857Y-102097183D01*
X90344699Y-102104012D01*
X90311433Y-102128394D01*
X90269092Y-102179707D01*
X90211847Y-102270107D01*
X90211847Y-103046800D01*
X90046159Y-103046800D01*
X90046159Y-101974085D01*
X90205710Y-101974085D01*
X90205710Y-102123745D01*
X90251506Y-102056009D01*
X90308201Y-102000555D01*
X90351906Y-101971799D01*
X90393281Y-101955769D01*
X90433406Y-101950638D01*
X90475220Y-101956095D01*
X90514039Y-101972461D01*
X90551009Y-102000830D01*
X90594163Y-102056822D01*
X90620984Y-102127134D01*
X90668536Y-102056531D01*
X90725765Y-102000555D01*
X90790705Y-101962260D01*
X90850420Y-101950638D01*
X90905998Y-101958802D01*
X90951041Y-101982275D01*
X90988257Y-102022253D01*
X91018152Y-102083268D01*
X91038957Y-102172467D01*
X91046974Y-102298958D01*
X91046974Y-103046800D01*
G37*
G36*
X92271272Y-101974085D02*
G01*
X91865066Y-103044876D01*
X91799324Y-103200871D01*
X91740990Y-103306751D01*
X91689486Y-103374512D01*
X91626675Y-103428186D01*
X91561024Y-103458733D01*
X91490367Y-103468851D01*
X91392198Y-103459753D01*
X91292255Y-103431848D01*
X91320099Y-103298034D01*
X91398719Y-103316741D01*
X91461607Y-103322305D01*
X91515063Y-103314958D01*
X91560866Y-103293517D01*
X91601009Y-103257001D01*
X91651491Y-103179418D01*
X91711651Y-103042220D01*
X91309841Y-101974085D01*
X91490367Y-101974085D01*
X91790602Y-102817639D01*
X92090746Y-101974085D01*
X92271272Y-101974085D01*
G37*
G36*
X94076532Y-102108632D02*
G01*
X94133844Y-102048478D01*
X94216209Y-101996158D01*
X94310081Y-101961993D01*
X94408641Y-101950638D01*
X94499177Y-101960382D01*
X94576413Y-101988346D01*
X94643244Y-102034313D01*
X94701366Y-102100297D01*
X94745225Y-102176739D01*
X94777914Y-102266114D01*
X94798686Y-102370684D01*
X94806055Y-102493131D01*
X94798443Y-102616375D01*
X94776697Y-102724712D01*
X94741957Y-102820269D01*
X94694680Y-102904833D01*
X94632458Y-102978949D01*
X94563172Y-103029604D01*
X94485375Y-103059853D01*
X94396368Y-103070247D01*
X94330892Y-103064661D01*
X94268700Y-103048050D01*
X94208881Y-103020146D01*
X94130964Y-102962862D01*
X94076532Y-102896041D01*
X94076532Y-103046800D01*
X93910752Y-103046800D01*
X93910752Y-102276793D01*
X94076532Y-102276793D01*
X94076532Y-102709103D01*
X94129230Y-102793477D01*
X94197158Y-102862152D01*
X94250397Y-102897343D01*
X94302367Y-102917241D01*
X94354328Y-102923701D01*
X94414493Y-102916235D01*
X94467306Y-102894394D01*
X94514661Y-102857468D01*
X94557477Y-102802801D01*
X94598420Y-102719075D01*
X94624129Y-102620801D01*
X94633223Y-102504855D01*
X94624279Y-102385250D01*
X94599529Y-102288405D01*
X94561049Y-102210024D01*
X94520419Y-102159613D01*
X94474314Y-102125073D01*
X94421692Y-102104348D01*
X94360556Y-102097183D01*
X94282577Y-102107670D01*
X94210565Y-102139126D01*
X94142249Y-102193821D01*
X94076532Y-102276793D01*
X93910752Y-102276793D01*
X93910752Y-101593066D01*
X94076532Y-101593066D01*
X94076532Y-102108632D01*
G37*
G36*
X95684557Y-101959598D02*
G01*
X95764980Y-101985735D01*
X95838084Y-102029146D01*
X95905239Y-102091505D01*
X95958272Y-102164965D01*
X95997083Y-102250323D01*
X96021469Y-102349815D01*
X96030078Y-102466295D01*
X96030078Y-102519235D01*
X95297441Y-102519235D01*
X95304357Y-102605175D01*
X95324261Y-102680950D01*
X95356561Y-102748331D01*
X95401580Y-102808663D01*
X95457564Y-102859674D01*
X95518020Y-102895129D01*
X95584030Y-102916423D01*
X95657211Y-102923701D01*
X95753155Y-102917991D01*
X95853700Y-102900405D01*
X95959645Y-102870029D01*
X95988496Y-103004484D01*
X95890336Y-103040201D01*
X95779915Y-103062476D01*
X95655196Y-103070247D01*
X95537787Y-103060054D01*
X95436237Y-103030892D01*
X95347607Y-102983689D01*
X95269781Y-102917748D01*
X95207431Y-102837483D01*
X95162024Y-102744002D01*
X95133559Y-102634759D01*
X95123510Y-102506412D01*
X95132307Y-102384413D01*
X95307883Y-102384413D01*
X95850010Y-102384413D01*
X95841213Y-102307616D01*
X95815654Y-102240572D01*
X95772982Y-102180989D01*
X95717525Y-102133033D01*
X95660780Y-102106037D01*
X95600882Y-102097183D01*
X95522327Y-102106448D01*
X95455418Y-102133147D01*
X95397459Y-102177509D01*
X95352205Y-102235322D01*
X95322339Y-102303444D01*
X95307883Y-102384413D01*
X95132307Y-102384413D01*
X95132633Y-102379897D01*
X95158410Y-102272274D01*
X95199297Y-102180394D01*
X95254943Y-102101763D01*
X95325760Y-102035426D01*
X95404730Y-101988812D01*
X95493546Y-101960451D01*
X95594746Y-101950638D01*
X95684557Y-101959598D01*
G37*
G36*
X97144467Y-102144994D02*
G01*
X97009117Y-102108534D01*
X96889385Y-102097183D01*
X96803646Y-102102425D01*
X96736853Y-102116604D01*
X96685321Y-102137941D01*
X96642009Y-102169881D01*
X96618364Y-102205341D01*
X96610582Y-102246019D01*
X96618892Y-102285425D01*
X96644654Y-102320482D01*
X96688767Y-102348599D01*
X96782590Y-102383039D01*
X96935364Y-102428926D01*
X97035363Y-102464205D01*
X97108288Y-102501466D01*
X97167965Y-102548325D01*
X97209038Y-102602216D01*
X97234026Y-102664949D01*
X97242744Y-102739511D01*
X97234499Y-102812829D01*
X97210652Y-102876258D01*
X97171048Y-102932059D01*
X97113600Y-102981495D01*
X97047615Y-103018998D01*
X96972111Y-103046690D01*
X96885498Y-103064117D01*
X96785888Y-103070247D01*
X96655410Y-103062123D01*
X96547253Y-103039516D01*
X96457717Y-103004393D01*
X96489774Y-102857939D01*
X96582905Y-102894490D01*
X96679213Y-102916350D01*
X96779751Y-102923701D01*
X96867099Y-102917789D01*
X96937704Y-102901490D01*
X96994624Y-102876349D01*
X97042169Y-102839522D01*
X97068380Y-102798531D01*
X97077056Y-102751418D01*
X97067126Y-102702567D01*
X97036206Y-102657812D01*
X97005203Y-102634546D01*
X96945238Y-102605367D01*
X96842491Y-102569244D01*
X96659767Y-102511999D01*
X96603250Y-102488379D01*
X96550499Y-102455762D01*
X96505513Y-102414704D01*
X96473379Y-102367285D01*
X96453685Y-102313338D01*
X96446909Y-102251881D01*
X96454610Y-102185655D01*
X96476962Y-102128108D01*
X96514297Y-102077186D01*
X96568817Y-102031787D01*
X96653832Y-101988568D01*
X96759721Y-101960726D01*
X96891492Y-101950638D01*
X97023947Y-101961794D01*
X97181927Y-101998448D01*
X97144467Y-102144994D01*
G37*
G36*
X98526667Y-102992761D02*
G01*
X98415616Y-103036697D01*
X98309370Y-103062017D01*
X98206648Y-103070247D01*
X98114090Y-103060878D01*
X98044068Y-103035381D01*
X97991243Y-102995599D01*
X97952450Y-102940452D01*
X97927216Y-102866138D01*
X97917862Y-102766714D01*
X97917862Y-102120631D01*
X97712881Y-102120631D01*
X97712881Y-101974085D01*
X97917862Y-101974085D01*
X97917862Y-101680993D01*
X98079428Y-101680993D01*
X98079428Y-101974085D01*
X98442129Y-101974085D01*
X98442129Y-102120631D01*
X98079428Y-102120631D01*
X98079428Y-102723391D01*
X98084755Y-102785810D01*
X98099271Y-102834094D01*
X98121652Y-102871311D01*
X98153023Y-102900298D01*
X98190588Y-102917643D01*
X98236324Y-102923701D01*
X98322127Y-102917235D01*
X98408966Y-102897548D01*
X98497725Y-102863801D01*
X98526667Y-102992761D01*
G37*
G36*
X99625211Y-101842377D02*
G01*
X99587933Y-102132354D01*
X99500830Y-102132354D01*
X99462545Y-101842377D01*
X99462545Y-101593066D01*
X99625211Y-101593066D01*
X99625211Y-101842377D01*
G37*
G36*
X99254267Y-101842377D02*
G01*
X99215982Y-102132354D01*
X99128879Y-102132354D01*
X99090594Y-101842377D01*
X99090594Y-101593066D01*
X99254267Y-101593066D01*
X99254267Y-101842377D01*
G37*
G36*
X102172541Y-102548544D02*
G01*
X101558057Y-102548544D01*
X101558057Y-102384413D01*
X102172541Y-102384413D01*
X102172541Y-102548544D01*
G37*
G36*
X104749639Y-103260115D02*
G01*
X104683785Y-103352805D01*
X104572664Y-103259362D01*
X104477801Y-103160729D01*
X104397949Y-103056680D01*
X104332167Y-102946782D01*
X104279321Y-102829228D01*
X104241939Y-102709464D01*
X104219524Y-102586705D01*
X104212000Y-102460067D01*
X104219501Y-102332351D01*
X104241794Y-102209182D01*
X104278876Y-102089660D01*
X104331160Y-101972986D01*
X104396423Y-101863971D01*
X104476205Y-101760456D01*
X104571539Y-101662013D01*
X104683785Y-101568428D01*
X104749639Y-101661118D01*
X104631223Y-101780557D01*
X104542007Y-101898033D01*
X104478255Y-102014385D01*
X104434164Y-102139452D01*
X104406077Y-102286084D01*
X104396098Y-102458052D01*
X104406561Y-102636192D01*
X104435802Y-102785669D01*
X104481369Y-102910970D01*
X104546643Y-103027637D01*
X104635074Y-103143794D01*
X104749639Y-103260115D01*
G37*
G36*
X106079908Y-101617612D02*
G01*
X106036127Y-101752068D01*
X105922500Y-101724436D01*
X105830322Y-101716164D01*
X105776263Y-101722339D01*
X105739115Y-101738625D01*
X105714185Y-101763700D01*
X105699007Y-101797936D01*
X105687383Y-101858551D01*
X105682586Y-101957599D01*
X105682586Y-101974085D01*
X106041257Y-101974085D01*
X106041257Y-102120631D01*
X105682586Y-102120631D01*
X105682586Y-103046800D01*
X105516898Y-103046800D01*
X105516898Y-102120631D01*
X105248444Y-102120631D01*
X105248444Y-101974085D01*
X105516898Y-101974085D01*
X105516898Y-101941112D01*
X105522578Y-101834307D01*
X105537651Y-101754164D01*
X105559730Y-101695170D01*
X105587331Y-101652692D01*
X105625167Y-101618872D01*
X105675885Y-101593050D01*
X105742823Y-101575957D01*
X105830322Y-101569619D01*
X105943779Y-101580768D01*
X106079908Y-101617612D01*
G37*
G36*
X107325730Y-103046800D02*
G01*
X107159950Y-103046800D01*
X107159950Y-102892927D01*
X107069475Y-102974312D01*
X106980356Y-103028683D01*
X106891222Y-103059960D01*
X106800180Y-103070247D01*
X106717979Y-103062422D01*
X106652352Y-103040710D01*
X106599743Y-103006380D01*
X106557846Y-102958787D01*
X106525903Y-102895466D01*
X106504812Y-102812431D01*
X106497014Y-102704524D01*
X106497014Y-101974085D01*
X106662702Y-101974085D01*
X106662702Y-102657354D01*
X106668391Y-102746936D01*
X106683306Y-102811883D01*
X106705017Y-102857939D01*
X106738291Y-102893402D01*
X106784526Y-102915557D01*
X106848265Y-102923701D01*
X106915154Y-102914468D01*
X106987806Y-102884855D01*
X107068679Y-102830186D01*
X107159950Y-102743725D01*
X107159950Y-101974085D01*
X107325730Y-101974085D01*
X107325730Y-103046800D01*
G37*
G36*
X108597288Y-102992761D02*
G01*
X108486237Y-103036697D01*
X108379991Y-103062017D01*
X108277269Y-103070247D01*
X108184711Y-103060878D01*
X108114689Y-103035381D01*
X108061864Y-102995599D01*
X108023071Y-102940452D01*
X107997837Y-102866138D01*
X107988483Y-102766714D01*
X107988483Y-102120631D01*
X107783502Y-102120631D01*
X107783502Y-101974085D01*
X107988483Y-101974085D01*
X107988483Y-101680993D01*
X108150049Y-101680993D01*
X108150049Y-101974085D01*
X108512750Y-101974085D01*
X108512750Y-102120631D01*
X108150049Y-102120631D01*
X108150049Y-102723391D01*
X108155376Y-102785810D01*
X108169892Y-102834094D01*
X108192273Y-102871311D01*
X108223644Y-102900298D01*
X108261209Y-102917643D01*
X108306945Y-102923701D01*
X108392748Y-102917235D01*
X108479588Y-102897548D01*
X108568346Y-102863801D01*
X108597288Y-102992761D01*
G37*
G36*
X109843385Y-103046800D02*
G01*
X109677605Y-103046800D01*
X109677605Y-102892927D01*
X109587130Y-102974312D01*
X109498011Y-103028683D01*
X109408877Y-103059960D01*
X109317835Y-103070247D01*
X109235634Y-103062422D01*
X109170007Y-103040710D01*
X109117398Y-103006380D01*
X109075501Y-102958787D01*
X109043558Y-102895466D01*
X109022468Y-102812431D01*
X109014669Y-102704524D01*
X109014669Y-101974085D01*
X109180357Y-101974085D01*
X109180357Y-102657354D01*
X109186046Y-102746936D01*
X109200961Y-102811883D01*
X109222672Y-102857939D01*
X109255947Y-102893402D01*
X109302182Y-102915557D01*
X109365921Y-102923701D01*
X109432809Y-102914468D01*
X109505461Y-102884855D01*
X109586334Y-102830186D01*
X109677605Y-102743725D01*
X109677605Y-101974085D01*
X109843385Y-101974085D01*
X109843385Y-103046800D01*
G37*
G36*
X111121538Y-102004860D02*
G01*
X111054677Y-102162488D01*
X110949865Y-102129978D01*
X110870762Y-102120631D01*
X110802466Y-102130152D01*
X110733742Y-102159740D01*
X110670672Y-102206063D01*
X110610277Y-102271573D01*
X110561234Y-102338078D01*
X110553948Y-102352173D01*
X110553948Y-103046800D01*
X110389268Y-103046800D01*
X110389268Y-101974085D01*
X110553948Y-101974085D01*
X110553948Y-102182180D01*
X110611015Y-102093090D01*
X110671775Y-102028849D01*
X110736470Y-101985170D01*
X110806244Y-101959376D01*
X110883035Y-101950638D01*
X110962923Y-101956568D01*
X111042163Y-101974465D01*
X111121538Y-102004860D01*
G37*
G36*
X112049316Y-101959598D02*
G01*
X112129739Y-101985735D01*
X112202844Y-102029146D01*
X112269999Y-102091505D01*
X112323031Y-102164965D01*
X112361842Y-102250323D01*
X112386228Y-102349815D01*
X112394837Y-102466295D01*
X112394837Y-102519235D01*
X111662200Y-102519235D01*
X111669116Y-102605175D01*
X111689021Y-102680950D01*
X111721320Y-102748331D01*
X111766339Y-102808663D01*
X111822323Y-102859674D01*
X111882779Y-102895129D01*
X111948789Y-102916423D01*
X112021970Y-102923701D01*
X112117915Y-102917991D01*
X112218459Y-102900405D01*
X112324404Y-102870029D01*
X112353255Y-103004484D01*
X112255095Y-103040201D01*
X112144674Y-103062476D01*
X112019955Y-103070247D01*
X111902546Y-103060054D01*
X111800996Y-103030892D01*
X111712366Y-102983689D01*
X111634540Y-102917748D01*
X111572191Y-102837483D01*
X111526783Y-102744002D01*
X111498318Y-102634759D01*
X111488269Y-102506412D01*
X111497066Y-102384413D01*
X111672642Y-102384413D01*
X112214769Y-102384413D01*
X112205973Y-102307616D01*
X112180413Y-102240572D01*
X112137741Y-102180989D01*
X112082285Y-102133033D01*
X112025539Y-102106037D01*
X111965642Y-102097183D01*
X111887086Y-102106448D01*
X111820177Y-102133147D01*
X111762218Y-102177509D01*
X111716964Y-102235322D01*
X111687098Y-102303444D01*
X111672642Y-102384413D01*
X111497066Y-102384413D01*
X111497392Y-102379897D01*
X111523169Y-102272274D01*
X111564056Y-102180394D01*
X111619702Y-102101763D01*
X111690519Y-102035426D01*
X111769489Y-101988812D01*
X111858305Y-101960451D01*
X111959505Y-101950638D01*
X112049316Y-101959598D01*
G37*
G36*
X112915349Y-101568428D02*
G01*
X113027088Y-101661960D01*
X113122105Y-101760384D01*
X113201728Y-101863918D01*
X113266967Y-101972986D01*
X113319293Y-102089664D01*
X113356403Y-102209187D01*
X113378713Y-102332354D01*
X113386219Y-102460067D01*
X113378721Y-102586720D01*
X113356388Y-102709488D01*
X113319147Y-102829248D01*
X113266510Y-102946782D01*
X113200974Y-103056657D01*
X113121289Y-103160698D01*
X113026503Y-103259337D01*
X112915349Y-103352805D01*
X112848579Y-103260115D01*
X112966580Y-103141914D01*
X113055805Y-103024092D01*
X113119781Y-102905841D01*
X113163989Y-102778745D01*
X113192076Y-102630677D01*
X113202029Y-102458052D01*
X113196064Y-102321428D01*
X113179162Y-102202191D01*
X113152577Y-102098244D01*
X113117216Y-102007699D01*
X113052405Y-101892753D01*
X112963929Y-101777461D01*
X112848579Y-101661118D01*
X112915349Y-101568428D01*
G37*
G36*
X116113893Y-103046800D02*
G01*
X115352862Y-103046800D01*
X115352862Y-101593066D01*
X116107756Y-101593066D01*
X116107756Y-101745474D01*
X115526794Y-101745474D01*
X115526794Y-102190973D01*
X116085225Y-102190973D01*
X116085225Y-102343380D01*
X115526794Y-102343380D01*
X115526794Y-102894392D01*
X116113893Y-102894392D01*
X116113893Y-103046800D01*
G37*
G36*
X117320513Y-103046800D02*
G01*
X116878128Y-103046800D01*
X116878128Y-101739612D01*
X116599417Y-101739612D01*
X116599417Y-101593066D01*
X117043817Y-101593066D01*
X117043817Y-102900254D01*
X117320513Y-102900254D01*
X117320513Y-103046800D01*
G37*
G36*
X118343454Y-101959598D02*
G01*
X118423878Y-101985735D01*
X118496982Y-102029146D01*
X118564137Y-102091505D01*
X118617169Y-102164965D01*
X118655980Y-102250323D01*
X118680366Y-102349815D01*
X118688975Y-102466295D01*
X118688975Y-102519235D01*
X117956339Y-102519235D01*
X117963255Y-102605175D01*
X117983159Y-102680950D01*
X118015458Y-102748331D01*
X118060478Y-102808663D01*
X118116462Y-102859674D01*
X118176918Y-102895129D01*
X118242927Y-102916423D01*
X118316108Y-102923701D01*
X118412053Y-102917991D01*
X118512597Y-102900405D01*
X118618542Y-102870029D01*
X118647393Y-103004484D01*
X118549233Y-103040201D01*
X118438812Y-103062476D01*
X118314093Y-103070247D01*
X118196685Y-103060054D01*
X118095135Y-103030892D01*
X118006505Y-102983689D01*
X117928678Y-102917748D01*
X117866329Y-102837483D01*
X117820921Y-102744002D01*
X117792456Y-102634759D01*
X117782407Y-102506412D01*
X117791204Y-102384413D01*
X117966780Y-102384413D01*
X118508907Y-102384413D01*
X118500111Y-102307616D01*
X118474551Y-102240572D01*
X118431879Y-102180989D01*
X118376423Y-102133033D01*
X118319677Y-102106037D01*
X118259780Y-102097183D01*
X118181224Y-102106448D01*
X118114315Y-102133147D01*
X118056356Y-102177509D01*
X118011102Y-102235322D01*
X117981236Y-102303444D01*
X117966780Y-102384413D01*
X117791204Y-102384413D01*
X117791530Y-102379897D01*
X117817307Y-102272274D01*
X117858194Y-102180394D01*
X117913840Y-102101763D01*
X117984657Y-102035426D01*
X118063627Y-101988812D01*
X118152444Y-101960451D01*
X118253643Y-101950638D01*
X118343454Y-101959598D01*
G37*
G36*
X119912357Y-103004484D02*
G01*
X119815759Y-103040740D01*
X119712919Y-103062750D01*
X119602596Y-103070247D01*
X119477628Y-103059868D01*
X119370610Y-103030339D01*
X119278302Y-102982905D01*
X119198313Y-102917198D01*
X119133550Y-102836378D01*
X119086747Y-102743347D01*
X119057608Y-102635754D01*
X119047371Y-102510442D01*
X119057665Y-102385193D01*
X119086978Y-102277622D01*
X119134085Y-102184569D01*
X119199321Y-102103686D01*
X119279843Y-102037671D01*
X119371622Y-101990260D01*
X119476839Y-101960906D01*
X119598475Y-101950638D01*
X119705231Y-101956024D01*
X119808383Y-101972017D01*
X119908511Y-101998540D01*
X119864730Y-102144811D01*
X119719792Y-102108206D01*
X119600581Y-102097183D01*
X119514580Y-102104703D01*
X119441182Y-102126101D01*
X119378026Y-102160566D01*
X119323427Y-102208558D01*
X119280164Y-102266785D01*
X119248420Y-102335200D01*
X119228399Y-102415764D01*
X119221303Y-102510992D01*
X119228259Y-102597027D01*
X119248366Y-102673636D01*
X119281141Y-102742479D01*
X119326999Y-102804816D01*
X119383811Y-102856768D01*
X119447624Y-102893473D01*
X119519857Y-102915911D01*
X119602596Y-102923701D01*
X119691579Y-102917997D01*
X119784935Y-102900404D01*
X119883506Y-102869937D01*
X119912357Y-103004484D01*
G37*
G36*
X121185565Y-102992761D02*
G01*
X121074514Y-103036697D01*
X120968267Y-103062017D01*
X120865546Y-103070247D01*
X120772988Y-103060878D01*
X120702966Y-103035381D01*
X120650141Y-102995599D01*
X120611347Y-102940452D01*
X120586113Y-102866138D01*
X120576759Y-102766714D01*
X120576759Y-102120631D01*
X120371778Y-102120631D01*
X120371778Y-101974085D01*
X120576759Y-101974085D01*
X120576759Y-101680993D01*
X120738326Y-101680993D01*
X120738326Y-101974085D01*
X121101026Y-101974085D01*
X121101026Y-102120631D01*
X120738326Y-102120631D01*
X120738326Y-102723391D01*
X120743652Y-102785810D01*
X120758168Y-102834094D01*
X120780549Y-102871311D01*
X120811920Y-102900298D01*
X120849485Y-102917643D01*
X120895221Y-102923701D01*
X120981024Y-102917235D01*
X121067864Y-102897548D01*
X121156622Y-102863801D01*
X121185565Y-102992761D01*
G37*
G36*
X122450987Y-102004860D02*
G01*
X122384126Y-102162488D01*
X122279313Y-102129978D01*
X122200211Y-102120631D01*
X122131915Y-102130152D01*
X122063190Y-102159740D01*
X122000121Y-102206063D01*
X121939726Y-102271573D01*
X121890683Y-102338078D01*
X121883397Y-102352173D01*
X121883397Y-103046800D01*
X121718716Y-103046800D01*
X121718716Y-101974085D01*
X121883397Y-101974085D01*
X121883397Y-102182180D01*
X121940463Y-102093090D01*
X122001223Y-102028849D01*
X122065919Y-101985170D01*
X122135693Y-101959376D01*
X122212484Y-101950638D01*
X122292371Y-101956568D01*
X122371612Y-101974465D01*
X122450987Y-102004860D01*
G37*
G36*
X123383733Y-101960832D02*
G01*
X123476704Y-101990011D01*
X123557490Y-102037456D01*
X123628115Y-102104327D01*
X123683759Y-102184205D01*
X123724499Y-102276547D01*
X123750075Y-102383652D01*
X123759091Y-102508427D01*
X123750063Y-102634273D01*
X123724465Y-102742238D01*
X123683718Y-102835252D01*
X123628115Y-102915641D01*
X123557432Y-102982955D01*
X123476625Y-103030674D01*
X123383676Y-103060003D01*
X123275581Y-103070247D01*
X123166864Y-103060001D01*
X123073634Y-103030707D01*
X122992836Y-102983122D01*
X122922406Y-102916099D01*
X122867155Y-102836027D01*
X122826600Y-102743079D01*
X122801083Y-102634876D01*
X122792255Y-102510992D01*
X122966004Y-102510992D01*
X122975807Y-102625156D01*
X123003621Y-102722054D01*
X123048252Y-102804907D01*
X123094044Y-102857519D01*
X123146207Y-102893978D01*
X123205993Y-102916043D01*
X123275581Y-102923701D01*
X123344536Y-102916002D01*
X123404150Y-102893748D01*
X123456542Y-102856829D01*
X123502910Y-102803350D01*
X123548332Y-102719546D01*
X123576424Y-102623068D01*
X123586258Y-102510992D01*
X123576277Y-102392700D01*
X123548286Y-102294838D01*
X123503918Y-102213504D01*
X123458327Y-102162192D01*
X123406094Y-102126460D01*
X123345916Y-102104743D01*
X123275581Y-102097183D01*
X123204661Y-102104701D01*
X123144328Y-102126234D01*
X123092309Y-102161531D01*
X123047245Y-102212039D01*
X123003665Y-102292359D01*
X122975953Y-102390576D01*
X122966004Y-102510992D01*
X122792255Y-102510992D01*
X122792072Y-102508427D01*
X122801105Y-102383033D01*
X122826700Y-102275672D01*
X122867415Y-102183372D01*
X122922956Y-102103778D01*
X122993590Y-102037168D01*
X123074395Y-101989888D01*
X123167395Y-101960801D01*
X123275581Y-101950638D01*
X123383733Y-101960832D01*
G37*
G36*
X124951332Y-103046800D02*
G01*
X124785643Y-103046800D01*
X124785643Y-102363255D01*
X124779487Y-102269748D01*
X124763581Y-102204340D01*
X124740764Y-102159923D01*
X124706422Y-102125913D01*
X124660777Y-102104833D01*
X124600080Y-102097183D01*
X124533191Y-102106416D01*
X124460539Y-102136029D01*
X124379666Y-102190698D01*
X124288395Y-102277160D01*
X124288395Y-103046800D01*
X124122616Y-103046800D01*
X124122616Y-101974085D01*
X124288395Y-101974085D01*
X124288395Y-102127958D01*
X124378870Y-102046573D01*
X124467989Y-101992202D01*
X124557123Y-101960925D01*
X124648165Y-101950638D01*
X124730425Y-101958451D01*
X124796079Y-101980127D01*
X124848688Y-102014386D01*
X124890565Y-102061859D01*
X124922479Y-102124992D01*
X124943544Y-102207748D01*
X124951332Y-102315262D01*
X124951332Y-103046800D01*
G37*
G36*
X125862937Y-101569619D02*
G01*
X125905788Y-101577797D01*
X125941797Y-101602317D01*
X125966351Y-101638224D01*
X125974495Y-101680444D01*
X125966362Y-101724441D01*
X125942347Y-101760220D01*
X125906619Y-101784251D01*
X125862937Y-101792368D01*
X125822661Y-101784155D01*
X125786551Y-101758754D01*
X125761560Y-101722030D01*
X125753395Y-101680444D01*
X125761573Y-101639031D01*
X125786551Y-101602775D01*
X125822626Y-101577735D01*
X125862937Y-101569619D01*
G37*
G36*
X125943721Y-103046800D02*
G01*
X125778033Y-103046800D01*
X125778033Y-102120631D01*
X125463417Y-102120631D01*
X125463417Y-101974085D01*
X125943721Y-101974085D01*
X125943721Y-103046800D01*
G37*
G36*
X127465323Y-103004484D02*
G01*
X127368724Y-103040740D01*
X127265885Y-103062750D01*
X127155562Y-103070247D01*
X127030594Y-103059868D01*
X126923576Y-103030339D01*
X126831268Y-102982905D01*
X126751279Y-102917198D01*
X126686516Y-102836378D01*
X126639713Y-102743347D01*
X126610573Y-102635754D01*
X126600337Y-102510442D01*
X126610631Y-102385193D01*
X126639944Y-102277622D01*
X126687051Y-102184569D01*
X126752287Y-102103686D01*
X126832809Y-102037671D01*
X126924587Y-101990260D01*
X127029805Y-101960906D01*
X127151441Y-101950638D01*
X127258197Y-101956024D01*
X127361349Y-101972017D01*
X127461476Y-101998540D01*
X127417696Y-102144811D01*
X127272758Y-102108206D01*
X127153547Y-102097183D01*
X127067545Y-102104703D01*
X126994148Y-102126101D01*
X126930992Y-102160566D01*
X126876393Y-102208558D01*
X126833130Y-102266785D01*
X126801386Y-102335200D01*
X126781365Y-102415764D01*
X126774269Y-102510992D01*
X126781225Y-102597027D01*
X126801332Y-102673636D01*
X126834107Y-102742479D01*
X126879965Y-102804816D01*
X126936777Y-102856768D01*
X127000589Y-102893473D01*
X127072823Y-102915911D01*
X127155562Y-102923701D01*
X127244545Y-102917997D01*
X127337901Y-102900404D01*
X127436472Y-102869937D01*
X127465323Y-103004484D01*
G37*
G36*
X128615157Y-102144994D02*
G01*
X128479808Y-102108534D01*
X128360076Y-102097183D01*
X128274337Y-102102425D01*
X128207544Y-102116604D01*
X128156011Y-102137941D01*
X128112700Y-102169881D01*
X128089054Y-102205341D01*
X128081273Y-102246019D01*
X128089582Y-102285425D01*
X128115345Y-102320482D01*
X128159458Y-102348599D01*
X128253281Y-102383039D01*
X128406055Y-102428926D01*
X128506054Y-102464205D01*
X128578979Y-102501466D01*
X128638656Y-102548325D01*
X128679729Y-102602216D01*
X128704717Y-102664949D01*
X128713435Y-102739511D01*
X128705190Y-102812829D01*
X128681343Y-102876258D01*
X128641739Y-102932059D01*
X128584291Y-102981495D01*
X128518306Y-103018998D01*
X128442801Y-103046690D01*
X128356189Y-103064117D01*
X128256578Y-103070247D01*
X128126101Y-103062123D01*
X128017944Y-103039516D01*
X127928408Y-103004393D01*
X127960465Y-102857939D01*
X128053596Y-102894490D01*
X128149904Y-102916350D01*
X128250442Y-102923701D01*
X128337790Y-102917789D01*
X128408395Y-102901490D01*
X128465314Y-102876349D01*
X128512860Y-102839522D01*
X128539071Y-102798531D01*
X128547746Y-102751418D01*
X128537817Y-102702567D01*
X128506897Y-102657812D01*
X128475894Y-102634546D01*
X128415929Y-102605367D01*
X128313182Y-102569244D01*
X128130458Y-102511999D01*
X128073940Y-102488379D01*
X128021189Y-102455762D01*
X127976204Y-102414704D01*
X127944070Y-102367285D01*
X127924376Y-102313338D01*
X127917600Y-102251881D01*
X127925301Y-102185655D01*
X127947653Y-102128108D01*
X127984988Y-102077186D01*
X128039508Y-102031787D01*
X128124523Y-101988568D01*
X128230411Y-101960726D01*
X128362183Y-101950638D01*
X128494638Y-101961794D01*
X128652618Y-101998448D01*
X128615157Y-102144994D01*
G37*
G36*
X131219824Y-103046800D02*
G01*
X130458794Y-103046800D01*
X130458794Y-101593066D01*
X131213688Y-101593066D01*
X131213688Y-101745474D01*
X130632725Y-101745474D01*
X130632725Y-102190973D01*
X131191156Y-102190973D01*
X131191156Y-102343380D01*
X130632725Y-102343380D01*
X130632725Y-102894392D01*
X131219824Y-102894392D01*
X131219824Y-103046800D01*
G37*
G36*
X132504297Y-103046800D02*
G01*
X132338609Y-103046800D01*
X132338609Y-102363255D01*
X132332453Y-102269748D01*
X132316547Y-102204340D01*
X132293730Y-102159923D01*
X132259388Y-102125913D01*
X132213743Y-102104833D01*
X132153046Y-102097183D01*
X132086157Y-102106416D01*
X132013505Y-102136029D01*
X131932632Y-102190698D01*
X131841361Y-102277160D01*
X131841361Y-103046800D01*
X131675581Y-103046800D01*
X131675581Y-101974085D01*
X131841361Y-101974085D01*
X131841361Y-102127958D01*
X131931836Y-102046573D01*
X132020955Y-101992202D01*
X132110089Y-101960925D01*
X132201131Y-101950638D01*
X132283391Y-101958451D01*
X132349045Y-101980127D01*
X132401654Y-102014386D01*
X132443531Y-102061859D01*
X132475445Y-102124992D01*
X132496510Y-102207748D01*
X132504297Y-102315262D01*
X132504297Y-103046800D01*
G37*
G36*
X133815332Y-102120631D02*
G01*
X133613648Y-102120631D01*
X133637409Y-102172837D01*
X133652339Y-102233708D01*
X133657612Y-102305003D01*
X133651065Y-102375090D01*
X133631970Y-102438171D01*
X133600376Y-102495709D01*
X133555305Y-102548727D01*
X133501255Y-102591908D01*
X133440922Y-102622712D01*
X133373069Y-102641629D01*
X133296011Y-102648195D01*
X133234095Y-102646180D01*
X133138785Y-102702061D01*
X133097401Y-102742555D01*
X133086817Y-102772942D01*
X133094429Y-102798294D01*
X133120064Y-102821577D01*
X133157242Y-102836070D01*
X133211838Y-102841636D01*
X133571516Y-102829912D01*
X133655555Y-102837737D01*
X133721367Y-102859257D01*
X133772925Y-102892927D01*
X133812181Y-102939333D01*
X133836426Y-102997630D01*
X133845099Y-103071437D01*
X133834883Y-103157920D01*
X133805140Y-103233470D01*
X133755268Y-103300745D01*
X133682159Y-103361140D01*
X133598626Y-103407673D01*
X133508256Y-103441202D01*
X133409893Y-103461776D01*
X133302147Y-103468851D01*
X133185363Y-103459790D01*
X133089347Y-103434520D01*
X133010246Y-103394846D01*
X132958583Y-103353248D01*
X132923841Y-103308132D01*
X132903423Y-103258679D01*
X132896490Y-103203237D01*
X132898006Y-103193895D01*
X133052012Y-103193895D01*
X133058953Y-103230209D01*
X133080531Y-103264010D01*
X133120614Y-103296752D01*
X133168329Y-103319670D01*
X133227911Y-103334504D01*
X133302147Y-103339891D01*
X133404881Y-103331716D01*
X133493056Y-103308466D01*
X133569227Y-103271198D01*
X133620252Y-103232252D01*
X133653768Y-103191644D01*
X133673001Y-103148735D01*
X133679411Y-103102121D01*
X133670738Y-103059468D01*
X133645774Y-103029049D01*
X133600439Y-103008262D01*
X133524530Y-102999905D01*
X133344371Y-103006957D01*
X133217151Y-103011629D01*
X133193705Y-103018325D01*
X133148457Y-103047349D01*
X133105564Y-103084668D01*
X133076650Y-103119340D01*
X133057970Y-103156684D01*
X133052012Y-103193895D01*
X132898006Y-103193895D01*
X132905857Y-103145533D01*
X132934455Y-103091900D01*
X132985866Y-103040285D01*
X133066941Y-102990105D01*
X132999603Y-102950363D01*
X132957254Y-102909597D01*
X132933879Y-102867406D01*
X132926257Y-102822127D01*
X132935492Y-102771128D01*
X132964848Y-102719900D01*
X133019917Y-102666319D01*
X133109714Y-102609452D01*
X133058644Y-102572171D01*
X133015903Y-102527745D01*
X132980846Y-102475546D01*
X132954902Y-102418178D01*
X132939543Y-102359424D01*
X132934733Y-102302347D01*
X133098082Y-102302347D01*
X133104771Y-102363349D01*
X133123864Y-102414600D01*
X133155143Y-102458235D01*
X133196407Y-102492278D01*
X133242770Y-102512364D01*
X133296011Y-102519235D01*
X133351264Y-102512342D01*
X133397868Y-102492483D01*
X133437885Y-102459334D01*
X133467847Y-102416479D01*
X133486373Y-102364942D01*
X133492931Y-102302347D01*
X133486368Y-102236337D01*
X133468194Y-102184201D01*
X133439442Y-102142887D01*
X133400488Y-102111426D01*
X133353474Y-102092229D01*
X133296011Y-102085460D01*
X133242701Y-102092236D01*
X133196334Y-102112015D01*
X133155143Y-102145452D01*
X133124001Y-102188454D01*
X133104845Y-102239960D01*
X133098082Y-102302347D01*
X132934733Y-102302347D01*
X132934409Y-102298500D01*
X132941172Y-102224212D01*
X132960689Y-102158860D01*
X132992622Y-102100711D01*
X133037724Y-102048548D01*
X133092233Y-102005973D01*
X133152606Y-101975647D01*
X133220008Y-101957068D01*
X133296011Y-101950638D01*
X133369072Y-101956207D01*
X133435491Y-101972424D01*
X133496412Y-101998998D01*
X133815332Y-101950180D01*
X133815332Y-102120631D01*
G37*
G36*
X134674731Y-101569619D02*
G01*
X134717581Y-101577797D01*
X134753591Y-101602317D01*
X134778144Y-101638224D01*
X134786289Y-101680444D01*
X134778155Y-101724441D01*
X134754140Y-101760220D01*
X134718412Y-101784251D01*
X134674731Y-101792368D01*
X134634455Y-101784155D01*
X134598344Y-101758754D01*
X134573353Y-101722030D01*
X134565188Y-101680444D01*
X134573366Y-101639031D01*
X134598344Y-101602775D01*
X134634420Y-101577735D01*
X134674731Y-101569619D01*
G37*
G36*
X134755514Y-103046800D02*
G01*
X134589826Y-103046800D01*
X134589826Y-102120631D01*
X134275211Y-102120631D01*
X134275211Y-101974085D01*
X134755514Y-101974085D01*
X134755514Y-103046800D01*
G37*
G36*
X136280780Y-103046800D02*
G01*
X136115092Y-103046800D01*
X136115092Y-102363255D01*
X136108935Y-102269748D01*
X136093030Y-102204340D01*
X136070212Y-102159923D01*
X136035870Y-102125913D01*
X135990225Y-102104833D01*
X135929529Y-102097183D01*
X135862640Y-102106416D01*
X135789988Y-102136029D01*
X135709115Y-102190698D01*
X135617844Y-102277160D01*
X135617844Y-103046800D01*
X135452064Y-103046800D01*
X135452064Y-101974085D01*
X135617844Y-101974085D01*
X135617844Y-102127958D01*
X135708319Y-102046573D01*
X135797438Y-101992202D01*
X135886572Y-101960925D01*
X135977614Y-101950638D01*
X136059874Y-101958451D01*
X136125528Y-101980127D01*
X136178136Y-102014386D01*
X136220014Y-102061859D01*
X136251928Y-102124992D01*
X136272992Y-102207748D01*
X136280780Y-102315262D01*
X136280780Y-103046800D01*
G37*
G36*
X137225869Y-101959598D02*
G01*
X137306292Y-101985735D01*
X137379396Y-102029146D01*
X137446551Y-102091505D01*
X137499584Y-102164965D01*
X137538395Y-102250323D01*
X137562780Y-102349815D01*
X137571390Y-102466295D01*
X137571390Y-102519235D01*
X136838753Y-102519235D01*
X136845669Y-102605175D01*
X136865573Y-102680950D01*
X136897873Y-102748331D01*
X136942892Y-102808663D01*
X136998876Y-102859674D01*
X137059332Y-102895129D01*
X137125342Y-102916423D01*
X137198523Y-102923701D01*
X137294467Y-102917991D01*
X137395012Y-102900405D01*
X137500956Y-102870029D01*
X137529808Y-103004484D01*
X137431648Y-103040201D01*
X137321227Y-103062476D01*
X137196508Y-103070247D01*
X137079099Y-103060054D01*
X136977549Y-103030892D01*
X136888919Y-102983689D01*
X136811093Y-102917748D01*
X136748743Y-102837483D01*
X136703336Y-102744002D01*
X136674871Y-102634759D01*
X136664822Y-102506412D01*
X136673619Y-102384413D01*
X136849194Y-102384413D01*
X137391322Y-102384413D01*
X137382525Y-102307616D01*
X137356966Y-102240572D01*
X137314294Y-102180989D01*
X137258837Y-102133033D01*
X137202092Y-102106037D01*
X137142194Y-102097183D01*
X137063639Y-102106448D01*
X136996730Y-102133147D01*
X136938771Y-102177509D01*
X136893517Y-102235322D01*
X136863651Y-102303444D01*
X136849194Y-102384413D01*
X136673619Y-102384413D01*
X136673945Y-102379897D01*
X136699722Y-102272274D01*
X136740609Y-102180394D01*
X136796255Y-102101763D01*
X136867071Y-102035426D01*
X136946042Y-101988812D01*
X137034858Y-101960451D01*
X137136058Y-101950638D01*
X137225869Y-101959598D01*
G37*
G36*
X138484697Y-101959598D02*
G01*
X138565120Y-101985735D01*
X138638224Y-102029146D01*
X138705379Y-102091505D01*
X138758411Y-102164965D01*
X138797223Y-102250323D01*
X138821608Y-102349815D01*
X138830218Y-102466295D01*
X138830218Y-102519235D01*
X138097581Y-102519235D01*
X138104497Y-102605175D01*
X138124401Y-102680950D01*
X138156700Y-102748331D01*
X138201720Y-102808663D01*
X138257704Y-102859674D01*
X138318160Y-102895129D01*
X138384170Y-102916423D01*
X138457350Y-102923701D01*
X138553295Y-102917991D01*
X138653840Y-102900405D01*
X138759784Y-102870029D01*
X138788635Y-103004484D01*
X138690475Y-103040201D01*
X138580055Y-103062476D01*
X138455335Y-103070247D01*
X138337927Y-103060054D01*
X138236377Y-103030892D01*
X138147747Y-102983689D01*
X138069920Y-102917748D01*
X138007571Y-102837483D01*
X137962163Y-102744002D01*
X137933698Y-102634759D01*
X137923649Y-102506412D01*
X137932446Y-102384413D01*
X138108022Y-102384413D01*
X138650150Y-102384413D01*
X138641353Y-102307616D01*
X138615793Y-102240572D01*
X138573122Y-102180989D01*
X138517665Y-102133033D01*
X138460920Y-102106037D01*
X138401022Y-102097183D01*
X138322466Y-102106448D01*
X138255558Y-102133147D01*
X138197598Y-102177509D01*
X138152344Y-102235322D01*
X138122478Y-102303444D01*
X138108022Y-102384413D01*
X137932446Y-102384413D01*
X137932772Y-102379897D01*
X137958549Y-102272274D01*
X137999436Y-102180394D01*
X138055082Y-102101763D01*
X138125899Y-102035426D01*
X138204869Y-101988812D01*
X138293686Y-101960451D01*
X138394885Y-101950638D01*
X138484697Y-101959598D01*
G37*
G36*
X140074574Y-102004860D02*
G01*
X140007712Y-102162488D01*
X139902900Y-102129978D01*
X139823798Y-102120631D01*
X139755502Y-102130152D01*
X139686777Y-102159740D01*
X139623707Y-102206063D01*
X139563313Y-102271573D01*
X139514270Y-102338078D01*
X139506984Y-102352173D01*
X139506984Y-103046800D01*
X139342303Y-103046800D01*
X139342303Y-101974085D01*
X139506984Y-101974085D01*
X139506984Y-102182180D01*
X139564050Y-102093090D01*
X139624810Y-102028849D01*
X139689506Y-101985170D01*
X139759280Y-101959376D01*
X139836071Y-101950638D01*
X139915958Y-101956568D01*
X139995199Y-101974465D01*
X140074574Y-102004860D01*
G37*
G36*
X81454491Y-96963810D02*
G01*
X81319266Y-96819962D01*
X81125679Y-96715599D01*
X80909006Y-96654497D01*
X80706192Y-96634999D01*
X80454317Y-96663086D01*
X80205800Y-96750098D01*
X80098172Y-96819010D01*
X80006436Y-96907024D01*
X79939033Y-97013515D01*
X79901717Y-97143634D01*
X79906881Y-97300156D01*
X79960946Y-97419018D01*
X80055825Y-97515924D01*
X80191756Y-97600368D01*
X80541633Y-97729206D01*
X80943718Y-97854686D01*
X81339086Y-98021993D01*
X81519313Y-98133268D01*
X81671257Y-98269288D01*
X81791120Y-98435083D01*
X81877642Y-98645728D01*
X81914931Y-98884269D01*
X81895349Y-99192526D01*
X81840419Y-99460742D01*
X81754885Y-99698764D01*
X81639810Y-99910600D01*
X81416721Y-100192040D01*
X81150103Y-100419236D01*
X80844643Y-100594184D01*
X80499807Y-100718739D01*
X80134789Y-100791835D01*
X79754866Y-100816436D01*
X79435733Y-100799160D01*
X79145459Y-100749152D01*
X78880477Y-100668364D01*
X78630937Y-100550832D01*
X78396066Y-100392020D01*
X78174004Y-100188427D01*
X79076176Y-99331745D01*
X79239611Y-99530141D01*
X79450479Y-99677959D01*
X79693553Y-99769552D01*
X79957588Y-99800386D01*
X80230224Y-99769245D01*
X80489121Y-99675211D01*
X80599281Y-99603062D01*
X80688484Y-99514927D01*
X80753838Y-99409348D01*
X80790151Y-99284728D01*
X80791386Y-99142658D01*
X80750544Y-99028185D01*
X80667419Y-98932713D01*
X80494763Y-98816976D01*
X80265334Y-98713200D01*
X79733800Y-98532155D01*
X79457403Y-98424934D01*
X79209289Y-98288217D01*
X78996983Y-98110578D01*
X78834987Y-97883995D01*
X78768408Y-97711226D01*
X78738992Y-97494534D01*
X78754386Y-97221792D01*
X78809117Y-96963063D01*
X78894553Y-96732064D01*
X79009926Y-96525089D01*
X79233166Y-96249407D01*
X79502991Y-96023170D01*
X79810893Y-95847034D01*
X80153287Y-95720004D01*
X80512767Y-95644097D01*
X80874109Y-95618948D01*
X81285430Y-95649419D01*
X81667898Y-95738933D01*
X81906701Y-95837224D01*
X82121402Y-95970680D01*
X82314837Y-96141017D01*
X81454491Y-96963810D01*
G37*
G36*
X84154901Y-95413479D02*
G01*
X83826089Y-97763706D01*
X83840133Y-97763706D01*
X83898351Y-97669051D01*
X83983321Y-97568922D01*
X84207413Y-97395204D01*
X84343624Y-97326770D01*
X84504474Y-97270030D01*
X84675973Y-97233625D01*
X84861374Y-97221181D01*
X85125938Y-97236950D01*
X85332014Y-97279571D01*
X85490909Y-97343608D01*
X85691931Y-97491071D01*
X85826438Y-97682190D01*
X85905543Y-97911511D01*
X85938484Y-98192047D01*
X85931983Y-98490583D01*
X85896658Y-98827383D01*
X85637760Y-100699200D01*
X84588432Y-100699200D01*
X84819242Y-99034684D01*
X84854352Y-98730602D01*
X84855919Y-98576709D01*
X84833286Y-98440258D01*
X84782167Y-98318826D01*
X84700479Y-98223493D01*
X84585233Y-98163121D01*
X84399755Y-98139534D01*
X84207520Y-98159223D01*
X84060257Y-98213113D01*
X83936594Y-98299163D01*
X83840133Y-98408812D01*
X83767184Y-98537892D01*
X83714043Y-98685112D01*
X83651150Y-99006597D01*
X83413319Y-100699200D01*
X82363990Y-100699200D01*
X83105573Y-95413479D01*
X84154901Y-95413479D01*
G37*
G36*
X88845273Y-97253259D02*
G01*
X89153026Y-97336586D01*
X89330829Y-97427974D01*
X89472577Y-97540611D01*
X89583198Y-97675168D01*
X89697293Y-97917183D01*
X89754474Y-98223493D01*
X89757905Y-98559553D01*
X89716005Y-98974234D01*
X89478174Y-100699200D01*
X88512804Y-100699200D01*
X88568980Y-100259868D01*
X88554936Y-100259868D01*
X88402459Y-100428531D01*
X88230630Y-100559935D01*
X88037141Y-100657068D01*
X87724876Y-100747477D01*
X87407605Y-100777357D01*
X87174657Y-100760554D01*
X86960030Y-100711412D01*
X86763017Y-100627836D01*
X86599772Y-100513575D01*
X86469824Y-100366729D01*
X86379343Y-100187511D01*
X86336209Y-99984194D01*
X86342976Y-99783018D01*
X87357300Y-99783018D01*
X87379517Y-99852898D01*
X87477520Y-99965860D01*
X87628034Y-100033943D01*
X87799310Y-100054398D01*
X87952319Y-100044194D01*
X88103697Y-100013488D01*
X88248562Y-99963444D01*
X88376639Y-99897472D01*
X88489499Y-99811864D01*
X88583024Y-99706047D01*
X88650520Y-99581450D01*
X88687743Y-99432800D01*
X88715831Y-99214203D01*
X88456934Y-99214203D01*
X88159568Y-99224583D01*
X87809690Y-99282591D01*
X87647056Y-99343146D01*
X87508966Y-99426084D01*
X87407507Y-99539246D01*
X87358757Y-99692308D01*
X87357300Y-99783018D01*
X86342976Y-99783018D01*
X86344538Y-99736577D01*
X86412901Y-99457356D01*
X86524181Y-99235448D01*
X86676709Y-99060025D01*
X86865315Y-98915340D01*
X87076580Y-98797381D01*
X87313266Y-98705873D01*
X87687140Y-98615187D01*
X88082631Y-98570623D01*
X88813833Y-98549862D01*
X88812840Y-98371125D01*
X88765635Y-98226992D01*
X88673699Y-98107783D01*
X88548729Y-98018127D01*
X88401606Y-97963348D01*
X88226124Y-97944140D01*
X87974282Y-97971416D01*
X87739775Y-98052523D01*
X87522495Y-98179649D01*
X87316930Y-98349889D01*
X86841267Y-97774086D01*
X87069319Y-97605024D01*
X87314561Y-97467142D01*
X87578881Y-97359484D01*
X87992336Y-97255516D01*
X88408085Y-97221181D01*
X88845273Y-97253259D01*
G37*
G36*
X93409568Y-100699200D02*
G01*
X92402371Y-100699200D01*
X92465264Y-100234833D01*
X92451220Y-100234833D01*
X92279945Y-100429616D01*
X92042113Y-100603639D01*
X91737726Y-100728509D01*
X91566265Y-100764918D01*
X91381131Y-100777357D01*
X91116550Y-100761631D01*
X90910358Y-100719117D01*
X90751290Y-100655236D01*
X90550191Y-100507543D01*
X90415456Y-100316349D01*
X90336572Y-100087084D01*
X90303715Y-99806797D01*
X90310292Y-99507993D01*
X90345847Y-99171155D01*
X90611461Y-97299339D01*
X91660789Y-97299339D01*
X91422958Y-98963854D01*
X91387848Y-99268242D01*
X91386431Y-99421875D01*
X91408914Y-99558280D01*
X91460204Y-99679744D01*
X91541721Y-99775046D01*
X91657003Y-99835408D01*
X91842750Y-99859004D01*
X92034738Y-99839401D01*
X92181942Y-99785731D01*
X92305871Y-99699419D01*
X92402371Y-99589726D01*
X92476099Y-99460745D01*
X92531820Y-99313427D01*
X92598071Y-98991942D01*
X92835903Y-97299339D01*
X93885231Y-97299339D01*
X93409568Y-100699200D01*
G37*
G36*
X94626813Y-97299339D02*
G01*
X95634315Y-97299339D01*
X95571117Y-97763706D01*
X95585161Y-97763706D01*
X95753078Y-97568922D01*
X95990909Y-97395204D01*
X96130246Y-97326597D01*
X96291633Y-97270030D01*
X96463133Y-97233625D01*
X96648533Y-97221181D01*
X96913098Y-97236950D01*
X97119174Y-97279571D01*
X97278069Y-97343608D01*
X97479091Y-97491071D01*
X97613598Y-97682190D01*
X97692703Y-97911511D01*
X97725644Y-98192047D01*
X97719143Y-98490583D01*
X97683818Y-98827383D01*
X97424920Y-100699200D01*
X96375592Y-100699200D01*
X96606401Y-99034684D01*
X96641511Y-98730602D01*
X96643079Y-98576709D01*
X96620445Y-98440258D01*
X96569327Y-98318826D01*
X96487638Y-98223493D01*
X96372393Y-98163121D01*
X96186914Y-98139534D01*
X95994679Y-98159223D01*
X95847417Y-98213113D01*
X95723754Y-98299163D01*
X95627293Y-98408812D01*
X95554344Y-98537892D01*
X95501203Y-98685112D01*
X95438310Y-99006597D01*
X95200479Y-100699200D01*
X94151150Y-100699200D01*
X94626813Y-97299339D01*
G37*
G36*
X100632432Y-97253259D02*
G01*
X100940185Y-97336586D01*
X101117988Y-97427974D01*
X101259737Y-97540611D01*
X101370358Y-97675168D01*
X101484452Y-97917183D01*
X101541633Y-98223493D01*
X101545065Y-98559553D01*
X101503165Y-98974234D01*
X101265334Y-100699200D01*
X100299964Y-100699200D01*
X100356140Y-100259868D01*
X100342096Y-100259868D01*
X100189618Y-100428531D01*
X100017790Y-100559935D01*
X99824301Y-100657068D01*
X99512036Y-100747477D01*
X99194765Y-100777357D01*
X98961817Y-100760554D01*
X98747190Y-100711412D01*
X98550177Y-100627836D01*
X98386932Y-100513575D01*
X98256984Y-100366729D01*
X98166503Y-100187511D01*
X98123369Y-99984194D01*
X98130136Y-99783018D01*
X99144460Y-99783018D01*
X99166677Y-99852898D01*
X99264680Y-99965860D01*
X99415194Y-100033943D01*
X99586469Y-100054398D01*
X99739479Y-100044194D01*
X99890857Y-100013488D01*
X100035721Y-99963444D01*
X100163799Y-99897472D01*
X100276659Y-99811864D01*
X100370184Y-99706047D01*
X100437679Y-99581450D01*
X100474903Y-99432800D01*
X100502991Y-99214203D01*
X100244093Y-99214203D01*
X99946728Y-99224583D01*
X99596850Y-99282591D01*
X99434216Y-99343146D01*
X99296126Y-99426084D01*
X99194667Y-99539246D01*
X99145916Y-99692308D01*
X99144460Y-99783018D01*
X98130136Y-99783018D01*
X98131698Y-99736577D01*
X98200061Y-99457356D01*
X98311341Y-99235448D01*
X98463868Y-99060025D01*
X98652475Y-98915340D01*
X98863739Y-98797381D01*
X99100426Y-98705873D01*
X99474300Y-98615187D01*
X99869791Y-98570623D01*
X100600993Y-98549862D01*
X100600000Y-98371125D01*
X100552795Y-98226992D01*
X100460859Y-98107783D01*
X100335889Y-98018127D01*
X100188766Y-97963348D01*
X100013284Y-97944140D01*
X99761442Y-97971416D01*
X99526935Y-98052523D01*
X99309655Y-98179649D01*
X99104090Y-98349889D01*
X98628427Y-97774086D01*
X98856478Y-97605024D01*
X99101720Y-97467142D01*
X99366040Y-97359484D01*
X99779496Y-97255516D01*
X100195245Y-97221181D01*
X100632432Y-97253259D01*
G37*
G36*
X102664540Y-95410731D02*
G01*
X103713868Y-95410731D01*
X103259271Y-98642369D01*
X104609324Y-97299339D01*
X105896178Y-97299339D01*
X104329360Y-98831352D01*
X105455625Y-100699200D01*
X104133661Y-100699200D01*
X103224161Y-98978203D01*
X103210117Y-98978203D01*
X102972286Y-100699200D01*
X101922958Y-100699200D01*
X102664540Y-95410731D01*
G37*
G36*
X110806681Y-99038959D02*
G01*
X110743348Y-99376233D01*
X110652502Y-99701162D01*
X110522237Y-100005276D01*
X110344756Y-100269332D01*
X110198426Y-100420541D01*
X110021349Y-100552890D01*
X109809559Y-100666532D01*
X109583096Y-100746151D01*
X109307692Y-100797797D01*
X108973943Y-100816436D01*
X108591083Y-100782582D01*
X108277321Y-100687864D01*
X108018954Y-100537694D01*
X107861635Y-100385467D01*
X107741803Y-100195057D01*
X107658909Y-99958915D01*
X107616869Y-99666358D01*
X108652153Y-99422420D01*
X108678537Y-99592014D01*
X108770916Y-99732303D01*
X108910578Y-99827197D01*
X109078662Y-99859004D01*
X109254446Y-99834142D01*
X109386408Y-99764971D01*
X109492878Y-99659719D01*
X109575391Y-99531108D01*
X109635274Y-99386718D01*
X109676752Y-99227636D01*
X109729264Y-98923859D01*
X110176839Y-95755724D01*
X111268300Y-95755724D01*
X110806681Y-99038959D01*
G37*
G36*
X113845971Y-97253259D02*
G01*
X114153724Y-97336586D01*
X114331526Y-97427974D01*
X114473275Y-97540611D01*
X114583896Y-97675168D01*
X114697990Y-97917183D01*
X114755172Y-98223493D01*
X114758603Y-98559553D01*
X114716703Y-98974234D01*
X114478872Y-100699200D01*
X113513502Y-100699200D01*
X113569678Y-100259868D01*
X113555634Y-100259868D01*
X113403156Y-100428531D01*
X113231328Y-100559935D01*
X113037839Y-100657068D01*
X112725574Y-100747477D01*
X112408303Y-100777357D01*
X112175355Y-100760554D01*
X111960728Y-100711412D01*
X111763715Y-100627836D01*
X111600470Y-100513575D01*
X111470522Y-100366729D01*
X111380041Y-100187511D01*
X111336907Y-99984194D01*
X111343674Y-99783018D01*
X112357998Y-99783018D01*
X112380215Y-99852898D01*
X112478218Y-99965860D01*
X112628732Y-100033943D01*
X112800008Y-100054398D01*
X112953017Y-100044194D01*
X113104395Y-100013488D01*
X113249259Y-99963444D01*
X113377337Y-99897472D01*
X113490197Y-99811864D01*
X113583722Y-99706047D01*
X113651217Y-99581450D01*
X113688441Y-99432800D01*
X113716529Y-99214203D01*
X113457631Y-99214203D01*
X113160266Y-99224583D01*
X112810388Y-99282591D01*
X112647754Y-99343146D01*
X112509664Y-99426084D01*
X112408205Y-99539246D01*
X112359454Y-99692308D01*
X112357998Y-99783018D01*
X111343674Y-99783018D01*
X111345236Y-99736577D01*
X111413599Y-99457356D01*
X111524879Y-99235448D01*
X111677406Y-99060025D01*
X111866013Y-98915340D01*
X112077277Y-98797381D01*
X112313964Y-98705873D01*
X112687838Y-98615187D01*
X113083329Y-98570623D01*
X113814531Y-98549862D01*
X113813538Y-98371125D01*
X113766333Y-98226992D01*
X113674397Y-98107783D01*
X113549427Y-98018127D01*
X113402304Y-97963348D01*
X113226822Y-97944140D01*
X112974980Y-97971416D01*
X112740473Y-98052523D01*
X112523193Y-98179649D01*
X112317628Y-98349889D01*
X111841965Y-97774086D01*
X112070016Y-97605024D01*
X112315258Y-97467142D01*
X112579578Y-97359484D01*
X112993034Y-97255516D01*
X113408783Y-97221181D01*
X113845971Y-97253259D01*
G37*
G36*
X115892122Y-95411037D02*
G01*
X116941450Y-95411037D01*
X116199868Y-100699200D01*
X115150540Y-100699200D01*
X115892122Y-95411037D01*
G37*
G36*
X117695245Y-95410731D02*
G01*
X118744573Y-95410731D01*
X118289976Y-98642369D01*
X119640028Y-97299339D01*
X120926883Y-97299339D01*
X119360065Y-98831352D01*
X120486330Y-100699200D01*
X119164366Y-100699200D01*
X118254866Y-98978203D01*
X118240822Y-98978203D01*
X118002991Y-100699200D01*
X116953662Y-100699200D01*
X117695245Y-95410731D01*
G37*
G36*
X123468231Y-97253381D02*
G01*
X123808033Y-97346661D01*
X124113446Y-97501021D01*
X124360632Y-97705698D01*
X124552631Y-97960804D01*
X124685780Y-98267151D01*
X124735114Y-98487674D01*
X124751240Y-98730330D01*
X124731271Y-98999269D01*
X124677610Y-99263543D01*
X124593559Y-99506790D01*
X124479395Y-99731693D01*
X124259976Y-100036819D01*
X123996710Y-100292840D01*
X123692301Y-100498505D01*
X123346108Y-100651877D01*
X122976295Y-100745850D01*
X122590787Y-100777357D01*
X122210073Y-100745157D01*
X121870271Y-100651877D01*
X121565726Y-100497373D01*
X121321335Y-100292840D01*
X121131967Y-100038027D01*
X120999545Y-99731693D01*
X120950342Y-99510980D01*
X120934224Y-99268210D01*
X120935530Y-99250498D01*
X121993653Y-99250498D01*
X122038512Y-99453891D01*
X122132527Y-99621478D01*
X122272825Y-99748966D01*
X122462179Y-99829470D01*
X122716878Y-99859004D01*
X122973340Y-99831102D01*
X123188313Y-99751559D01*
X123370838Y-99621478D01*
X123517120Y-99449297D01*
X123620843Y-99244230D01*
X123682248Y-98999269D01*
X123691372Y-98748302D01*
X123645250Y-98545035D01*
X123549135Y-98377366D01*
X123406992Y-98249583D01*
X123216487Y-98169023D01*
X122961731Y-98139534D01*
X122705371Y-98167541D01*
X122491608Y-98247229D01*
X122311129Y-98377366D01*
X122166891Y-98549126D01*
X122064324Y-98754075D01*
X122003383Y-98999269D01*
X121993653Y-99250498D01*
X120935530Y-99250498D01*
X120954055Y-98999269D01*
X121045140Y-98610750D01*
X121202267Y-98267151D01*
X121418993Y-97961902D01*
X121681288Y-97705698D01*
X121985905Y-97500003D01*
X122331890Y-97346661D01*
X122701966Y-97252683D01*
X123087516Y-97221181D01*
X123468231Y-97253381D01*
G37*
G36*
X127783696Y-98139534D02*
G01*
X126860152Y-98139534D01*
X126699257Y-99270074D01*
X126678497Y-99524697D01*
X126688658Y-99634784D01*
X126716965Y-99723755D01*
X126768315Y-99796805D01*
X126849772Y-99852898D01*
X126954342Y-99885323D01*
X127112028Y-99898083D01*
X127332457Y-99880681D01*
X127458467Y-99849811D01*
X127545864Y-99799470D01*
X127426796Y-100672638D01*
X127242348Y-100724973D01*
X127052494Y-100756291D01*
X126678497Y-100777357D01*
X126419530Y-100762774D01*
X126195506Y-100721487D01*
X125992025Y-100647456D01*
X125828226Y-100543495D01*
X125699795Y-100404318D01*
X125611461Y-100225979D01*
X125571145Y-100019155D01*
X125580015Y-99751537D01*
X125811129Y-98139534D01*
X125139461Y-98139534D01*
X125258225Y-97299339D01*
X125929892Y-97299339D01*
X126069721Y-96291837D01*
X127119050Y-96291837D01*
X126979221Y-97299339D01*
X127902459Y-97299339D01*
X127783696Y-98139534D01*
G37*
G36*
X130575291Y-97253982D02*
G01*
X130869093Y-97346966D01*
X131124166Y-97500929D01*
X131323996Y-97706919D01*
X131469697Y-97959652D01*
X131565185Y-98269288D01*
X131600980Y-98607699D01*
X131575871Y-99002933D01*
X131526717Y-99331440D01*
X129092532Y-99331440D01*
X129126390Y-99519912D01*
X129195393Y-99674243D01*
X129298917Y-99801302D01*
X129431994Y-99896370D01*
X129593699Y-99955302D01*
X129791982Y-99976241D01*
X130038282Y-99946345D01*
X130243221Y-99860836D01*
X130425988Y-99730232D01*
X130596457Y-99563470D01*
X131254081Y-100102636D01*
X131045775Y-100301505D01*
X130812253Y-100467457D01*
X130550967Y-100601808D01*
X130274051Y-100700407D01*
X130000896Y-100758271D01*
X129729090Y-100777357D01*
X129348375Y-100745157D01*
X129008573Y-100651877D01*
X128703770Y-100497355D01*
X128459332Y-100292840D01*
X128270135Y-100038059D01*
X128137542Y-99731693D01*
X128088371Y-99510983D01*
X128072352Y-99268216D01*
X128092357Y-98999269D01*
X128183443Y-98610750D01*
X128184481Y-98608481D01*
X129190534Y-98608481D01*
X130575391Y-98608481D01*
X130581342Y-98441109D01*
X130543950Y-98296160D01*
X130463650Y-98166706D01*
X130349515Y-98066784D01*
X130205627Y-98005232D01*
X130022792Y-97983219D01*
X129853847Y-97997317D01*
X129708024Y-98037563D01*
X129575337Y-98100506D01*
X129463170Y-98177087D01*
X129366874Y-98268982D01*
X129288232Y-98374008D01*
X129228551Y-98489368D01*
X129190534Y-98608481D01*
X128184481Y-98608481D01*
X128340569Y-98267151D01*
X128557296Y-97961902D01*
X128819591Y-97705698D01*
X129124208Y-97500003D01*
X129470192Y-97346661D01*
X129840268Y-97252683D01*
X130225819Y-97221181D01*
X130575291Y-97253982D01*
G37*
D10*
G36*
X148607135Y-72730701D02*
G01*
X149414968Y-72730701D01*
X149414968Y-72779550D01*
X149370547Y-72779550D01*
X149322272Y-72787868D01*
X149240793Y-72820613D01*
X149160160Y-72869787D01*
X149085393Y-72938155D01*
X149014351Y-73028626D01*
X148912897Y-73187588D01*
X148354344Y-74072358D01*
X148354344Y-74635796D01*
X148362015Y-74791131D01*
X148379892Y-74877806D01*
X148402124Y-74920644D01*
X148450641Y-74961423D01*
X148517000Y-74987588D01*
X148607135Y-74997275D01*
X148682240Y-74997275D01*
X148682240Y-75046124D01*
X147698552Y-75046124D01*
X147698552Y-74997275D01*
X147780526Y-74997275D01*
X147873415Y-74985488D01*
X147940646Y-74953471D01*
X147988896Y-74902326D01*
X148014189Y-74824720D01*
X148026448Y-74635796D01*
X148026448Y-74096935D01*
X147391264Y-73123627D01*
X147238459Y-72903045D01*
X147185698Y-72860338D01*
X147071916Y-72797257D01*
X147033452Y-72784613D01*
X146972845Y-72779550D01*
X146972845Y-72730701D01*
X147963250Y-72730701D01*
X147963250Y-72779550D01*
X147911959Y-72779550D01*
X147834735Y-72789386D01*
X147764345Y-72818629D01*
X147713747Y-72867313D01*
X147696873Y-72935560D01*
X147715893Y-73008836D01*
X147801134Y-73166064D01*
X148284429Y-73912379D01*
X148738568Y-73198579D01*
X148821107Y-73039492D01*
X148841150Y-72950978D01*
X148834820Y-72903801D01*
X148816268Y-72862745D01*
X148786651Y-72828411D01*
X148745438Y-72801684D01*
X148693164Y-72785986D01*
X148607135Y-72779550D01*
X148607135Y-72730701D01*
G37*
G36*
X150338576Y-73451633D02*
G01*
X150488057Y-73502169D01*
X150619946Y-73585358D01*
X150737238Y-73704314D01*
X150817443Y-73824546D01*
X150874093Y-73951828D01*
X150908313Y-74087817D01*
X150919962Y-74234627D01*
X150909179Y-74372821D01*
X150876166Y-74514264D01*
X150819212Y-74660525D01*
X150741440Y-74795502D01*
X150649129Y-74902635D01*
X150541691Y-74985521D01*
X150419916Y-75046122D01*
X150289479Y-75082572D01*
X150148002Y-75094972D01*
X149977841Y-75076778D01*
X149830465Y-75024264D01*
X149700880Y-74937525D01*
X149586091Y-74812719D01*
X149508757Y-74689474D01*
X149454212Y-74560499D01*
X149421369Y-74424307D01*
X149410236Y-74279048D01*
X149421642Y-74139067D01*
X149727905Y-74139067D01*
X149744047Y-74366569D01*
X149790045Y-74564074D01*
X149863612Y-74736393D01*
X149942548Y-74852873D01*
X150027306Y-74929059D01*
X150119122Y-74972823D01*
X150221428Y-74987505D01*
X150325187Y-74972189D01*
X150414962Y-74927069D01*
X150494675Y-74849050D01*
X150548919Y-74749651D01*
X150587257Y-74597399D01*
X150602294Y-74372777D01*
X150589404Y-74159176D01*
X150553423Y-73980738D01*
X150497397Y-73831855D01*
X150422928Y-73707825D01*
X150332358Y-73613667D01*
X150230829Y-73559778D01*
X150113808Y-73541588D01*
X150024915Y-73554698D01*
X149931847Y-73596237D01*
X149877710Y-73638830D01*
X149828459Y-73701038D01*
X149784233Y-73787510D01*
X149743404Y-73935201D01*
X149727905Y-74139067D01*
X149421642Y-74139067D01*
X149421753Y-74137706D01*
X149456793Y-73995427D01*
X149516940Y-73850555D01*
X149598251Y-73717329D01*
X149691711Y-73613795D01*
X149797819Y-73535939D01*
X149917324Y-73478988D01*
X150039717Y-73445355D01*
X150166779Y-73434121D01*
X150338576Y-73451633D01*
G37*
G36*
X152346035Y-73473200D02*
G01*
X152346035Y-74440401D01*
X152350458Y-74691717D01*
X152358858Y-74779441D01*
X152376968Y-74834884D01*
X152399769Y-74865536D01*
X152430291Y-74883609D01*
X152465562Y-74889655D01*
X152519341Y-74882959D01*
X152584935Y-74860499D01*
X152608902Y-74909348D01*
X152141024Y-75094972D01*
X152064240Y-75094972D01*
X152064240Y-74767229D01*
X151869283Y-74958486D01*
X151756799Y-75039254D01*
X151647669Y-75081096D01*
X151533012Y-75094972D01*
X151448101Y-75086157D01*
X151372793Y-75060499D01*
X151304950Y-75017883D01*
X151223435Y-74929952D01*
X151170922Y-74819283D01*
X151144183Y-74685067D01*
X151133370Y-74475664D01*
X151133370Y-73766291D01*
X151126002Y-73662715D01*
X151109403Y-73610434D01*
X151080052Y-73572328D01*
X151038573Y-73543725D01*
X150981839Y-73527916D01*
X150868671Y-73522048D01*
X150868671Y-73473200D01*
X151416997Y-73473200D01*
X151416997Y-74530924D01*
X151428088Y-74677507D01*
X151455405Y-74768197D01*
X151493017Y-74820809D01*
X151576364Y-74872356D01*
X151676505Y-74889808D01*
X151751184Y-74879195D01*
X151843048Y-74843249D01*
X151936700Y-74782061D01*
X152064240Y-74665563D01*
X152064240Y-73766291D01*
X152049619Y-73639122D01*
X152015544Y-73575476D01*
X151978849Y-73550666D01*
X151915455Y-73531614D01*
X151813128Y-73522048D01*
X151813128Y-73473200D01*
X152346035Y-73473200D01*
G37*
G36*
X153177682Y-72955405D02*
G01*
X153177682Y-73473200D01*
X153543131Y-73473200D01*
X153543131Y-73580666D01*
X153177682Y-73580666D01*
X153177682Y-74608929D01*
X153191031Y-74748793D01*
X153221188Y-74816688D01*
X153271085Y-74856919D01*
X153333082Y-74870269D01*
X153387773Y-74861857D01*
X153442380Y-74835617D01*
X153488591Y-74793711D01*
X153524354Y-74733493D01*
X153590911Y-74733493D01*
X153543100Y-74841979D01*
X153486584Y-74925963D01*
X153421772Y-74989490D01*
X153345661Y-75038543D01*
X153271135Y-75066377D01*
X153196458Y-75075433D01*
X153119708Y-75064648D01*
X153042738Y-75031164D01*
X152977655Y-74977597D01*
X152931760Y-74904463D01*
X152906460Y-74810410D01*
X152895887Y-74650145D01*
X152895887Y-73580666D01*
X152648286Y-73580666D01*
X152648286Y-73529986D01*
X152739934Y-73482760D01*
X152840322Y-73405880D01*
X152932144Y-73310621D01*
X153015413Y-73194457D01*
X153124712Y-72955405D01*
X153177682Y-72955405D01*
G37*
G36*
X155066901Y-73473200D02*
G01*
X155066901Y-74440401D01*
X155071323Y-74691717D01*
X155079723Y-74779441D01*
X155097833Y-74834884D01*
X155120634Y-74865536D01*
X155151156Y-74883609D01*
X155186427Y-74889655D01*
X155240207Y-74882959D01*
X155305801Y-74860499D01*
X155329767Y-74909348D01*
X154861889Y-75094972D01*
X154785105Y-75094972D01*
X154785105Y-74767229D01*
X154590149Y-74958486D01*
X154477665Y-75039254D01*
X154368534Y-75081096D01*
X154253877Y-75094972D01*
X154168966Y-75086157D01*
X154093658Y-75060499D01*
X154025815Y-75017883D01*
X153944300Y-74929952D01*
X153891787Y-74819283D01*
X153865048Y-74685067D01*
X153854235Y-74475664D01*
X153854235Y-73766291D01*
X153846867Y-73662715D01*
X153830269Y-73610434D01*
X153800917Y-73572328D01*
X153759438Y-73543725D01*
X153702704Y-73527916D01*
X153589537Y-73522048D01*
X153589537Y-73473200D01*
X154137862Y-73473200D01*
X154137862Y-74530924D01*
X154148953Y-74677507D01*
X154176270Y-74768197D01*
X154213882Y-74820809D01*
X154297229Y-74872356D01*
X154397370Y-74889808D01*
X154472049Y-74879195D01*
X154563913Y-74843249D01*
X154657565Y-74782061D01*
X154785105Y-74665563D01*
X154785105Y-73766291D01*
X154770484Y-73639122D01*
X154736410Y-73575476D01*
X154699715Y-73550666D01*
X154636320Y-73531614D01*
X154533993Y-73522048D01*
X154533993Y-73473200D01*
X155066901Y-73473200D01*
G37*
G36*
X155872902Y-73751789D02*
G01*
X155999963Y-73601661D01*
X156122285Y-73505188D01*
X156242097Y-73451469D01*
X156363067Y-73434121D01*
X156478200Y-73446671D01*
X156585063Y-73483955D01*
X156686176Y-73547261D01*
X156783165Y-73640201D01*
X156858666Y-73747374D01*
X156914499Y-73874333D01*
X156949925Y-74024882D01*
X156962530Y-74203791D01*
X156950672Y-74369655D01*
X156916511Y-74517232D01*
X156861249Y-74649404D01*
X156784826Y-74768479D01*
X156685925Y-74876069D01*
X156560240Y-74974126D01*
X156431346Y-75041654D01*
X156297506Y-75081579D01*
X156156376Y-75094972D01*
X156020215Y-75082729D01*
X155878855Y-75044902D01*
X155739634Y-74983849D01*
X155591107Y-74894540D01*
X155591107Y-73860935D01*
X155872902Y-73860935D01*
X155872902Y-74795622D01*
X155963472Y-74871891D01*
X156053031Y-74924460D01*
X156147844Y-74957232D01*
X156243541Y-74967966D01*
X156339647Y-74950929D01*
X156434865Y-74897223D01*
X156532968Y-74797454D01*
X156587915Y-74709974D01*
X156629803Y-74601202D01*
X156657093Y-74466669D01*
X156666997Y-74301030D01*
X156650028Y-74104960D01*
X156603921Y-73954503D01*
X156532968Y-73839564D01*
X156435282Y-73746928D01*
X156334872Y-73695260D01*
X156228123Y-73678364D01*
X156138891Y-73689562D01*
X156047078Y-73724464D01*
X155976801Y-73769888D01*
X155872902Y-73860935D01*
X155591107Y-73860935D01*
X155591107Y-73268036D01*
X155586711Y-73018200D01*
X155578284Y-72929149D01*
X155560178Y-72872481D01*
X155538137Y-72843206D01*
X155508037Y-72826469D01*
X155469901Y-72820613D01*
X155419753Y-72826620D01*
X155350375Y-72847938D01*
X155326409Y-72799089D01*
X155796118Y-72613465D01*
X155872902Y-72613465D01*
X155872902Y-73751789D01*
G37*
G36*
X158064770Y-73445497D02*
G01*
X158177864Y-73478273D01*
X158278233Y-73531732D01*
X158367995Y-73606923D01*
X158440386Y-73698068D01*
X158492852Y-73803502D01*
X158525605Y-73925975D01*
X158537134Y-74069152D01*
X157456054Y-74069152D01*
X157467361Y-74243351D01*
X157500705Y-74389197D01*
X157553597Y-74511502D01*
X157625192Y-74614119D01*
X157717616Y-74703186D01*
X157814125Y-74763862D01*
X157916280Y-74799611D01*
X158026513Y-74811650D01*
X158126339Y-74802222D01*
X158214662Y-74774909D01*
X158293807Y-74729982D01*
X158360691Y-74668149D01*
X158424315Y-74577384D01*
X158484163Y-74450171D01*
X158537134Y-74483144D01*
X158498691Y-74631174D01*
X158430125Y-74771031D01*
X158328764Y-74904921D01*
X158236220Y-74988689D01*
X158134804Y-75047315D01*
X158022562Y-75082777D01*
X157896607Y-75094972D01*
X157760724Y-75081242D01*
X157636778Y-75040865D01*
X157521874Y-74973249D01*
X157414074Y-74875459D01*
X157328878Y-74760525D01*
X157266542Y-74626413D01*
X157227346Y-74469472D01*
X157213490Y-74285002D01*
X157228010Y-74084183D01*
X157257740Y-73961685D01*
X157456054Y-73961685D01*
X158180081Y-73961685D01*
X158164917Y-73821613D01*
X158144208Y-73748125D01*
X158090668Y-73661701D01*
X158016896Y-73596695D01*
X157929550Y-73555059D01*
X157840278Y-73541588D01*
X157750162Y-73553628D01*
X157666441Y-73589802D01*
X157586571Y-73652718D01*
X157524328Y-73733074D01*
X157480401Y-73834354D01*
X157456054Y-73961685D01*
X157257740Y-73961685D01*
X157268705Y-73916503D01*
X157332720Y-73776224D01*
X157419265Y-73658824D01*
X157529527Y-73559935D01*
X157650649Y-73490595D01*
X157784984Y-73448583D01*
X157935991Y-73434121D01*
X158064770Y-73445497D01*
G37*
G36*
X142965373Y-78068954D02*
G01*
X142965373Y-78112722D01*
X142858666Y-78052452D01*
X142767380Y-77987572D01*
X142689964Y-77918207D01*
X142593440Y-77806831D01*
X142512690Y-77682739D01*
X142447285Y-77544614D01*
X142399912Y-77399136D01*
X142371585Y-77250558D01*
X142362093Y-77097747D01*
X142372789Y-76930243D01*
X142404297Y-76772478D01*
X142456305Y-76622854D01*
X142529253Y-76480008D01*
X142621597Y-76347410D01*
X142724651Y-76238053D01*
X142838872Y-76149611D01*
X142965373Y-76080622D01*
X142965373Y-76124390D01*
X142881062Y-76179982D01*
X142807745Y-76247392D01*
X142744577Y-76327503D01*
X142694034Y-76416537D01*
X142650729Y-76524331D01*
X142615617Y-76653909D01*
X142583831Y-76854367D01*
X142573021Y-77066679D01*
X142582471Y-77294733D01*
X142609071Y-77491369D01*
X142642461Y-77633929D01*
X142677948Y-77733169D01*
X142724816Y-77821741D01*
X142786685Y-77908438D01*
X142863041Y-77988407D01*
X142965373Y-78068954D01*
G37*
G36*
X143028973Y-76630852D02*
G01*
X143495673Y-76630852D01*
X143495673Y-76662115D01*
X143472714Y-76662115D01*
X143427814Y-76668301D01*
X143398953Y-76684488D01*
X143380567Y-76709583D01*
X143374431Y-76740175D01*
X143381925Y-76788146D01*
X143410481Y-76864153D01*
X143654235Y-77371885D01*
X143878255Y-76815988D01*
X143892284Y-76767958D01*
X143896817Y-76721613D01*
X143889197Y-76690057D01*
X143861842Y-76669736D01*
X143796287Y-76662115D01*
X143796287Y-76630852D01*
X144122009Y-76630852D01*
X144122009Y-76662115D01*
X144084346Y-76669563D01*
X144059678Y-76680482D01*
X144038556Y-76698345D01*
X144011611Y-76732164D01*
X143974389Y-76820580D01*
X143566796Y-77823734D01*
X143521144Y-77916930D01*
X143469506Y-77989374D01*
X143412142Y-78044334D01*
X143345515Y-78087718D01*
X143284703Y-78111492D01*
X143227885Y-78118975D01*
X143168166Y-78109296D01*
X143121883Y-78081655D01*
X143090355Y-78040767D01*
X143080362Y-77995974D01*
X143088089Y-77953820D01*
X143110355Y-77921822D01*
X143144728Y-77901319D01*
X143192909Y-77893881D01*
X143231710Y-77898600D01*
X143291290Y-77916156D01*
X143346001Y-77931396D01*
X143378129Y-77924026D01*
X143417515Y-77898082D01*
X143452791Y-77855063D01*
X143495673Y-77769024D01*
X143566796Y-77596491D01*
X143207173Y-76840803D01*
X143154710Y-76750238D01*
X143109867Y-76695039D01*
X143080285Y-76678709D01*
X143028973Y-76662115D01*
X143028973Y-76630852D01*
G37*
G36*
X144804660Y-76617050D02*
G01*
X144900328Y-76649393D01*
X144984737Y-76702634D01*
X145059804Y-76778766D01*
X145111135Y-76855714D01*
X145147391Y-76937174D01*
X145169292Y-77024207D01*
X145176747Y-77118166D01*
X145169846Y-77206610D01*
X145148718Y-77297133D01*
X145112267Y-77390741D01*
X145062493Y-77477126D01*
X145003414Y-77545691D01*
X144934654Y-77598738D01*
X144856718Y-77637523D01*
X144773238Y-77660850D01*
X144682693Y-77668787D01*
X144573789Y-77657143D01*
X144479469Y-77623533D01*
X144396535Y-77568020D01*
X144323070Y-77488145D01*
X144273576Y-77409268D01*
X144238667Y-77326724D01*
X144217648Y-77239561D01*
X144210523Y-77146595D01*
X144217822Y-77057007D01*
X144413830Y-77057007D01*
X144424162Y-77202609D01*
X144453600Y-77329012D01*
X144500683Y-77439296D01*
X144551202Y-77513843D01*
X144605447Y-77562602D01*
X144664210Y-77590611D01*
X144729685Y-77600008D01*
X144796091Y-77590205D01*
X144853547Y-77561328D01*
X144904563Y-77511396D01*
X144939279Y-77447781D01*
X144963816Y-77350340D01*
X144973440Y-77206581D01*
X144965190Y-77069877D01*
X144942162Y-76955677D01*
X144906305Y-76860392D01*
X144858645Y-76781013D01*
X144800681Y-76720751D01*
X144735702Y-76686262D01*
X144660809Y-76674620D01*
X144603917Y-76683011D01*
X144544354Y-76709596D01*
X144509706Y-76736856D01*
X144478185Y-76776669D01*
X144449881Y-76832011D01*
X144423750Y-76926533D01*
X144413830Y-77057007D01*
X144217822Y-77057007D01*
X144217893Y-77056136D01*
X144240319Y-76965078D01*
X144278813Y-76872360D01*
X144330852Y-76787095D01*
X144390666Y-76720834D01*
X144458576Y-76671006D01*
X144535059Y-76634557D01*
X144613390Y-76613032D01*
X144694710Y-76605842D01*
X144804660Y-76617050D01*
G37*
G36*
X146201981Y-76630852D02*
G01*
X146201981Y-77249861D01*
X146204811Y-77410703D01*
X146210188Y-77466847D01*
X146221778Y-77502330D01*
X146236371Y-77521948D01*
X146255905Y-77533514D01*
X146278478Y-77537384D01*
X146312897Y-77533098D01*
X146354877Y-77518724D01*
X146370216Y-77549987D01*
X146070774Y-77668787D01*
X146021632Y-77668787D01*
X146021632Y-77459031D01*
X145896860Y-77581436D01*
X145824870Y-77633127D01*
X145755027Y-77659906D01*
X145681646Y-77668787D01*
X145627303Y-77663145D01*
X145579106Y-77646724D01*
X145535687Y-77619450D01*
X145483517Y-77563174D01*
X145449909Y-77492346D01*
X145432795Y-77406447D01*
X145425875Y-77272429D01*
X145425875Y-76818431D01*
X145421160Y-76752142D01*
X145410537Y-76718682D01*
X145391752Y-76694295D01*
X145365205Y-76675988D01*
X145328895Y-76665871D01*
X145256468Y-76662115D01*
X145256468Y-76630852D01*
X145607396Y-76630852D01*
X145607396Y-77307796D01*
X145614495Y-77401609D01*
X145631978Y-77459651D01*
X145656050Y-77493323D01*
X145709391Y-77526312D01*
X145773482Y-77537482D01*
X145821276Y-77530689D01*
X145880069Y-77507684D01*
X145940006Y-77468523D01*
X146021632Y-77393965D01*
X146021632Y-76818431D01*
X146012275Y-76737043D01*
X145990467Y-76696309D01*
X145966982Y-76680431D01*
X145926409Y-76668237D01*
X145860920Y-76662115D01*
X145860920Y-76630852D01*
X146201981Y-76630852D01*
G37*
G36*
X147650146Y-76605842D02*
G01*
X147650146Y-76949736D01*
X147614096Y-76949736D01*
X147579884Y-76844812D01*
X147544008Y-76775405D01*
X147507508Y-76732262D01*
X147461267Y-76700759D01*
X147406809Y-76681416D01*
X147341911Y-76674620D01*
X147271100Y-76685218D01*
X147218422Y-76714774D01*
X147182456Y-76758493D01*
X147171430Y-76803776D01*
X147180360Y-76860699D01*
X147206405Y-76907921D01*
X147251352Y-76949230D01*
X147344158Y-77002297D01*
X147503698Y-77079282D01*
X147590590Y-77130255D01*
X147652250Y-77183792D01*
X147693491Y-77239953D01*
X147717504Y-77299686D01*
X147725568Y-77364753D01*
X147718879Y-77430895D01*
X147699562Y-77488596D01*
X147667758Y-77539638D01*
X147622302Y-77585158D01*
X147549927Y-77632015D01*
X147473498Y-77659535D01*
X147391151Y-77668787D01*
X147296741Y-77661191D01*
X147181297Y-77635960D01*
X147122288Y-77625018D01*
X147100713Y-77632162D01*
X147082916Y-77656281D01*
X147046866Y-77656281D01*
X147046866Y-77299882D01*
X147082916Y-77299882D01*
X147111237Y-77395387D01*
X147150498Y-77468867D01*
X147199860Y-77524488D01*
X147260762Y-77566994D01*
X147324680Y-77591732D01*
X147393300Y-77600008D01*
X147441875Y-77594830D01*
X147482253Y-77580137D01*
X147516203Y-77556239D01*
X147552034Y-77507675D01*
X147563782Y-77450824D01*
X147557782Y-77403319D01*
X147540282Y-77362028D01*
X147510732Y-77325381D01*
X147442807Y-77275081D01*
X147299315Y-77197789D01*
X147194737Y-77141327D01*
X147129090Y-77094976D01*
X147091611Y-77057007D01*
X147064913Y-77012784D01*
X147048326Y-76960501D01*
X147042470Y-76898152D01*
X147052138Y-76818578D01*
X147080188Y-76749962D01*
X147127173Y-76689666D01*
X147188154Y-76643659D01*
X147260140Y-76615654D01*
X147346308Y-76605842D01*
X147407811Y-76611773D01*
X147489532Y-76632318D01*
X147563782Y-76649610D01*
X147591137Y-76641599D01*
X147614096Y-76605842D01*
X147650146Y-76605842D01*
G37*
G36*
X148167745Y-76080622D02*
G01*
X148167745Y-76813839D01*
X148286361Y-76696217D01*
X148360111Y-76643455D01*
X148432238Y-76614962D01*
X148502260Y-76605842D01*
X148557435Y-76611301D01*
X148605743Y-76627076D01*
X148648611Y-76653029D01*
X148684251Y-76688278D01*
X148714643Y-76736575D01*
X148739371Y-76800943D01*
X148753691Y-76885533D01*
X148760181Y-77057398D01*
X148760181Y-77412429D01*
X148764973Y-77503183D01*
X148775519Y-77547349D01*
X148790165Y-77571577D01*
X148812644Y-77590433D01*
X148844710Y-77601391D01*
X148908876Y-77606260D01*
X148908876Y-77637524D01*
X148416971Y-77637524D01*
X148416971Y-77606260D01*
X148439930Y-77606260D01*
X148503651Y-77599670D01*
X148537236Y-77584181D01*
X148559886Y-77557824D01*
X148575435Y-77519017D01*
X148578757Y-77412429D01*
X148578757Y-77056714D01*
X148573260Y-76905959D01*
X148561758Y-76840413D01*
X148539143Y-76794304D01*
X148507634Y-76762939D01*
X148467514Y-76743839D01*
X148418045Y-76737147D01*
X148364720Y-76743947D01*
X148306573Y-76765674D01*
X148248428Y-76804120D01*
X148167745Y-76880664D01*
X148167745Y-77412429D01*
X148171612Y-77509184D01*
X148179176Y-77545102D01*
X148194988Y-77568345D01*
X148221870Y-77588675D01*
X148259051Y-77600932D01*
X148329532Y-77606260D01*
X148329532Y-77637524D01*
X147833328Y-77637524D01*
X147833328Y-77606260D01*
X147895733Y-77600281D01*
X147938255Y-77584767D01*
X147957177Y-77569256D01*
X147973230Y-77541683D01*
X147982126Y-77501749D01*
X147986322Y-77412429D01*
X147986322Y-76499547D01*
X147983505Y-76339323D01*
X147978115Y-76282464D01*
X147966645Y-76246223D01*
X147952909Y-76227558D01*
X147933851Y-76217022D01*
X147907578Y-76213197D01*
X147833328Y-76230685D01*
X147817990Y-76199422D01*
X148117431Y-76080622D01*
X148167745Y-76080622D01*
G37*
G36*
X149592602Y-76617050D02*
G01*
X149688269Y-76649393D01*
X149772678Y-76702634D01*
X149847745Y-76778766D01*
X149899076Y-76855714D01*
X149935332Y-76937174D01*
X149957233Y-77024207D01*
X149964689Y-77118166D01*
X149957787Y-77206610D01*
X149936659Y-77297133D01*
X149900209Y-77390741D01*
X149850435Y-77477126D01*
X149791355Y-77545691D01*
X149722595Y-77598738D01*
X149644659Y-77637523D01*
X149561180Y-77660850D01*
X149470634Y-77668787D01*
X149361731Y-77657143D01*
X149267411Y-77623533D01*
X149184476Y-77568020D01*
X149111011Y-77488145D01*
X149061518Y-77409268D01*
X149026609Y-77326724D01*
X149005589Y-77239561D01*
X148998464Y-77146595D01*
X149005763Y-77057007D01*
X149201772Y-77057007D01*
X149212103Y-77202609D01*
X149241542Y-77329012D01*
X149288625Y-77439296D01*
X149339143Y-77513843D01*
X149393389Y-77562602D01*
X149452151Y-77590611D01*
X149517627Y-77600008D01*
X149584032Y-77590205D01*
X149641489Y-77561328D01*
X149692505Y-77511396D01*
X149727221Y-77447781D01*
X149751757Y-77350340D01*
X149761381Y-77206581D01*
X149753131Y-77069877D01*
X149730103Y-76955677D01*
X149694247Y-76860392D01*
X149646587Y-76781013D01*
X149588622Y-76720751D01*
X149523644Y-76686262D01*
X149448750Y-76674620D01*
X149391858Y-76683011D01*
X149332295Y-76709596D01*
X149297647Y-76736856D01*
X149266127Y-76776669D01*
X149237822Y-76832011D01*
X149211691Y-76926533D01*
X149201772Y-77057007D01*
X149005763Y-77057007D01*
X149005834Y-77056136D01*
X149028260Y-76965078D01*
X149066754Y-76872360D01*
X149118794Y-76787095D01*
X149178608Y-76720834D01*
X149246517Y-76671006D01*
X149323000Y-76634557D01*
X149401332Y-76613032D01*
X149482651Y-76605842D01*
X149592602Y-76617050D01*
G37*
G36*
X150989923Y-76630852D02*
G01*
X150989923Y-77249861D01*
X150992753Y-77410703D01*
X150998129Y-77466847D01*
X151009719Y-77502330D01*
X151024312Y-77521948D01*
X151043846Y-77533514D01*
X151066419Y-77537384D01*
X151100838Y-77533098D01*
X151142819Y-77518724D01*
X151158157Y-77549987D01*
X150858715Y-77668787D01*
X150809574Y-77668787D01*
X150809574Y-77459031D01*
X150684801Y-77581436D01*
X150612812Y-77633127D01*
X150542968Y-77659906D01*
X150469588Y-77668787D01*
X150415245Y-77663145D01*
X150367048Y-77646724D01*
X150323628Y-77619450D01*
X150271458Y-77563174D01*
X150237850Y-77492346D01*
X150220737Y-77406447D01*
X150213816Y-77272429D01*
X150213816Y-76818431D01*
X150209101Y-76752142D01*
X150198478Y-76718682D01*
X150179693Y-76694295D01*
X150153147Y-76675988D01*
X150116837Y-76665871D01*
X150044410Y-76662115D01*
X150044410Y-76630852D01*
X150395338Y-76630852D01*
X150395338Y-77307796D01*
X150402436Y-77401609D01*
X150419919Y-77459651D01*
X150443991Y-77493323D01*
X150497333Y-77526312D01*
X150561423Y-77537482D01*
X150609218Y-77530689D01*
X150668010Y-77507684D01*
X150727948Y-77468523D01*
X150809574Y-77393965D01*
X150809574Y-76818431D01*
X150800216Y-76737043D01*
X150778408Y-76696309D01*
X150754924Y-76680431D01*
X150714351Y-76668237D01*
X150648862Y-76662115D01*
X150648862Y-76630852D01*
X150989923Y-76630852D01*
G37*
G36*
X151575715Y-76080622D02*
G01*
X151575715Y-77412429D01*
X151580095Y-77501731D01*
X151589392Y-77541683D01*
X151606895Y-77569756D01*
X151631500Y-77589847D01*
X151666355Y-77601172D01*
X151737501Y-77606260D01*
X151737501Y-77637524D01*
X151246768Y-77637524D01*
X151246768Y-77606260D01*
X151309908Y-77601685D01*
X151340753Y-77591508D01*
X151362531Y-77572674D01*
X151380027Y-77542757D01*
X151389794Y-77500952D01*
X151394291Y-77412429D01*
X151394291Y-76499547D01*
X151391642Y-76339403D01*
X151386573Y-76282562D01*
X151375579Y-76246397D01*
X151361953Y-76227656D01*
X151343181Y-76216964D01*
X151318869Y-76213197D01*
X151289011Y-76217001D01*
X151246671Y-76230685D01*
X151228108Y-76199422D01*
X151526573Y-76080622D01*
X151575715Y-76080622D01*
G37*
G36*
X152741046Y-77249861D02*
G01*
X152743882Y-77411285D01*
X152749253Y-77467237D01*
X152760835Y-77502447D01*
X152775435Y-77521948D01*
X152794970Y-77533514D01*
X152817543Y-77537384D01*
X152848994Y-77533406D01*
X152896287Y-77518724D01*
X152908304Y-77549987D01*
X152611011Y-77668787D01*
X152560697Y-77668787D01*
X152560697Y-77527028D01*
X152485366Y-77594247D01*
X152417473Y-77635765D01*
X152345282Y-77660438D01*
X152266726Y-77668787D01*
X152188210Y-77660398D01*
X152115331Y-77635497D01*
X152046419Y-77593300D01*
X151980376Y-77531522D01*
X151927830Y-77459722D01*
X151889822Y-77378293D01*
X151866216Y-77285441D01*
X151857962Y-77178835D01*
X151864790Y-77093741D01*
X152057948Y-77093741D01*
X152064972Y-77205663D01*
X152084409Y-77297173D01*
X152114419Y-77371774D01*
X152154082Y-77432360D01*
X152206760Y-77486565D01*
X152259382Y-77522532D01*
X152312795Y-77543176D01*
X152368331Y-77549987D01*
X152430736Y-77539980D01*
X152494104Y-77508436D01*
X152560697Y-77450433D01*
X152560697Y-76933909D01*
X152547409Y-76862244D01*
X152521325Y-76798305D01*
X152482665Y-76743881D01*
X152434472Y-76705786D01*
X152379735Y-76682033D01*
X152328960Y-76674620D01*
X152268603Y-76683771D01*
X152212070Y-76711605D01*
X152157403Y-76761082D01*
X152116312Y-76820085D01*
X152085296Y-76893106D01*
X152065214Y-76983109D01*
X152057948Y-77093741D01*
X151864790Y-77093741D01*
X151866412Y-77073530D01*
X151891494Y-76973577D01*
X151933469Y-76877635D01*
X151993468Y-76784627D01*
X152067915Y-76704824D01*
X152149576Y-76649933D01*
X152240073Y-76617095D01*
X152342149Y-76605842D01*
X152426767Y-76615697D01*
X152498644Y-76644049D01*
X152560697Y-76691034D01*
X152560697Y-76499547D01*
X152557880Y-76339323D01*
X152552491Y-76282464D01*
X152540907Y-76246282D01*
X152526796Y-76227558D01*
X152507540Y-76216922D01*
X152483126Y-76213197D01*
X152452859Y-76216937D01*
X152407703Y-76230685D01*
X152393537Y-76199422D01*
X152691904Y-76080622D01*
X152741046Y-76080622D01*
X152741046Y-77249861D01*
G37*
G36*
X154179441Y-76605842D02*
G01*
X154179441Y-76949736D01*
X154143391Y-76949736D01*
X154109179Y-76844812D01*
X154073303Y-76775405D01*
X154036803Y-76732262D01*
X153990562Y-76700759D01*
X153936104Y-76681416D01*
X153871207Y-76674620D01*
X153800395Y-76685218D01*
X153747717Y-76714774D01*
X153711751Y-76758493D01*
X153700725Y-76803776D01*
X153709655Y-76860699D01*
X153735701Y-76907921D01*
X153780647Y-76949230D01*
X153873454Y-77002297D01*
X154032993Y-77079282D01*
X154119885Y-77130255D01*
X154181545Y-77183792D01*
X154222786Y-77239953D01*
X154246799Y-77299686D01*
X154254863Y-77364753D01*
X154248174Y-77430895D01*
X154228857Y-77488596D01*
X154197053Y-77539638D01*
X154151597Y-77585158D01*
X154079222Y-77632015D01*
X154002793Y-77659535D01*
X153920446Y-77668787D01*
X153826036Y-77661191D01*
X153710592Y-77635960D01*
X153651583Y-77625018D01*
X153630009Y-77632162D01*
X153612211Y-77656281D01*
X153576161Y-77656281D01*
X153576161Y-77299882D01*
X153612211Y-77299882D01*
X153640532Y-77395387D01*
X153679793Y-77468867D01*
X153729155Y-77524488D01*
X153790057Y-77566994D01*
X153853975Y-77591732D01*
X153922595Y-77600008D01*
X153971170Y-77594830D01*
X154011549Y-77580137D01*
X154045498Y-77556239D01*
X154081329Y-77507675D01*
X154093077Y-77450824D01*
X154087078Y-77403319D01*
X154069577Y-77362028D01*
X154040027Y-77325381D01*
X153972102Y-77275081D01*
X153828611Y-77197789D01*
X153724032Y-77141327D01*
X153658385Y-77094976D01*
X153620906Y-77057007D01*
X153594208Y-77012784D01*
X153577622Y-76960501D01*
X153571765Y-76898152D01*
X153581433Y-76818578D01*
X153609483Y-76749962D01*
X153656468Y-76689666D01*
X153717449Y-76643659D01*
X153789435Y-76615654D01*
X153875603Y-76605842D01*
X153937107Y-76611773D01*
X154018827Y-76632318D01*
X154093077Y-76649610D01*
X154120432Y-76641599D01*
X154143391Y-76605842D01*
X154179441Y-76605842D01*
G37*
G36*
X155280781Y-76630852D02*
G01*
X155280781Y-77249861D01*
X155283611Y-77410703D01*
X155288987Y-77466847D01*
X155300578Y-77502330D01*
X155315170Y-77521948D01*
X155334704Y-77533514D01*
X155357278Y-77537384D01*
X155391697Y-77533098D01*
X155433677Y-77518724D01*
X155449015Y-77549987D01*
X155149574Y-77668787D01*
X155100432Y-77668787D01*
X155100432Y-77459031D01*
X154975660Y-77581436D01*
X154903670Y-77633127D01*
X154833826Y-77659906D01*
X154760446Y-77668787D01*
X154706103Y-77663145D01*
X154657906Y-77646724D01*
X154614486Y-77619450D01*
X154562317Y-77563174D01*
X154528708Y-77492346D01*
X154511595Y-77406447D01*
X154504675Y-77272429D01*
X154504675Y-76818431D01*
X154499959Y-76752142D01*
X154489336Y-76718682D01*
X154470552Y-76694295D01*
X154444005Y-76675988D01*
X154407695Y-76665871D01*
X154335268Y-76662115D01*
X154335268Y-76630852D01*
X154686196Y-76630852D01*
X154686196Y-77307796D01*
X154693295Y-77401609D01*
X154710778Y-77459651D01*
X154734849Y-77493323D01*
X154788191Y-77526312D01*
X154852281Y-77537482D01*
X154900076Y-77530689D01*
X154958869Y-77507684D01*
X155018806Y-77468523D01*
X155100432Y-77393965D01*
X155100432Y-76818431D01*
X155091075Y-76737043D01*
X155069267Y-76696309D01*
X155045782Y-76680431D01*
X155005209Y-76668237D01*
X154939720Y-76662115D01*
X154939720Y-76630852D01*
X155280781Y-76630852D01*
G37*
G36*
X155796622Y-76809149D02*
G01*
X155877941Y-76713068D01*
X155956227Y-76651325D01*
X156032906Y-76616944D01*
X156110327Y-76605842D01*
X156184012Y-76613874D01*
X156252405Y-76637735D01*
X156317117Y-76678251D01*
X156379190Y-76737733D01*
X156427510Y-76806324D01*
X156463244Y-76887577D01*
X156485916Y-76983929D01*
X156493984Y-77098431D01*
X156486395Y-77204583D01*
X156464532Y-77299033D01*
X156429164Y-77383623D01*
X156380253Y-77459831D01*
X156316957Y-77528689D01*
X156236518Y-77591445D01*
X156154026Y-77634663D01*
X156068368Y-77660215D01*
X155978045Y-77668787D01*
X155890902Y-77660951D01*
X155800432Y-77636742D01*
X155711330Y-77597668D01*
X155616273Y-77540510D01*
X155616273Y-76879003D01*
X155796622Y-76879003D01*
X155796622Y-77477202D01*
X155854587Y-77526015D01*
X155911904Y-77559659D01*
X155972584Y-77580633D01*
X156033830Y-77587503D01*
X156095338Y-77576599D01*
X156156278Y-77542227D01*
X156219064Y-77478375D01*
X156254230Y-77422388D01*
X156281038Y-77352774D01*
X156298504Y-77266673D01*
X156304842Y-77160664D01*
X156293983Y-77035179D01*
X156264474Y-76938886D01*
X156219064Y-76865325D01*
X156156545Y-76806038D01*
X156092282Y-76772971D01*
X156023963Y-76762157D01*
X155966855Y-76769324D01*
X155908094Y-76791662D01*
X155863117Y-76820733D01*
X155796622Y-76879003D01*
X155616273Y-76879003D01*
X155616273Y-76499547D01*
X155613460Y-76339652D01*
X155608066Y-76282660D01*
X155596478Y-76246392D01*
X155582372Y-76227656D01*
X155563108Y-76216945D01*
X155538701Y-76213197D01*
X155506607Y-76217041D01*
X155462204Y-76230685D01*
X155446866Y-76199422D01*
X155747480Y-76080622D01*
X155796622Y-76080622D01*
X155796622Y-76809149D01*
G37*
G36*
X157288555Y-76605842D02*
G01*
X157288555Y-76949736D01*
X157252505Y-76949736D01*
X157218292Y-76844812D01*
X157182417Y-76775405D01*
X157145917Y-76732262D01*
X157099676Y-76700759D01*
X157045218Y-76681416D01*
X156980320Y-76674620D01*
X156909509Y-76685218D01*
X156856831Y-76714774D01*
X156820865Y-76758493D01*
X156809839Y-76803776D01*
X156818769Y-76860699D01*
X156844814Y-76907921D01*
X156889761Y-76949230D01*
X156982567Y-77002297D01*
X157142107Y-77079282D01*
X157228999Y-77130255D01*
X157290659Y-77183792D01*
X157331899Y-77239953D01*
X157355913Y-77299686D01*
X157363977Y-77364753D01*
X157357288Y-77430895D01*
X157337971Y-77488596D01*
X157306167Y-77539638D01*
X157260711Y-77585158D01*
X157188336Y-77632015D01*
X157111907Y-77659535D01*
X157029560Y-77668787D01*
X156935150Y-77661191D01*
X156819706Y-77635960D01*
X156760697Y-77625018D01*
X156739122Y-77632162D01*
X156721325Y-77656281D01*
X156685275Y-77656281D01*
X156685275Y-77299882D01*
X156721325Y-77299882D01*
X156749646Y-77395387D01*
X156788907Y-77468867D01*
X156838269Y-77524488D01*
X156899171Y-77566994D01*
X156963089Y-77591732D01*
X157031709Y-77600008D01*
X157080284Y-77594830D01*
X157120662Y-77580137D01*
X157154612Y-77556239D01*
X157190443Y-77507675D01*
X157202191Y-77450824D01*
X157196191Y-77403319D01*
X157178691Y-77362028D01*
X157149141Y-77325381D01*
X157081216Y-77275081D01*
X156937724Y-77197789D01*
X156833146Y-77141327D01*
X156767499Y-77094976D01*
X156730020Y-77057007D01*
X156703322Y-77012784D01*
X156686735Y-76960501D01*
X156680879Y-76898152D01*
X156690547Y-76818578D01*
X156718596Y-76749962D01*
X156765582Y-76689666D01*
X156826563Y-76643659D01*
X156898549Y-76615654D01*
X156984717Y-76605842D01*
X157046220Y-76611773D01*
X157127941Y-76632318D01*
X157202191Y-76649610D01*
X157229546Y-76641599D01*
X157252505Y-76605842D01*
X157288555Y-76605842D01*
G37*
G36*
X158362539Y-77264809D02*
G01*
X158325023Y-77389219D01*
X158271909Y-77487416D01*
X158203977Y-77564055D01*
X158120698Y-77623233D01*
X158034410Y-77657420D01*
X157942833Y-77668787D01*
X157861217Y-77660023D01*
X157785532Y-77634014D01*
X157714021Y-77589933D01*
X157645540Y-77525367D01*
X157591905Y-77450607D01*
X157552460Y-77362865D01*
X157527556Y-77259673D01*
X157518729Y-77137900D01*
X157528179Y-77021146D01*
X157555190Y-76919890D01*
X157598731Y-76831408D01*
X157659120Y-76753657D01*
X157734216Y-76688034D01*
X157814460Y-76642453D01*
X157901193Y-76615144D01*
X157996371Y-76605842D01*
X158091977Y-76615099D01*
X158171764Y-76641296D01*
X158238953Y-76683511D01*
X158294986Y-76740025D01*
X158324787Y-76793088D01*
X158334110Y-76844907D01*
X158327230Y-76882692D01*
X158307341Y-76911731D01*
X158276524Y-76930411D01*
X158232505Y-76937230D01*
X158191537Y-76932176D01*
X158159848Y-76918114D01*
X158135198Y-76895318D01*
X158121094Y-76866218D01*
X158110579Y-76807098D01*
X158095828Y-76748115D01*
X158066322Y-76707740D01*
X158022739Y-76683546D01*
X157960320Y-76674620D01*
X157891367Y-76683943D01*
X157833644Y-76710874D01*
X157784368Y-76756295D01*
X157736649Y-76832915D01*
X157706606Y-76926689D01*
X157695854Y-77042059D01*
X157706001Y-77160099D01*
X157735454Y-77265813D01*
X157783782Y-77361529D01*
X157833458Y-77423898D01*
X157888705Y-77466216D01*
X157950636Y-77491350D01*
X158021479Y-77499966D01*
X158090361Y-77492039D01*
X158153937Y-77468483D01*
X158213844Y-77428354D01*
X158249446Y-77391846D01*
X158288330Y-77334498D01*
X158330788Y-77249861D01*
X158362539Y-77264809D01*
G37*
G36*
X158799246Y-76605842D02*
G01*
X158799246Y-76833085D01*
X158872726Y-76720381D01*
X158938932Y-76652314D01*
X158999475Y-76616780D01*
X159057166Y-76605842D01*
X159112816Y-76615360D01*
X159156622Y-76642869D01*
X159186420Y-76683295D01*
X159195994Y-76728354D01*
X159188808Y-76768243D01*
X159167564Y-76801138D01*
X159136214Y-76823578D01*
X159099860Y-76830936D01*
X159061848Y-76822665D01*
X159013984Y-76793420D01*
X158968185Y-76763016D01*
X158943544Y-76755905D01*
X158924435Y-76760677D01*
X158900948Y-76777691D01*
X158854600Y-76831520D01*
X158799246Y-76924823D01*
X158799246Y-77412429D01*
X158805236Y-77485617D01*
X158820055Y-77531131D01*
X158838654Y-77556848D01*
X158870271Y-77582618D01*
X158911178Y-77599621D01*
X158974124Y-77606260D01*
X158974124Y-77637524D01*
X158461507Y-77637524D01*
X158461507Y-77606260D01*
X158532175Y-77599060D01*
X158575226Y-77581152D01*
X158597821Y-77558412D01*
X158613426Y-77523022D01*
X158618897Y-77412429D01*
X158618897Y-77024767D01*
X158616366Y-76858542D01*
X158611765Y-76805925D01*
X158601059Y-76774493D01*
X158585582Y-76755221D01*
X158564529Y-76743563D01*
X158538003Y-76739491D01*
X158503407Y-76743283D01*
X158461507Y-76755905D01*
X158450565Y-76724641D01*
X158753328Y-76605842D01*
X158799246Y-76605842D01*
G37*
G36*
X159506671Y-76080622D02*
G01*
X159549235Y-76088611D01*
X159584828Y-76112471D01*
X159609009Y-76147595D01*
X159617068Y-76189457D01*
X159609024Y-76231503D01*
X159584828Y-76267126D01*
X159549197Y-76291367D01*
X159506671Y-76299463D01*
X159464044Y-76291386D01*
X159427927Y-76267126D01*
X159403349Y-76231465D01*
X159395198Y-76189457D01*
X159403257Y-76147595D01*
X159427438Y-76112471D01*
X159463181Y-76088659D01*
X159506671Y-76080622D01*
G37*
G36*
X159597334Y-76605842D02*
G01*
X159597334Y-77412429D01*
X159601699Y-77501801D01*
X159611011Y-77542269D01*
X159628261Y-77570785D01*
X159651458Y-77590433D01*
X159684070Y-77601390D01*
X159749253Y-77606260D01*
X159749253Y-77637524D01*
X159262916Y-77637524D01*
X159262916Y-77606260D01*
X159329853Y-77601624D01*
X159361200Y-77591508D01*
X159383180Y-77572684D01*
X159401158Y-77542757D01*
X159411262Y-77500934D01*
X159415910Y-77412429D01*
X159415910Y-77024767D01*
X159412682Y-76869054D01*
X159406043Y-76803972D01*
X159395320Y-76771182D01*
X159382009Y-76753462D01*
X159363395Y-76743240D01*
X159337166Y-76739491D01*
X159305383Y-76743148D01*
X159262916Y-76755905D01*
X159247578Y-76724641D01*
X159549267Y-76605842D01*
X159597334Y-76605842D01*
G37*
G36*
X160148443Y-76809149D02*
G01*
X160229762Y-76713068D01*
X160308048Y-76651325D01*
X160384728Y-76616944D01*
X160462149Y-76605842D01*
X160535834Y-76613874D01*
X160604226Y-76637735D01*
X160668939Y-76678251D01*
X160731011Y-76737733D01*
X160779332Y-76806324D01*
X160815065Y-76887577D01*
X160837738Y-76983929D01*
X160845805Y-77098431D01*
X160838216Y-77204583D01*
X160816353Y-77299033D01*
X160780985Y-77383623D01*
X160732075Y-77459831D01*
X160668778Y-77528689D01*
X160588339Y-77591445D01*
X160505847Y-77634663D01*
X160420189Y-77660215D01*
X160329867Y-77668787D01*
X160242723Y-77660951D01*
X160152253Y-77636742D01*
X160063152Y-77597668D01*
X159968094Y-77540510D01*
X159968094Y-76879003D01*
X160148443Y-76879003D01*
X160148443Y-77477202D01*
X160206408Y-77526015D01*
X160263726Y-77559659D01*
X160324406Y-77580633D01*
X160385652Y-77587503D01*
X160447160Y-77576599D01*
X160508099Y-77542227D01*
X160570886Y-77478375D01*
X160606052Y-77422388D01*
X160632860Y-77352774D01*
X160650326Y-77266673D01*
X160656664Y-77160664D01*
X160645804Y-77035179D01*
X160616295Y-76938886D01*
X160570886Y-76865325D01*
X160508366Y-76806038D01*
X160444104Y-76772971D01*
X160375784Y-76762157D01*
X160318676Y-76769324D01*
X160259916Y-76791662D01*
X160214939Y-76820733D01*
X160148443Y-76879003D01*
X159968094Y-76879003D01*
X159968094Y-76499547D01*
X159965281Y-76339652D01*
X159959888Y-76282660D01*
X159948299Y-76246392D01*
X159934193Y-76227656D01*
X159914930Y-76216945D01*
X159890523Y-76213197D01*
X159858428Y-76217041D01*
X159814026Y-76230685D01*
X159798687Y-76199422D01*
X160099301Y-76080622D01*
X160148443Y-76080622D01*
X160148443Y-76809149D01*
G37*
G36*
X161551238Y-76613122D02*
G01*
X161623619Y-76634099D01*
X161687855Y-76668313D01*
X161745303Y-76716435D01*
X161791633Y-76774768D01*
X161825211Y-76842245D01*
X161846173Y-76920628D01*
X161853551Y-77012262D01*
X161161660Y-77012262D01*
X161168897Y-77123749D01*
X161190237Y-77217091D01*
X161224088Y-77295365D01*
X161269909Y-77361041D01*
X161329060Y-77418043D01*
X161390826Y-77456876D01*
X161456205Y-77479755D01*
X161526754Y-77487461D01*
X161590643Y-77481426D01*
X161647169Y-77463946D01*
X161697822Y-77435193D01*
X161740628Y-77395620D01*
X161781347Y-77337530D01*
X161819650Y-77256114D01*
X161853551Y-77277216D01*
X161828948Y-77371956D01*
X161785066Y-77461464D01*
X161720195Y-77547154D01*
X161660967Y-77600765D01*
X161596060Y-77638286D01*
X161524225Y-77660982D01*
X161443614Y-77668787D01*
X161356649Y-77659999D01*
X161277324Y-77634158D01*
X161203785Y-77590884D01*
X161134793Y-77528298D01*
X161080268Y-77454740D01*
X161040372Y-77368909D01*
X161015287Y-77268467D01*
X161006419Y-77150406D01*
X161015712Y-77021881D01*
X161034739Y-76943483D01*
X161161660Y-76943483D01*
X161625038Y-76943483D01*
X161615333Y-76853837D01*
X161602079Y-76806805D01*
X161567813Y-76751493D01*
X161520599Y-76709889D01*
X161464698Y-76683242D01*
X161407564Y-76674620D01*
X161349890Y-76682326D01*
X161296308Y-76705478D01*
X161245191Y-76745744D01*
X161205356Y-76797172D01*
X161177243Y-76861991D01*
X161161660Y-76943483D01*
X161034739Y-76943483D01*
X161041757Y-76914566D01*
X161082727Y-76824788D01*
X161138115Y-76749652D01*
X161208683Y-76686363D01*
X161286201Y-76641985D01*
X161372176Y-76615098D01*
X161468820Y-76605842D01*
X161551238Y-76613122D01*
G37*
G36*
X162311067Y-77243609D02*
G01*
X162269448Y-77243609D01*
X162173314Y-76361697D01*
X162166768Y-76275723D01*
X162176425Y-76212412D01*
X162203307Y-76165814D01*
X162244055Y-76134548D01*
X162291332Y-76124390D01*
X162338401Y-76134585D01*
X162378185Y-76165814D01*
X162403880Y-76213968D01*
X162413747Y-76288814D01*
X162409350Y-76361697D01*
X162311067Y-77243609D01*
G37*
G36*
X162289183Y-77424935D02*
G01*
X162335772Y-77433893D01*
X162374961Y-77460789D01*
X162401672Y-77500184D01*
X162410523Y-77546274D01*
X162401619Y-77593373D01*
X162374961Y-77632932D01*
X162335772Y-77659828D01*
X162289183Y-77668787D01*
X162242577Y-77659831D01*
X162203307Y-77632932D01*
X162176726Y-77593381D01*
X162167843Y-77546274D01*
X162176672Y-77500176D01*
X162203307Y-77460789D01*
X162242577Y-77433890D01*
X162289183Y-77424935D01*
G37*
G36*
X162713482Y-76124390D02*
G01*
X162713482Y-76080622D01*
X162820854Y-76140305D01*
X162912476Y-76204798D01*
X162989964Y-76273965D01*
X163085915Y-76385978D01*
X163166276Y-76510318D01*
X163231472Y-76648242D01*
X163278857Y-76793353D01*
X163307237Y-76942086D01*
X163316761Y-77095597D01*
X163306094Y-77263121D01*
X163274673Y-77420896D01*
X163222814Y-77570514D01*
X163150090Y-77713336D01*
X163058008Y-77845846D01*
X162954976Y-77955186D01*
X162840516Y-78043666D01*
X162713482Y-78112722D01*
X162713482Y-78068954D01*
X162797901Y-78012787D01*
X162871386Y-77945194D01*
X162934766Y-77865353D01*
X162985595Y-77776553D01*
X163028911Y-77668788D01*
X163063726Y-77538947D01*
X163095153Y-77337992D01*
X163105833Y-77125590D01*
X163096409Y-76898367D01*
X163069783Y-76700901D01*
X163037056Y-76558446D01*
X163001395Y-76459589D01*
X162954286Y-76371460D01*
X162892658Y-76284907D01*
X162816597Y-76205045D01*
X162713482Y-76124390D01*
G37*
D12*
%TO.C,REF\u002A\u002A*%
X120904200Y-71983600D03*
X120904200Y-73583600D03*
X122504200Y-71983600D03*
X122504200Y-73583600D03*
D13*
X118266700Y-70183600D03*
X118266700Y-70583600D03*
X118266700Y-70983600D03*
X118266700Y-71383600D03*
X118266700Y-71783600D03*
X118266700Y-72183600D03*
X118266700Y-72583600D03*
X118266700Y-72983600D03*
X118266700Y-73383600D03*
X118266700Y-73783600D03*
X118266700Y-74183600D03*
X118266700Y-74583600D03*
X118266700Y-74983600D03*
X118266700Y-75383600D03*
D14*
X119104200Y-76221100D03*
X119504200Y-76221100D03*
X119904200Y-76221100D03*
X120304200Y-76221100D03*
X120704200Y-76221100D03*
X121104200Y-76221100D03*
X121504200Y-76221100D03*
X121904200Y-76221100D03*
X122304200Y-76221100D03*
X122704200Y-76221100D03*
X123104200Y-76221100D03*
X123504200Y-76221100D03*
X123904200Y-76221100D03*
X124304200Y-76221100D03*
D13*
X125141700Y-75383600D03*
X125141700Y-74983600D03*
X125141700Y-74583600D03*
X125141700Y-74183600D03*
X125141700Y-73783600D03*
X125141700Y-73383600D03*
X125141700Y-72983600D03*
X125141700Y-72583600D03*
X125141700Y-72183600D03*
X125141700Y-71783600D03*
X125141700Y-71383600D03*
X125141700Y-70983600D03*
X125141700Y-70583600D03*
X125141700Y-70183600D03*
D14*
X124304200Y-69346100D03*
X123904200Y-69346100D03*
X123504200Y-69346100D03*
X123104200Y-69346100D03*
X122704200Y-69346100D03*
X122304200Y-69346100D03*
X121904200Y-69346100D03*
X121504200Y-69346100D03*
X121104200Y-69346100D03*
X120704200Y-69346100D03*
X120304200Y-69346100D03*
X119904200Y-69346100D03*
X119504200Y-69346100D03*
X119104200Y-69346100D03*
%TD*%
M02*
